<?xml version="1.0" encoding="utf-8" standalone="no"?>
<!DOCTYPE svg PUBLIC "-//W3C//DTD SVG 1.1//EN"
  "http://www.w3.org/Graphics/SVG/1.1/DTD/svg11.dtd">
<svg xmlns:xlink="http://www.w3.org/1999/xlink" width="1080pt" height="576pt" viewBox="0 0 1080 576" xmlns="http://www.w3.org/2000/svg" version="1.1">
 <metadata>
  <rdf:RDF xmlns:dc="http://purl.org/dc/elements/1.1/" xmlns:cc="http://creativecommons.org/ns#" xmlns:rdf="http://www.w3.org/1999/02/22-rdf-syntax-ns#">
   <cc:Work>
    <dc:type rdf:resource="http://purl.org/dc/dcmitype/StillImage"/>
    <dc:date>2023-08-12T17:06:28.958551</dc:date>
    <dc:format>image/svg+xml</dc:format>
    <dc:creator>
     <cc:Agent>
      <dc:title>Matplotlib v3.7.1, https://matplotlib.org/</dc:title>
     </cc:Agent>
    </dc:creator>
   </cc:Work>
  </rdf:RDF>
 </metadata>
 <defs>
  <style type="text/css">*{stroke-linejoin: round; stroke-linecap: butt}</style>
 </defs>
 <g id="figure_1">
  <g id="patch_1">
   <path d="M 0 576 
L 1080 576 
L 1080 0 
L 0 0 
z
" style="fill: #ffffff"/>
  </g>
  <g id="axes_1">
   <g id="patch_2">
    <path d="M 117.25 478.6 
L 775.975 478.6 
L 775.975 42.9 
L 117.25 42.9 
z
" style="fill: #ffffff"/>
   </g>
   <g id="PathCollection_1">
    <defs>
     <path id="m5ddec33e0e" d="M 0 8.660254 
C 2.296726 8.660254 4.499694 7.747755 6.123724 6.123724 
C 7.747755 4.499694 8.660254 2.296726 8.660254 0 
C 8.660254 -2.296726 7.747755 -4.499694 6.123724 -6.123724 
C 4.499694 -7.747755 2.296726 -8.660254 0 -8.660254 
C -2.296726 -8.660254 -4.499694 -7.747755 -6.123724 -6.123724 
C -7.747755 -4.499694 -8.660254 -2.296726 -8.660254 0 
C -8.660254 2.296726 -7.747755 4.499694 -6.123724 6.123724 
C -4.499694 7.747755 -2.296726 8.660254 0 8.660254 
z
" style="stroke: #440154"/>
    </defs>
    <g clip-path="url(#p0e3962752f)">
     <use xlink:href="#m5ddec33e0e" x="576.956688" y="343.828593" style="fill: #440154; stroke: #440154"/>
    </g>
   </g>
   <g id="PathCollection_2">
    <defs>
     <path id="m57658aeb93" d="M 0 -8.660254 
L -8.660254 8.660254 
L 8.660254 8.660254 
z
" style="stroke: #440154"/>
    </defs>
    <g clip-path="url(#p0e3962752f)">
     <use xlink:href="#m57658aeb93" x="683.468994" y="288.721233" style="fill: #440154; stroke: #440154"/>
    </g>
   </g>
   <g id="PathCollection_3">
    <defs>
     <path id="mef4ad85af2" d="M -8.660254 8.660254 
L 8.660254 8.660254 
L 8.660254 -8.660254 
L -8.660254 -8.660254 
z
" style="stroke: #440154"/>
    </defs>
    <g clip-path="url(#p0e3962752f)">
     <use xlink:href="#mef4ad85af2" x="649.678038" y="342.426362" style="fill: #440154; stroke: #440154"/>
    </g>
   </g>
   <g id="PathCollection_4">
    <defs>
     <path id="mf9f0622e60" d="M -0 8.660254 
L 8.660254 -8.660254 
L -8.660254 -8.660254 
z
" style="stroke: #440154"/>
    </defs>
    <g clip-path="url(#p0e3962752f)">
     <use xlink:href="#mf9f0622e60" x="751.88785" y="243.169" style="fill: #440154; stroke: #440154"/>
    </g>
   </g>
   <g id="PathCollection_5">
    <defs>
     <path id="m88bf5a4fb9" d="M 0 -8.660254 
L -1.944348 -2.676166 
L -8.236391 -2.676166 
L -3.146021 1.022204 
L -5.09037 7.006293 
L -0 3.307923 
L 5.09037 7.006293 
L 3.146021 1.022204 
L 8.236391 -2.676166 
L 1.944348 -2.676166 
z
" style="stroke: #440154"/>
    </defs>
    <g clip-path="url(#p0e3962752f)">
     <use xlink:href="#m88bf5a4fb9" x="679.717646" y="318.655358" style="fill: #440154; stroke: #440154"/>
    </g>
   </g>
   <g id="PathCollection_6">
    <defs>
     <path id="mffdcd66869" d="M 0 8.660254 
C 2.296726 8.660254 4.499694 7.747755 6.123724 6.123724 
C 7.747755 4.499694 8.660254 2.296726 8.660254 0 
C 8.660254 -2.296726 7.747755 -4.499694 6.123724 -6.123724 
C 4.499694 -7.747755 2.296726 -8.660254 0 -8.660254 
C -2.296726 -8.660254 -4.499694 -7.747755 -6.123724 -6.123724 
C -7.747755 -4.499694 -8.660254 -2.296726 -8.660254 0 
C -8.660254 2.296726 -7.747755 4.499694 -6.123724 6.123724 
C -4.499694 7.747755 -2.296726 8.660254 0 8.660254 
z
" style="stroke: #21918c"/>
    </defs>
    <g clip-path="url(#p0e3962752f)">
     <use xlink:href="#mffdcd66869" x="663.496683" y="278.3695" style="fill: #21918c; stroke: #21918c"/>
    </g>
   </g>
   <g id="PathCollection_7">
    <defs>
     <path id="mdd09fb95f5" d="M 0 -8.660254 
L -8.660254 8.660254 
L 8.660254 8.660254 
z
" style="stroke: #21918c"/>
    </defs>
    <g clip-path="url(#p0e3962752f)">
     <use xlink:href="#mdd09fb95f5" x="595.269578" y="366.832118" style="fill: #21918c; stroke: #21918c"/>
    </g>
   </g>
   <g id="PathCollection_8">
    <defs>
     <path id="mb03e960788" d="M -8.660254 8.660254 
L 8.660254 8.660254 
L 8.660254 -8.660254 
L -8.660254 -8.660254 
z
" style="stroke: #21918c"/>
    </defs>
    <g clip-path="url(#p0e3962752f)">
     <use xlink:href="#mb03e960788" x="585.976762" y="399.629906" style="fill: #21918c; stroke: #21918c"/>
    </g>
   </g>
   <g id="PathCollection_9">
    <defs>
     <path id="m8ce7005ca9" d="M -0 8.660254 
L 8.660254 -8.660254 
L -8.660254 -8.660254 
z
" style="stroke: #21918c"/>
    </defs>
    <g clip-path="url(#p0e3962752f)">
     <use xlink:href="#m8ce7005ca9" x="202.610639" y="456.815" style="fill: #21918c; stroke: #21918c"/>
    </g>
   </g>
   <g id="PathCollection_10">
    <defs>
     <path id="mc996d8fe3a" d="M 0 -8.660254 
L -1.944348 -2.676166 
L -8.236391 -2.676166 
L -3.146021 1.022204 
L -5.09037 7.006293 
L -0 3.307923 
L 5.09037 7.006293 
L 3.146021 1.022204 
L 8.236391 -2.676166 
L 1.944348 -2.676166 
z
" style="stroke: #21918c"/>
    </defs>
    <g clip-path="url(#p0e3962752f)">
     <use xlink:href="#mc996d8fe3a" x="315.02755" y="437.42893" style="fill: #21918c; stroke: #21918c"/>
    </g>
   </g>
   <g id="PathCollection_11">
    <defs>
     <path id="m587c727650" d="M 0 8.660254 
C 2.296726 8.660254 4.499694 7.747755 6.123724 6.123724 
C 7.747755 4.499694 8.660254 2.296726 8.660254 0 
C 8.660254 -2.296726 7.747755 -4.499694 6.123724 -6.123724 
C 4.499694 -7.747755 2.296726 -8.660254 0 -8.660254 
C -2.296726 -8.660254 -4.499694 -7.747755 -6.123724 -6.123724 
C -7.747755 -4.499694 -8.660254 -2.296726 -8.660254 0 
C -8.660254 2.296726 -7.747755 4.499694 -6.123724 6.123724 
C -4.499694 7.747755 -2.296726 8.660254 0 8.660254 
z
" style="stroke: #3b528b"/>
    </defs>
    <g clip-path="url(#p0e3962752f)">
     <use xlink:href="#m587c727650" x="649.678038" y="256.191045" style="fill: #3b528b; stroke: #3b528b"/>
    </g>
   </g>
   <g id="PathCollection_12">
    <defs>
     <path id="m04e2814c01" d="M 0 -8.660254 
L -8.660254 8.660254 
L 8.660254 8.660254 
z
" style="stroke: #3b528b"/>
    </defs>
    <g clip-path="url(#p0e3962752f)">
     <use xlink:href="#m04e2814c01" x="609.62374" y="266.968506" style="fill: #3b528b; stroke: #3b528b"/>
    </g>
   </g>
   <g id="PathCollection_13">
    <defs>
     <path id="mb703f8bd37" d="M -8.660254 8.660254 
L 8.660254 8.660254 
L 8.660254 -8.660254 
L -8.660254 -8.660254 
z
" style="stroke: #3b528b"/>
    </defs>
    <g clip-path="url(#p0e3962752f)">
     <use xlink:href="#mb703f8bd37" x="633.181693" y="206.619519" style="fill: #3b528b; stroke: #3b528b"/>
    </g>
   </g>
   <g id="PathCollection_14">
    <defs>
     <path id="m8788828e40" d="M -0 8.660254 
L 8.660254 -8.660254 
L -8.660254 -8.660254 
z
" style="stroke: #3b528b"/>
    </defs>
    <g clip-path="url(#p0e3962752f)">
     <use xlink:href="#m8788828e40" x="555.376526" y="288.121656" style="fill: #3b528b; stroke: #3b528b"/>
    </g>
   </g>
   <g id="PathCollection_15">
    <defs>
     <path id="m5ed862257c" d="M 0 -8.660254 
L -1.944348 -2.676166 
L -8.236391 -2.676166 
L -3.146021 1.022204 
L -5.09037 7.006293 
L -0 3.307923 
L 5.09037 7.006293 
L 3.146021 1.022204 
L 8.236391 -2.676166 
L 1.944348 -2.676166 
z
" style="stroke: #3b528b"/>
    </defs>
    <g clip-path="url(#p0e3962752f)">
     <use xlink:href="#m5ed862257c" x="287.971278" y="456.815" style="fill: #3b528b; stroke: #3b528b"/>
    </g>
   </g>
   <g id="PathCollection_16">
    <defs>
     <path id="maa267fe016" d="M 0 8.660254 
C 2.296726 8.660254 4.499694 7.747755 6.123724 6.123724 
C 7.747755 4.499694 8.660254 2.296726 8.660254 0 
C 8.660254 -2.296726 7.747755 -4.499694 6.123724 -6.123724 
C 4.499694 -7.747755 2.296726 -8.660254 0 -8.660254 
C -2.296726 -8.660254 -4.499694 -7.747755 -6.123724 -6.123724 
C -7.747755 -4.499694 -8.660254 -2.296726 -8.660254 0 
C -8.660254 2.296726 -7.747755 4.499694 -6.123724 6.123724 
C -4.499694 7.747755 -2.296726 8.660254 0 8.660254 
z
" style="stroke: #5ec962"/>
    </defs>
    <g clip-path="url(#p0e3962752f)">
     <use xlink:href="#maa267fe016" x="412.874724" y="438.214798" style="fill: #5ec962; stroke: #5ec962"/>
    </g>
   </g>
   <g id="PathCollection_17">
    <defs>
     <path id="mc948a4b69e" d="M 0 -8.660254 
L -8.660254 8.660254 
L 8.660254 8.660254 
z
" style="stroke: #5ec962"/>
    </defs>
    <g clip-path="url(#p0e3962752f)">
     <use xlink:href="#mc948a4b69e" x="505.38073" y="389.002507" style="fill: #5ec962; stroke: #5ec962"/>
    </g>
   </g>
   <g id="PathCollection_18">
    <defs>
     <path id="mdd0a9833da" d="M -8.660254 8.660254 
L 8.660254 8.660254 
L 8.660254 -8.660254 
L -8.660254 -8.660254 
z
" style="stroke: #5ec962"/>
    </defs>
    <g clip-path="url(#p0e3962752f)">
     <use xlink:href="#mdd0a9833da" x="532.437002" y="251.480032" style="fill: #5ec962; stroke: #5ec962"/>
    </g>
   </g>
   <g id="PathCollection_19">
    <defs>
     <path id="m06ee8af638" d="M -0 8.660254 
L 8.660254 -8.660254 
L -8.660254 -8.660254 
z
" style="stroke: #5ec962"/>
    </defs>
    <g clip-path="url(#p0e3962752f)">
     <use xlink:href="#m06ee8af638" x="371.56687" y="456.815" style="fill: #5ec962; stroke: #5ec962"/>
    </g>
   </g>
   <g id="PathCollection_20">
    <defs>
     <path id="mf7c09f9911" d="M 0 8.660254 
C 2.296726 8.660254 4.499694 7.747755 6.123724 6.123724 
C 7.747755 4.499694 8.660254 2.296726 8.660254 0 
C 8.660254 -2.296726 7.747755 -4.499694 6.123724 -6.123724 
C 4.499694 -7.747755 2.296726 -8.660254 0 -8.660254 
C -2.296726 -8.660254 -4.499694 -7.747755 -6.123724 -6.123724 
C -7.747755 -4.499694 -8.660254 -2.296726 -8.660254 0 
C -8.660254 2.296726 -7.747755 4.499694 -6.123724 6.123724 
C -4.499694 7.747755 -2.296726 8.660254 0 8.660254 
z
" style="stroke: #fde725"/>
    </defs>
    <g clip-path="url(#p0e3962752f)">
     <use xlink:href="#mf7c09f9911" x="482.671137" y="367.843465" style="fill: #fde725; stroke: #fde725"/>
    </g>
   </g>
   <g id="PathCollection_21">
    <defs>
     <path id="m2cbb923110" d="M 0 -8.660254 
L -8.660254 8.660254 
L 8.660254 8.660254 
z
" style="stroke: #fde725"/>
    </defs>
    <g clip-path="url(#p0e3962752f)">
     <use xlink:href="#m2cbb923110" x="608.264651" y="321.640805" style="fill: #fde725; stroke: #fde725"/>
    </g>
   </g>
   <g id="PathCollection_22">
    <defs>
     <path id="m2ede5b80b3" d="M -8.660254 8.660254 
L 8.660254 8.660254 
L 8.660254 -8.660254 
L -8.660254 -8.660254 
z
" style="stroke: #fde725"/>
    </defs>
    <g clip-path="url(#p0e3962752f)">
     <use xlink:href="#m2ede5b80b3" x="631.845159" y="311.661119" style="fill: #fde725; stroke: #fde725"/>
    </g>
   </g>
   <g id="matplotlib.axis_1">
    <g id="xtick_1">
     <g id="line2d_1">
      <path d="M 202.610639 478.6 
L 202.610639 42.9 
" clip-path="url(#p0e3962752f)" style="fill: none; stroke: #b0b0b0; stroke-width: 0.8; stroke-linecap: square"/>
     </g>
     <g id="line2d_2">
      <defs>
       <path id="mec40925afc" d="M 0 0 
L 0 3.5 
" style="stroke: #000000; stroke-width: 0.8"/>
      </defs>
      <g>
       <use xlink:href="#mec40925afc" x="202.610639" y="478.6" style="stroke: #000000; stroke-width: 0.8"/>
      </g>
     </g>
     <g id="text_1">
      <!-- 1 -->
      <g transform="translate(194.269233 507.120313) scale(0.3 -0.3)">
       <defs>
        <path id="Helvetica-31" d="M 613 3169 
L 613 3600 
Q 1222 3659 1462 3798 
Q 1703 3938 1822 4456 
L 2266 4456 
L 2266 0 
L 1666 0 
L 1666 3169 
L 613 3169 
z
" transform="scale(0.015625)"/>
       </defs>
       <use xlink:href="#Helvetica-31"/>
      </g>
     </g>
    </g>
    <g id="xtick_2">
     <g id="line2d_3">
      <path d="M 395.367425 478.6 
L 395.367425 42.9 
" clip-path="url(#p0e3962752f)" style="fill: none; stroke: #b0b0b0; stroke-width: 0.8; stroke-linecap: square"/>
     </g>
     <g id="line2d_4">
      <g>
       <use xlink:href="#mec40925afc" x="395.367425" y="478.6" style="stroke: #000000; stroke-width: 0.8"/>
      </g>
     </g>
     <g id="text_2">
      <!-- 10 -->
      <g transform="translate(378.684612 507.120313) scale(0.3 -0.3)">
       <defs>
        <path id="Helvetica-30" d="M 1731 4475 
Q 2600 4475 2988 3759 
Q 3288 3206 3288 2244 
Q 3288 1331 3016 734 
Q 2622 -122 1728 -122 
Q 922 -122 528 578 
Q 200 1163 200 2147 
Q 200 2909 397 3456 
Q 766 4475 1731 4475 
z
M 1725 391 
Q 2163 391 2422 778 
Q 2681 1166 2681 2222 
Q 2681 2984 2493 3476 
Q 2306 3969 1766 3969 
Q 1269 3969 1039 3501 
Q 809 3034 809 2125 
Q 809 1441 956 1025 
Q 1181 391 1725 391 
z
" transform="scale(0.015625)"/>
       </defs>
       <use xlink:href="#Helvetica-31"/>
       <use xlink:href="#Helvetica-30" x="55.615234"/>
      </g>
     </g>
    </g>
    <g id="xtick_3">
     <g id="line2d_5">
      <path d="M 549.016575 478.6 
L 549.016575 42.9 
" clip-path="url(#p0e3962752f)" style="fill: none; stroke: #b0b0b0; stroke-width: 0.8; stroke-linecap: square"/>
     </g>
     <g id="line2d_6">
      <g>
       <use xlink:href="#mec40925afc" x="549.016575" y="478.6" style="stroke: #000000; stroke-width: 0.8"/>
      </g>
     </g>
     <g id="text_3">
      <!-- 100 -->
      <g transform="translate(523.992356 507.120313) scale(0.3 -0.3)">
       <use xlink:href="#Helvetica-31"/>
       <use xlink:href="#Helvetica-30" x="55.615234"/>
       <use xlink:href="#Helvetica-30" x="111.230469"/>
      </g>
     </g>
    </g>
    <g id="xtick_4">
     <g id="line2d_7">
      <path d="M 702.665725 478.6 
L 702.665725 42.9 
" clip-path="url(#p0e3962752f)" style="fill: none; stroke: #b0b0b0; stroke-width: 0.8; stroke-linecap: square"/>
     </g>
     <g id="line2d_8">
      <g>
       <use xlink:href="#mec40925afc" x="702.665725" y="478.6" style="stroke: #000000; stroke-width: 0.8"/>
      </g>
     </g>
     <g id="text_4">
      <!-- 1000 -->
      <g transform="translate(669.3001 507.120313) scale(0.3 -0.3)">
       <use xlink:href="#Helvetica-31"/>
       <use xlink:href="#Helvetica-30" x="55.615234"/>
       <use xlink:href="#Helvetica-30" x="111.230469"/>
       <use xlink:href="#Helvetica-30" x="166.845703"/>
      </g>
     </g>
    </g>
    <g id="xtick_5">
     <g id="line2d_9">
      <defs>
       <path id="m66d1205b7a" d="M 0 0 
L 0 2 
" style="stroke: #000000; stroke-width: 0.6"/>
      </defs>
      <g>
       <use xlink:href="#m66d1205b7a" x="117.25" y="478.6" style="stroke: #000000; stroke-width: 0.6"/>
      </g>
     </g>
    </g>
    <g id="text_5">
     <!-- $N$ -->
     <g transform="translate(435.3625 538.89375) scale(0.3 -0.3)">
      <defs>
       <path id="DejaVuSans-Oblique-4e" d="M 1081 4666 
L 1931 4666 
L 3219 666 
L 4000 4666 
L 4616 4666 
L 3706 0 
L 2853 0 
L 1569 4025 
L 788 0 
L 172 0 
L 1081 4666 
z
" transform="scale(0.015625)"/>
      </defs>
      <use xlink:href="#DejaVuSans-Oblique-4e" transform="translate(0 0.09375)"/>
     </g>
    </g>
   </g>
   <g id="matplotlib.axis_2">
    <g id="ytick_1">
     <g id="line2d_10">
      <path d="M 117.25 478.6 
L 775.975 478.6 
" clip-path="url(#p0e3962752f)" style="fill: none; stroke: #b0b0b0; stroke-width: 0.8; stroke-linecap: square"/>
     </g>
     <g id="line2d_11">
      <defs>
       <path id="m14263f2e02" d="M 0 0 
L -3.5 0 
" style="stroke: #000000; stroke-width: 0.8"/>
      </defs>
      <g>
       <use xlink:href="#m14263f2e02" x="117.25" y="478.6" style="stroke: #000000; stroke-width: 0.8"/>
      </g>
     </g>
     <g id="text_6">
      <!-- 0 -->
      <g transform="translate(93.567188 489.360156) scale(0.3 -0.3)">
       <use xlink:href="#Helvetica-30"/>
      </g>
     </g>
    </g>
    <g id="ytick_2">
     <g id="line2d_12">
      <path d="M 117.25 435.03 
L 775.975 435.03 
" clip-path="url(#p0e3962752f)" style="fill: none; stroke: #b0b0b0; stroke-width: 0.8; stroke-linecap: square"/>
     </g>
     <g id="line2d_13">
      <g>
       <use xlink:href="#m14263f2e02" x="117.25" y="435.03" style="stroke: #000000; stroke-width: 0.8"/>
      </g>
     </g>
     <g id="text_7">
      <!-- 2 -->
      <g transform="translate(93.567188 445.790156) scale(0.3 -0.3)">
       <defs>
        <path id="Helvetica-32" d="M 200 0 
Q 231 578 439 1006 
Q 647 1434 1250 1784 
L 1850 2131 
Q 2253 2366 2416 2531 
Q 2672 2791 2672 3125 
Q 2672 3516 2437 3745 
Q 2203 3975 1813 3975 
Q 1234 3975 1013 3538 
Q 894 3303 881 2888 
L 309 2888 
Q 319 3472 525 3841 
Q 891 4491 1816 4491 
Q 2584 4491 2939 4075 
Q 3294 3659 3294 3150 
Q 3294 2613 2916 2231 
Q 2697 2009 2131 1694 
L 1703 1456 
Q 1397 1288 1222 1134 
Q 909 863 828 531 
L 3272 531 
L 3272 0 
L 200 0 
z
" transform="scale(0.015625)"/>
       </defs>
       <use xlink:href="#Helvetica-32"/>
      </g>
     </g>
    </g>
    <g id="ytick_3">
     <g id="line2d_14">
      <path d="M 117.25 391.46 
L 775.975 391.46 
" clip-path="url(#p0e3962752f)" style="fill: none; stroke: #b0b0b0; stroke-width: 0.8; stroke-linecap: square"/>
     </g>
     <g id="line2d_15">
      <g>
       <use xlink:href="#m14263f2e02" x="117.25" y="391.46" style="stroke: #000000; stroke-width: 0.8"/>
      </g>
     </g>
     <g id="text_8">
      <!-- 4 -->
      <g transform="translate(93.567188 402.220156) scale(0.3 -0.3)">
       <defs>
        <path id="Helvetica-34" d="M 2116 1584 
L 2116 3613 
L 681 1584 
L 2116 1584 
z
M 2125 0 
L 2125 1094 
L 163 1094 
L 163 1644 
L 2213 4488 
L 2688 4488 
L 2688 1584 
L 3347 1584 
L 3347 1094 
L 2688 1094 
L 2688 0 
L 2125 0 
z
" transform="scale(0.015625)"/>
       </defs>
       <use xlink:href="#Helvetica-34"/>
      </g>
     </g>
    </g>
    <g id="ytick_4">
     <g id="line2d_16">
      <path d="M 117.25 347.89 
L 775.975 347.89 
" clip-path="url(#p0e3962752f)" style="fill: none; stroke: #b0b0b0; stroke-width: 0.8; stroke-linecap: square"/>
     </g>
     <g id="line2d_17">
      <g>
       <use xlink:href="#m14263f2e02" x="117.25" y="347.89" style="stroke: #000000; stroke-width: 0.8"/>
      </g>
     </g>
     <g id="text_9">
      <!-- 6 -->
      <g transform="translate(93.567188 358.650156) scale(0.3 -0.3)">
       <defs>
        <path id="Helvetica-36" d="M 1872 4494 
Q 2622 4494 2917 4105 
Q 3213 3716 3213 3303 
L 2656 3303 
Q 2606 3569 2497 3719 
Q 2294 4000 1881 4000 
Q 1409 4000 1131 3564 
Q 853 3128 822 2316 
Q 1016 2600 1309 2741 
Q 1578 2866 1909 2866 
Q 2472 2866 2890 2506 
Q 3309 2147 3309 1434 
Q 3309 825 2912 354 
Q 2516 -116 1781 -116 
Q 1153 -116 697 361 
Q 241 838 241 1966 
Q 241 2800 444 3381 
Q 834 4494 1872 4494 
z
M 1831 384 
Q 2275 384 2495 682 
Q 2716 981 2716 1388 
Q 2716 1731 2519 2042 
Q 2322 2353 1803 2353 
Q 1441 2353 1167 2112 
Q 894 1872 894 1388 
Q 894 963 1142 673 
Q 1391 384 1831 384 
z
" transform="scale(0.015625)"/>
       </defs>
       <use xlink:href="#Helvetica-36"/>
      </g>
     </g>
    </g>
    <g id="ytick_5">
     <g id="line2d_18">
      <path d="M 117.25 304.32 
L 775.975 304.32 
" clip-path="url(#p0e3962752f)" style="fill: none; stroke: #b0b0b0; stroke-width: 0.8; stroke-linecap: square"/>
     </g>
     <g id="line2d_19">
      <g>
       <use xlink:href="#m14263f2e02" x="117.25" y="304.32" style="stroke: #000000; stroke-width: 0.8"/>
      </g>
     </g>
     <g id="text_10">
      <!-- 8 -->
      <g transform="translate(93.567188 315.080156) scale(0.3 -0.3)">
       <defs>
        <path id="Helvetica-38" d="M 1741 2600 
Q 2113 2600 2322 2808 
Q 2531 3016 2531 3303 
Q 2531 3553 2331 3762 
Q 2131 3972 1722 3972 
Q 1316 3972 1134 3762 
Q 953 3553 953 3272 
Q 953 2956 1187 2778 
Q 1422 2600 1741 2600 
z
M 1775 384 
Q 2166 384 2423 595 
Q 2681 806 2681 1225 
Q 2681 1659 2415 1884 
Q 2150 2109 1734 2109 
Q 1331 2109 1076 1879 
Q 822 1650 822 1244 
Q 822 894 1055 639 
Q 1288 384 1775 384 
z
M 975 2384 
Q 741 2484 609 2619 
Q 363 2869 363 3269 
Q 363 3769 725 4128 
Q 1088 4488 1753 4488 
Q 2397 4488 2762 4148 
Q 3128 3809 3128 3356 
Q 3128 2938 2916 2678 
Q 2797 2531 2547 2391 
Q 2825 2263 2984 2097 
Q 3281 1784 3281 1284 
Q 3281 694 2884 283 
Q 2488 -128 1763 -128 
Q 1109 -128 657 226 
Q 206 581 206 1256 
Q 206 1653 400 1942 
Q 594 2231 975 2384 
z
" transform="scale(0.015625)"/>
       </defs>
       <use xlink:href="#Helvetica-38"/>
      </g>
     </g>
    </g>
    <g id="ytick_6">
     <g id="line2d_20">
      <path d="M 117.25 260.75 
L 775.975 260.75 
" clip-path="url(#p0e3962752f)" style="fill: none; stroke: #b0b0b0; stroke-width: 0.8; stroke-linecap: square"/>
     </g>
     <g id="line2d_21">
      <g>
       <use xlink:href="#m14263f2e02" x="117.25" y="260.75" style="stroke: #000000; stroke-width: 0.8"/>
      </g>
     </g>
     <g id="text_11">
      <!-- 10 -->
      <g transform="translate(76.884375 271.510156) scale(0.3 -0.3)">
       <use xlink:href="#Helvetica-31"/>
       <use xlink:href="#Helvetica-30" x="55.615234"/>
      </g>
     </g>
    </g>
    <g id="ytick_7">
     <g id="line2d_22">
      <path d="M 117.25 217.18 
L 775.975 217.18 
" clip-path="url(#p0e3962752f)" style="fill: none; stroke: #b0b0b0; stroke-width: 0.8; stroke-linecap: square"/>
     </g>
     <g id="line2d_23">
      <g>
       <use xlink:href="#m14263f2e02" x="117.25" y="217.18" style="stroke: #000000; stroke-width: 0.8"/>
      </g>
     </g>
     <g id="text_12">
      <!-- 12 -->
      <g transform="translate(76.884375 227.940156) scale(0.3 -0.3)">
       <use xlink:href="#Helvetica-31"/>
       <use xlink:href="#Helvetica-32" x="55.615234"/>
      </g>
     </g>
    </g>
    <g id="ytick_8">
     <g id="line2d_24">
      <path d="M 117.25 173.61 
L 775.975 173.61 
" clip-path="url(#p0e3962752f)" style="fill: none; stroke: #b0b0b0; stroke-width: 0.8; stroke-linecap: square"/>
     </g>
     <g id="line2d_25">
      <g>
       <use xlink:href="#m14263f2e02" x="117.25" y="173.61" style="stroke: #000000; stroke-width: 0.8"/>
      </g>
     </g>
     <g id="text_13">
      <!-- 14 -->
      <g transform="translate(76.884375 184.370156) scale(0.3 -0.3)">
       <use xlink:href="#Helvetica-31"/>
       <use xlink:href="#Helvetica-34" x="55.615234"/>
      </g>
     </g>
    </g>
    <g id="ytick_9">
     <g id="line2d_26">
      <path d="M 117.25 130.04 
L 775.975 130.04 
" clip-path="url(#p0e3962752f)" style="fill: none; stroke: #b0b0b0; stroke-width: 0.8; stroke-linecap: square"/>
     </g>
     <g id="line2d_27">
      <g>
       <use xlink:href="#m14263f2e02" x="117.25" y="130.04" style="stroke: #000000; stroke-width: 0.8"/>
      </g>
     </g>
     <g id="text_14">
      <!-- 16 -->
      <g transform="translate(76.884375 140.800156) scale(0.3 -0.3)">
       <use xlink:href="#Helvetica-31"/>
       <use xlink:href="#Helvetica-36" x="55.615234"/>
      </g>
     </g>
    </g>
    <g id="ytick_10">
     <g id="line2d_28">
      <path d="M 117.25 86.47 
L 775.975 86.47 
" clip-path="url(#p0e3962752f)" style="fill: none; stroke: #b0b0b0; stroke-width: 0.8; stroke-linecap: square"/>
     </g>
     <g id="line2d_29">
      <g>
       <use xlink:href="#m14263f2e02" x="117.25" y="86.47" style="stroke: #000000; stroke-width: 0.8"/>
      </g>
     </g>
     <g id="text_15">
      <!-- 18 -->
      <g transform="translate(76.884375 97.230156) scale(0.3 -0.3)">
       <use xlink:href="#Helvetica-31"/>
       <use xlink:href="#Helvetica-38" x="55.615234"/>
      </g>
     </g>
    </g>
    <g id="ytick_11">
     <g id="line2d_30">
      <path d="M 117.25 42.9 
L 775.975 42.9 
" clip-path="url(#p0e3962752f)" style="fill: none; stroke: #b0b0b0; stroke-width: 0.8; stroke-linecap: square"/>
     </g>
     <g id="line2d_31">
      <g>
       <use xlink:href="#m14263f2e02" x="117.25" y="42.9" style="stroke: #000000; stroke-width: 0.8"/>
      </g>
     </g>
     <g id="text_16">
      <!-- 20 -->
      <g transform="translate(76.884375 53.660156) scale(0.3 -0.3)">
       <use xlink:href="#Helvetica-32"/>
       <use xlink:href="#Helvetica-30" x="55.615234"/>
      </g>
     </g>
    </g>
    <g id="text_17">
     <!-- $D_1$ -->
     <g transform="translate(64.546875 285.75) rotate(-90) scale(0.4 -0.4)">
      <defs>
       <path id="DejaVuSans-Oblique-44" d="M 1081 4666 
L 2438 4666 
Q 3519 4666 4070 4208 
Q 4622 3750 4622 2847 
Q 4622 2250 4412 1698 
Q 4203 1147 3834 769 
Q 3463 381 2891 190 
Q 2319 0 1538 0 
L 172 0 
L 1081 4666 
z
M 1613 4147 
L 909 519 
L 1734 519 
Q 2794 519 3375 1128 
Q 3956 1738 3956 2847 
Q 3956 3519 3581 3833 
Q 3206 4147 2406 4147 
L 1613 4147 
z
" transform="scale(0.015625)"/>
       <path id="DejaVuSans-31" d="M 794 531 
L 1825 531 
L 1825 4091 
L 703 3866 
L 703 4441 
L 1819 4666 
L 2450 4666 
L 2450 531 
L 3481 531 
L 3481 0 
L 794 0 
L 794 531 
z
" transform="scale(0.015625)"/>
      </defs>
      <use xlink:href="#DejaVuSans-Oblique-44" transform="translate(0 0.09375)"/>
      <use xlink:href="#DejaVuSans-31" transform="translate(77.001953 -16.3125) scale(0.7)"/>
     </g>
    </g>
   </g>
   <g id="patch_3">
    <path d="M 117.25 478.6 
L 117.25 42.9 
" style="fill: none; stroke: #000000; stroke-width: 0.8; stroke-linejoin: miter; stroke-linecap: square"/>
   </g>
   <g id="patch_4">
    <path d="M 775.975 478.6 
L 775.975 42.9 
" style="fill: none; stroke: #000000; stroke-width: 0.8; stroke-linejoin: miter; stroke-linecap: square"/>
   </g>
   <g id="patch_5">
    <path d="M 117.25 478.6 
L 775.975 478.6 
" style="fill: none; stroke: #000000; stroke-width: 0.8; stroke-linejoin: miter; stroke-linecap: square"/>
   </g>
   <g id="patch_6">
    <path d="M 117.25 42.9 
L 775.975 42.9 
" style="fill: none; stroke: #000000; stroke-width: 0.8; stroke-linejoin: miter; stroke-linecap: square"/>
   </g>
   <g id="legend_1">
    <g id="patch_7">
     <path d="M 790.975 479.117188 
L 1047.371875 479.117188 
L 1047.371875 42.382812 
L 790.975 42.382812 
z
" style="fill: #ffffff; opacity: 0.8; stroke: #cccccc; stroke-linejoin: miter"/>
    </g>
    <g id="patch_8">
     <path d="M 802.975 75.903125 
L 862.975 75.903125 
L 862.975 54.903125 
L 802.975 54.903125 
z
" style="fill: #440154; stroke: #440154; stroke-linejoin: miter"/>
    </g>
    <g id="text_18">
     <!-- Chania -->
     <g transform="translate(886.975 75.903125) scale(0.3 -0.3)">
      <defs>
       <path id="Helvetica-43" d="M 2422 4716 
Q 3294 4716 3775 4256 
Q 4256 3797 4309 3213 
L 3703 3213 
Q 3600 3656 3292 3915 
Q 2984 4175 2428 4175 
Q 1750 4175 1333 3698 
Q 916 3222 916 2238 
Q 916 1431 1292 929 
Q 1669 428 2416 428 
Q 3103 428 3463 956 
Q 3653 1234 3747 1688 
L 4353 1688 
Q 4272 963 3816 472 
Q 3269 -119 2341 -119 
Q 1541 -119 997 366 
Q 281 1006 281 2344 
Q 281 3359 819 4009 
Q 1400 4716 2422 4716 
z
M 2297 4716 
L 2297 4716 
z
" transform="scale(0.015625)"/>
       <path id="Helvetica-68" d="M 413 4606 
L 975 4606 
L 975 2894 
Q 1175 3147 1334 3250 
Q 1606 3428 2013 3428 
Q 2741 3428 3000 2919 
Q 3141 2641 3141 2147 
L 3141 0 
L 2563 0 
L 2563 2109 
Q 2563 2478 2469 2650 
Q 2316 2925 1894 2925 
Q 1544 2925 1259 2684 
Q 975 2444 975 1775 
L 975 0 
L 413 0 
L 413 4606 
z
" transform="scale(0.015625)"/>
       <path id="Helvetica-61" d="M 844 891 
Q 844 647 1022 506 
Q 1200 366 1444 366 
Q 1741 366 2019 503 
Q 2488 731 2488 1250 
L 2488 1703 
Q 2384 1638 2221 1594 
Q 2059 1550 1903 1531 
L 1563 1488 
Q 1256 1447 1103 1359 
Q 844 1213 844 891 
z
M 2206 2028 
Q 2400 2053 2466 2191 
Q 2503 2266 2503 2406 
Q 2503 2694 2298 2823 
Q 2094 2953 1713 2953 
Q 1272 2953 1088 2716 
Q 984 2584 953 2325 
L 428 2325 
Q 444 2944 830 3186 
Q 1216 3428 1725 3428 
Q 2316 3428 2684 3203 
Q 3050 2978 3050 2503 
L 3050 575 
Q 3050 488 3086 434 
Q 3122 381 3238 381 
Q 3275 381 3322 386 
Q 3369 391 3422 400 
L 3422 -16 
Q 3291 -53 3222 -62 
Q 3153 -72 3034 -72 
Q 2744 -72 2613 134 
Q 2544 244 2516 444 
Q 2344 219 2022 53 
Q 1700 -113 1313 -113 
Q 847 -113 551 170 
Q 256 453 256 878 
Q 256 1344 547 1600 
Q 838 1856 1309 1916 
L 2206 2028 
z
M 1741 3428 
L 1741 3428 
z
" transform="scale(0.015625)"/>
       <path id="Helvetica-6e" d="M 413 3347 
L 947 3347 
L 947 2872 
Q 1184 3166 1450 3294 
Q 1716 3422 2041 3422 
Q 2753 3422 3003 2925 
Q 3141 2653 3141 2147 
L 3141 0 
L 2569 0 
L 2569 2109 
Q 2569 2416 2478 2603 
Q 2328 2916 1934 2916 
Q 1734 2916 1606 2875 
Q 1375 2806 1200 2600 
Q 1059 2434 1017 2257 
Q 975 2081 975 1753 
L 975 0 
L 413 0 
L 413 3347 
z
M 1734 3428 
L 1734 3428 
z
" transform="scale(0.015625)"/>
       <path id="Helvetica-69" d="M 413 3331 
L 984 3331 
L 984 0 
L 413 0 
L 413 3331 
z
M 413 4591 
L 984 4591 
L 984 3953 
L 413 3953 
L 413 4591 
z
" transform="scale(0.015625)"/>
      </defs>
      <use xlink:href="#Helvetica-43"/>
      <use xlink:href="#Helvetica-68" x="72.216797"/>
      <use xlink:href="#Helvetica-61" x="127.832031"/>
      <use xlink:href="#Helvetica-6e" x="183.447266"/>
      <use xlink:href="#Helvetica-69" x="239.0625"/>
      <use xlink:href="#Helvetica-61" x="261.279297"/>
     </g>
    </g>
    <g id="patch_9">
     <path d="M 802.975 118.676562 
L 862.975 118.676562 
L 862.975 97.676562 
L 802.975 97.676562 
z
" style="fill: #21918c; stroke: #21918c; stroke-linejoin: miter"/>
    </g>
    <g id="text_19">
     <!-- Knossos -->
     <g transform="translate(886.975 118.676562) scale(0.3 -0.3)">
      <defs>
       <path id="Helvetica-4b" d="M 488 4591 
L 1094 4591 
L 1094 2353 
L 3331 4591 
L 4191 4591 
L 2281 2741 
L 4244 0 
L 3434 0 
L 1828 2303 
L 1094 1600 
L 1094 0 
L 488 0 
L 488 4591 
z
" transform="scale(0.015625)"/>
       <path id="Helvetica-6f" d="M 1741 363 
Q 2300 363 2508 786 
Q 2716 1209 2716 1728 
Q 2716 2197 2566 2491 
Q 2328 2953 1747 2953 
Q 1231 2953 997 2559 
Q 763 2166 763 1609 
Q 763 1075 997 719 
Q 1231 363 1741 363 
z
M 1763 3444 
Q 2409 3444 2856 3012 
Q 3303 2581 3303 1744 
Q 3303 934 2909 406 
Q 2516 -122 1688 -122 
Q 997 -122 590 345 
Q 184 813 184 1600 
Q 184 2444 612 2944 
Q 1041 3444 1763 3444 
z
M 1744 3428 
L 1744 3428 
z
" transform="scale(0.015625)"/>
       <path id="Helvetica-73" d="M 747 1050 
Q 772 769 888 619 
Q 1100 347 1625 347 
Q 1938 347 2175 483 
Q 2413 619 2413 903 
Q 2413 1119 2222 1231 
Q 2100 1300 1741 1391 
L 1294 1503 
Q 866 1609 663 1741 
Q 300 1969 300 2372 
Q 300 2847 642 3140 
Q 984 3434 1563 3434 
Q 2319 3434 2653 2991 
Q 2863 2709 2856 2384 
L 2325 2384 
Q 2309 2575 2191 2731 
Q 1997 2953 1519 2953 
Q 1200 2953 1036 2831 
Q 872 2709 872 2509 
Q 872 2291 1088 2159 
Q 1213 2081 1456 2022 
L 1828 1931 
Q 2434 1784 2641 1647 
Q 2969 1431 2969 969 
Q 2969 522 2630 197 
Q 2291 -128 1597 -128 
Q 850 -128 539 211 
Q 228 550 206 1050 
L 747 1050 
z
M 1578 3428 
L 1578 3428 
z
" transform="scale(0.015625)"/>
      </defs>
      <use xlink:href="#Helvetica-4b"/>
      <use xlink:href="#Helvetica-6e" x="66.699219"/>
      <use xlink:href="#Helvetica-6f" x="122.314453"/>
      <use xlink:href="#Helvetica-73" x="177.929688"/>
      <use xlink:href="#Helvetica-73" x="227.929688"/>
      <use xlink:href="#Helvetica-6f" x="277.929688"/>
      <use xlink:href="#Helvetica-73" x="333.544922"/>
     </g>
    </g>
    <g id="patch_10">
     <path d="M 802.975 161.45 
L 862.975 161.45 
L 862.975 140.45 
L 802.975 140.45 
z
" style="fill: #3b528b; stroke: #3b528b; stroke-linejoin: miter"/>
    </g>
    <g id="text_20">
     <!-- Kommos -->
     <g transform="translate(886.975 161.45) scale(0.3 -0.3)">
      <defs>
       <path id="Helvetica-6d" d="M 413 3347 
L 969 3347 
L 969 2872 
Q 1169 3119 1331 3231 
Q 1609 3422 1963 3422 
Q 2363 3422 2606 3225 
Q 2744 3113 2856 2894 
Q 3044 3163 3297 3292 
Q 3550 3422 3866 3422 
Q 4541 3422 4784 2934 
Q 4916 2672 4916 2228 
L 4916 0 
L 4331 0 
L 4331 2325 
Q 4331 2659 4164 2784 
Q 3997 2909 3756 2909 
Q 3425 2909 3186 2687 
Q 2947 2466 2947 1947 
L 2947 0 
L 2375 0 
L 2375 2184 
Q 2375 2525 2294 2681 
Q 2166 2916 1816 2916 
Q 1497 2916 1236 2669 
Q 975 2422 975 1775 
L 975 0 
L 413 0 
L 413 3347 
z
" transform="scale(0.015625)"/>
      </defs>
      <use xlink:href="#Helvetica-4b"/>
      <use xlink:href="#Helvetica-6f" x="66.699219"/>
      <use xlink:href="#Helvetica-6d" x="122.314453"/>
      <use xlink:href="#Helvetica-6d" x="205.615234"/>
      <use xlink:href="#Helvetica-6f" x="288.916016"/>
      <use xlink:href="#Helvetica-73" x="344.53125"/>
     </g>
    </g>
    <g id="patch_11">
     <path d="M 802.975 204.223437 
L 862.975 204.223437 
L 862.975 183.223437 
L 802.975 183.223437 
z
" style="fill: #5ec962; stroke: #5ec962; stroke-linejoin: miter"/>
    </g>
    <g id="text_21">
     <!-- Mochlos -->
     <g transform="translate(886.975 204.223437) scale(0.3 -0.3)">
      <defs>
       <path id="Helvetica-4d" d="M 472 4591 
L 1363 4591 
L 2681 709 
L 3991 4591 
L 4872 4591 
L 4872 0 
L 4281 0 
L 4281 2709 
Q 4281 2850 4287 3175 
Q 4294 3500 4294 3872 
L 2984 0 
L 2369 0 
L 1050 3872 
L 1050 3731 
Q 1050 3563 1058 3217 
Q 1066 2872 1066 2709 
L 1066 0 
L 472 0 
L 472 4591 
z
" transform="scale(0.015625)"/>
       <path id="Helvetica-63" d="M 1703 3444 
Q 2269 3444 2623 3169 
Q 2978 2894 3050 2222 
L 2503 2222 
Q 2453 2531 2275 2736 
Q 2097 2941 1703 2941 
Q 1166 2941 934 2416 
Q 784 2075 784 1575 
Q 784 1072 996 728 
Q 1209 384 1666 384 
Q 2016 384 2220 598 
Q 2425 813 2503 1184 
L 3050 1184 
Q 2956 519 2581 211 
Q 2206 -97 1622 -97 
Q 966 -97 575 383 
Q 184 863 184 1581 
Q 184 2463 612 2953 
Q 1041 3444 1703 3444 
z
M 1616 3428 
L 1616 3428 
z
" transform="scale(0.015625)"/>
       <path id="Helvetica-6c" d="M 428 4591 
L 991 4591 
L 991 0 
L 428 0 
L 428 4591 
z
" transform="scale(0.015625)"/>
      </defs>
      <use xlink:href="#Helvetica-4d"/>
      <use xlink:href="#Helvetica-6f" x="83.300781"/>
      <use xlink:href="#Helvetica-63" x="138.916016"/>
      <use xlink:href="#Helvetica-68" x="188.916016"/>
      <use xlink:href="#Helvetica-6c" x="244.53125"/>
      <use xlink:href="#Helvetica-6f" x="266.748047"/>
      <use xlink:href="#Helvetica-73" x="322.363281"/>
     </g>
    </g>
    <g id="patch_12">
     <path d="M 802.975 246.996875 
L 862.975 246.996875 
L 862.975 225.996875 
L 802.975 225.996875 
z
" style="fill: #fde725; stroke: #fde725; stroke-linejoin: miter"/>
    </g>
    <g id="text_22">
     <!-- Palaikastro -->
     <g transform="translate(886.975 246.996875) scale(0.3 -0.3)">
      <defs>
       <path id="Helvetica-50" d="M 547 4591 
L 2613 4591 
Q 3225 4591 3600 4245 
Q 3975 3900 3975 3275 
Q 3975 2738 3640 2339 
Q 3306 1941 2613 1941 
L 1169 1941 
L 1169 0 
L 547 0 
L 547 4591 
z
M 3347 3272 
Q 3347 3778 2972 3959 
Q 2766 4056 2406 4056 
L 1169 4056 
L 1169 2466 
L 2406 2466 
Q 2825 2466 3086 2644 
Q 3347 2822 3347 3272 
z
" transform="scale(0.015625)"/>
       <path id="Helvetica-6b" d="M 400 4591 
L 941 4591 
L 941 1925 
L 2384 3347 
L 3103 3347 
L 1822 2094 
L 3175 0 
L 2456 0 
L 1413 1688 
L 941 1256 
L 941 0 
L 400 0 
L 400 4591 
z
" transform="scale(0.015625)"/>
       <path id="Helvetica-74" d="M 525 4281 
L 1094 4281 
L 1094 3347 
L 1628 3347 
L 1628 2888 
L 1094 2888 
L 1094 703 
Q 1094 528 1213 469 
Q 1278 434 1431 434 
Q 1472 434 1519 436 
Q 1566 438 1628 444 
L 1628 0 
Q 1531 -28 1426 -40 
Q 1322 -53 1200 -53 
Q 806 -53 665 148 
Q 525 350 525 672 
L 525 2888 
L 72 2888 
L 72 3347 
L 525 3347 
L 525 4281 
z
" transform="scale(0.015625)"/>
       <path id="Helvetica-72" d="M 428 3347 
L 963 3347 
L 963 2769 
Q 1028 2938 1284 3180 
Q 1541 3422 1875 3422 
Q 1891 3422 1928 3419 
Q 1966 3416 2056 3406 
L 2056 2813 
Q 2006 2822 1964 2825 
Q 1922 2828 1872 2828 
Q 1447 2828 1219 2554 
Q 991 2281 991 1925 
L 991 0 
L 428 0 
L 428 3347 
z
" transform="scale(0.015625)"/>
      </defs>
      <use xlink:href="#Helvetica-50"/>
      <use xlink:href="#Helvetica-61" x="66.699219"/>
      <use xlink:href="#Helvetica-6c" x="122.314453"/>
      <use xlink:href="#Helvetica-61" x="144.53125"/>
      <use xlink:href="#Helvetica-69" x="200.146484"/>
      <use xlink:href="#Helvetica-6b" x="222.363281"/>
      <use xlink:href="#Helvetica-61" x="272.363281"/>
      <use xlink:href="#Helvetica-73" x="327.978516"/>
      <use xlink:href="#Helvetica-74" x="377.978516"/>
      <use xlink:href="#Helvetica-72" x="405.761719"/>
      <use xlink:href="#Helvetica-6f" x="439.0625"/>
     </g>
    </g>
    <g id="line2d_32">
     <path d="M 802.975 279.270312 
L 832.975 279.270312 
L 862.975 279.270312 
" style="fill: none; stroke: #ffffff; stroke-width: 1.5; stroke-linecap: square"/>
     <defs>
      <path id="m6bdfe74d2b" d="M 0 7.5 
C 1.989023 7.5 3.896849 6.709753 5.303301 5.303301 
C 6.709753 3.896849 7.5 1.989023 7.5 0 
C 7.5 -1.989023 6.709753 -3.896849 5.303301 -5.303301 
C 3.896849 -6.709753 1.989023 -7.5 0 -7.5 
C -1.989023 -7.5 -3.896849 -6.709753 -5.303301 -5.303301 
C -6.709753 -3.896849 -7.5 -1.989023 -7.5 0 
C -7.5 1.989023 -6.709753 3.896849 -5.303301 5.303301 
C -3.896849 6.709753 -1.989023 7.5 0 7.5 
z
" style="stroke: #000000"/>
     </defs>
     <g>
      <use xlink:href="#m6bdfe74d2b" x="832.975" y="279.270312" style="fill: #ffffff; stroke: #000000"/>
     </g>
    </g>
    <g id="text_23">
     <!-- LM II -->
     <g transform="translate(886.975 289.770312) scale(0.3 -0.3)">
      <defs>
       <path id="Helvetica-4c" d="M 488 4591 
L 1109 4591 
L 1109 547 
L 3434 547 
L 3434 0 
L 488 0 
L 488 4591 
z
" transform="scale(0.015625)"/>
       <path id="Helvetica-20" transform="scale(0.015625)"/>
       <path id="Helvetica-49" d="M 628 4591 
L 1256 4591 
L 1256 0 
L 628 0 
L 628 4591 
z
" transform="scale(0.015625)"/>
      </defs>
      <use xlink:href="#Helvetica-4c"/>
      <use xlink:href="#Helvetica-4d" x="55.615234"/>
      <use xlink:href="#Helvetica-20" x="138.916016"/>
      <use xlink:href="#Helvetica-49" x="166.699219"/>
      <use xlink:href="#Helvetica-49" x="194.482422"/>
     </g>
    </g>
    <g id="line2d_33">
     <path d="M 802.975 322.04375 
L 832.975 322.04375 
L 862.975 322.04375 
" style="fill: none; stroke: #ffffff; stroke-width: 1.5; stroke-linecap: square"/>
     <defs>
      <path id="m2f64ba6a6a" d="M 0 -7.5 
L -7.5 7.5 
L 7.5 7.5 
z
" style="stroke: #000000; stroke-linejoin: miter"/>
     </defs>
     <g>
      <use xlink:href="#m2f64ba6a6a" x="832.975" y="322.04375" style="fill: #ffffff; stroke: #000000; stroke-linejoin: miter"/>
     </g>
    </g>
    <g id="text_24">
     <!-- LM IIIA1 -->
     <g transform="translate(886.975 332.54375) scale(0.3 -0.3)">
      <defs>
       <path id="Helvetica-41" d="M 2844 1881 
L 2147 3909 
L 1406 1881 
L 2844 1881 
z
M 1822 4591 
L 2525 4591 
L 4191 0 
L 3509 0 
L 3044 1375 
L 1228 1375 
L 731 0 
L 94 0 
L 1822 4591 
z
" transform="scale(0.015625)"/>
      </defs>
      <use xlink:href="#Helvetica-4c"/>
      <use xlink:href="#Helvetica-4d" x="55.615234"/>
      <use xlink:href="#Helvetica-20" x="138.916016"/>
      <use xlink:href="#Helvetica-49" x="166.699219"/>
      <use xlink:href="#Helvetica-49" x="194.482422"/>
      <use xlink:href="#Helvetica-49" x="222.265625"/>
      <use xlink:href="#Helvetica-41" x="250.048828"/>
      <use xlink:href="#Helvetica-31" x="316.748047"/>
     </g>
    </g>
    <g id="line2d_34">
     <path d="M 802.975 364.817187 
L 832.975 364.817187 
L 862.975 364.817187 
" style="fill: none; stroke: #ffffff; stroke-width: 1.5; stroke-linecap: square"/>
     <defs>
      <path id="m6890f520d2" d="M -7.5 7.5 
L 7.5 7.5 
L 7.5 -7.5 
L -7.5 -7.5 
z
" style="stroke: #000000; stroke-linejoin: miter"/>
     </defs>
     <g>
      <use xlink:href="#m6890f520d2" x="832.975" y="364.817187" style="fill: #ffffff; stroke: #000000; stroke-linejoin: miter"/>
     </g>
    </g>
    <g id="text_25">
     <!-- LM IIIA2 -->
     <g transform="translate(886.975 375.317187) scale(0.3 -0.3)">
      <use xlink:href="#Helvetica-4c"/>
      <use xlink:href="#Helvetica-4d" x="55.615234"/>
      <use xlink:href="#Helvetica-20" x="138.916016"/>
      <use xlink:href="#Helvetica-49" x="166.699219"/>
      <use xlink:href="#Helvetica-49" x="194.482422"/>
      <use xlink:href="#Helvetica-49" x="222.265625"/>
      <use xlink:href="#Helvetica-41" x="250.048828"/>
      <use xlink:href="#Helvetica-32" x="316.748047"/>
     </g>
    </g>
    <g id="line2d_35">
     <path d="M 802.975 407.590625 
L 832.975 407.590625 
L 862.975 407.590625 
" style="fill: none; stroke: #ffffff; stroke-width: 1.5; stroke-linecap: square"/>
     <defs>
      <path id="ma350590e71" d="M -0 7.5 
L 7.5 -7.5 
L -7.5 -7.5 
z
" style="stroke: #000000; stroke-linejoin: miter"/>
     </defs>
     <g>
      <use xlink:href="#ma350590e71" x="832.975" y="407.590625" style="fill: #ffffff; stroke: #000000; stroke-linejoin: miter"/>
     </g>
    </g>
    <g id="text_26">
     <!-- LM IIIB1 -->
     <g transform="translate(886.975 418.090625) scale(0.3 -0.3)">
      <defs>
       <path id="Helvetica-42" d="M 2213 2650 
Q 2606 2650 2825 2759 
Q 3169 2931 3169 3378 
Q 3169 3828 2803 3984 
Q 2597 4072 2191 4072 
L 1081 4072 
L 1081 2650 
L 2213 2650 
z
M 2422 531 
Q 2994 531 3238 863 
Q 3391 1072 3391 1369 
Q 3391 1869 2944 2050 
Q 2706 2147 2316 2147 
L 1081 2147 
L 1081 531 
L 2422 531 
z
M 472 4591 
L 2444 4591 
Q 3250 4591 3591 4109 
Q 3791 3825 3791 3453 
Q 3791 3019 3544 2741 
Q 3416 2594 3175 2472 
Q 3528 2338 3703 2169 
Q 4013 1869 4013 1341 
Q 4013 897 3734 538 
Q 3319 0 2413 0 
L 472 0 
L 472 4591 
z
" transform="scale(0.015625)"/>
      </defs>
      <use xlink:href="#Helvetica-4c"/>
      <use xlink:href="#Helvetica-4d" x="55.615234"/>
      <use xlink:href="#Helvetica-20" x="138.916016"/>
      <use xlink:href="#Helvetica-49" x="166.699219"/>
      <use xlink:href="#Helvetica-49" x="194.482422"/>
      <use xlink:href="#Helvetica-49" x="222.265625"/>
      <use xlink:href="#Helvetica-42" x="250.048828"/>
      <use xlink:href="#Helvetica-31" x="316.748047"/>
     </g>
    </g>
    <g id="line2d_36">
     <path d="M 802.975 450.364062 
L 832.975 450.364062 
L 862.975 450.364062 
" style="fill: none; stroke: #ffffff; stroke-width: 1.5; stroke-linecap: square"/>
     <defs>
      <path id="m908481b67e" d="M 0 -7.5 
L -1.683855 -2.317627 
L -7.132924 -2.317627 
L -2.724534 0.885255 
L -4.408389 6.067627 
L -0 2.864745 
L 4.408389 6.067627 
L 2.724534 0.885255 
L 7.132924 -2.317627 
L 1.683855 -2.317627 
z
" style="stroke: #000000; stroke-linejoin: bevel"/>
     </defs>
     <g>
      <use xlink:href="#m908481b67e" x="832.975" y="450.364062" style="fill: #ffffff; stroke: #000000; stroke-linejoin: bevel"/>
     </g>
    </g>
    <g id="text_27">
     <!-- LM IIIB2 -->
     <g transform="translate(886.975 460.864062) scale(0.3 -0.3)">
      <use xlink:href="#Helvetica-4c"/>
      <use xlink:href="#Helvetica-4d" x="55.615234"/>
      <use xlink:href="#Helvetica-20" x="138.916016"/>
      <use xlink:href="#Helvetica-49" x="166.699219"/>
      <use xlink:href="#Helvetica-49" x="194.482422"/>
      <use xlink:href="#Helvetica-49" x="222.265625"/>
      <use xlink:href="#Helvetica-42" x="250.048828"/>
      <use xlink:href="#Helvetica-32" x="316.748047"/>
     </g>
    </g>
   </g>
  </g>
 </g>
 <defs>
  <clipPath id="p0e3962752f">
   <rect x="117.25" y="42.9" width="658.725" height="435.7"/>
  </clipPath>
 </defs>
</svg>
