<?xml version="1.0" encoding="utf-8" standalone="no"?>
<!DOCTYPE svg PUBLIC "-//W3C//DTD SVG 1.1//EN"
  "http://www.w3.org/Graphics/SVG/1.1/DTD/svg11.dtd">
<svg xmlns:xlink="http://www.w3.org/1999/xlink" width="1530.000993pt" height="739.807031pt" viewBox="0 0 1530.000993 739.807031" xmlns="http://www.w3.org/2000/svg" version="1.1">
 <metadata>
  <rdf:RDF xmlns:dc="http://purl.org/dc/elements/1.1/" xmlns:cc="http://creativecommons.org/ns#" xmlns:rdf="http://www.w3.org/1999/02/22-rdf-syntax-ns#">
   <cc:Work>
    <dc:type rdf:resource="http://purl.org/dc/dcmitype/StillImage"/>
    <dc:date>2023-06-21T11:44:10.300772</dc:date>
    <dc:format>image/svg+xml</dc:format>
    <dc:creator>
     <cc:Agent>
      <dc:title>Matplotlib v3.7.1, https://matplotlib.org/</dc:title>
     </cc:Agent>
    </dc:creator>
   </cc:Work>
  </rdf:RDF>
 </metadata>
 <defs>
  <style type="text/css">*{stroke-linejoin: round; stroke-linecap: butt}</style>
 </defs>
 <g id="figure_1">
  <g id="patch_1">
   <path d="M 0 739.807031 
L 1530.000993 739.807031 
L 1530.000993 -0 
L 0 -0 
z
" style="fill: #ffffff"/>
  </g>
  <g id="axes_1">
   <g id="patch_2">
    <path d="M 92.45 556.660156 
L 715.659969 556.660156 
L 715.659969 17.960156 
L 92.45 17.960156 
z
" style="fill: #ffffff"/>
   </g>
   <g id="matplotlib.axis_1">
    <g id="xtick_1">
     <g id="line2d_1">
      <defs>
       <path id="m3780ff2f17" d="M 0 0 
L 0 3.5 
" style="stroke: #000000; stroke-width: 0.8"/>
      </defs>
      <g>
       <use xlink:href="#m3780ff2f17" x="120.777726" y="556.660156" style="stroke: #000000; stroke-width: 0.8"/>
      </g>
     </g>
     <g id="text_1">
      <!-- LM II -->
      <g transform="translate(87.440226 585.180469) scale(0.3 -0.3)">
       <defs>
        <path id="Helvetica-4c" d="M 488 4591 
L 1109 4591 
L 1109 547 
L 3434 547 
L 3434 0 
L 488 0 
L 488 4591 
z
" transform="scale(0.015625)"/>
        <path id="Helvetica-4d" d="M 472 4591 
L 1363 4591 
L 2681 709 
L 3991 4591 
L 4872 4591 
L 4872 0 
L 4281 0 
L 4281 2709 
Q 4281 2850 4287 3175 
Q 4294 3500 4294 3872 
L 2984 0 
L 2369 0 
L 1050 3872 
L 1050 3731 
Q 1050 3563 1058 3217 
Q 1066 2872 1066 2709 
L 1066 0 
L 472 0 
L 472 4591 
z
" transform="scale(0.015625)"/>
        <path id="Helvetica-20" transform="scale(0.015625)"/>
        <path id="Helvetica-49" d="M 628 4591 
L 1256 4591 
L 1256 0 
L 628 0 
L 628 4591 
z
" transform="scale(0.015625)"/>
       </defs>
       <use xlink:href="#Helvetica-4c"/>
       <use xlink:href="#Helvetica-4d" x="55.615234"/>
       <use xlink:href="#Helvetica-20" x="138.916016"/>
       <use xlink:href="#Helvetica-49" x="166.699219"/>
       <use xlink:href="#Helvetica-49" x="194.482422"/>
      </g>
     </g>
    </g>
    <g id="xtick_2">
     <g id="line2d_2">
      <g>
       <use xlink:href="#m3780ff2f17" x="262.416355" y="556.660156" style="stroke: #000000; stroke-width: 0.8"/>
      </g>
     </g>
     <g id="text_2">
      <!-- LM III A1 -->
      <g transform="translate(202.397605 585.180469) scale(0.3 -0.3)">
       <defs>
        <path id="Helvetica-41" d="M 2844 1881 
L 2147 3909 
L 1406 1881 
L 2844 1881 
z
M 1822 4591 
L 2525 4591 
L 4191 0 
L 3509 0 
L 3044 1375 
L 1228 1375 
L 731 0 
L 94 0 
L 1822 4591 
z
" transform="scale(0.015625)"/>
        <path id="Helvetica-31" d="M 613 3169 
L 613 3600 
Q 1222 3659 1462 3798 
Q 1703 3938 1822 4456 
L 2266 4456 
L 2266 0 
L 1666 0 
L 1666 3169 
L 613 3169 
z
" transform="scale(0.015625)"/>
       </defs>
       <use xlink:href="#Helvetica-4c"/>
       <use xlink:href="#Helvetica-4d" x="55.615234"/>
       <use xlink:href="#Helvetica-20" x="138.916016"/>
       <use xlink:href="#Helvetica-49" x="166.699219"/>
       <use xlink:href="#Helvetica-49" x="194.482422"/>
       <use xlink:href="#Helvetica-49" x="222.265625"/>
       <use xlink:href="#Helvetica-20" x="250.048828"/>
       <use xlink:href="#Helvetica-41" x="277.832031"/>
       <use xlink:href="#Helvetica-31" x="344.53125"/>
      </g>
     </g>
    </g>
    <g id="xtick_3">
     <g id="line2d_3">
      <g>
       <use xlink:href="#m3780ff2f17" x="404.054985" y="556.660156" style="stroke: #000000; stroke-width: 0.8"/>
      </g>
     </g>
     <g id="text_3">
      <!-- LM III A2 -->
      <g transform="translate(344.036235 585.180469) scale(0.3 -0.3)">
       <defs>
        <path id="Helvetica-32" d="M 200 0 
Q 231 578 439 1006 
Q 647 1434 1250 1784 
L 1850 2131 
Q 2253 2366 2416 2531 
Q 2672 2791 2672 3125 
Q 2672 3516 2437 3745 
Q 2203 3975 1813 3975 
Q 1234 3975 1013 3538 
Q 894 3303 881 2888 
L 309 2888 
Q 319 3472 525 3841 
Q 891 4491 1816 4491 
Q 2584 4491 2939 4075 
Q 3294 3659 3294 3150 
Q 3294 2613 2916 2231 
Q 2697 2009 2131 1694 
L 1703 1456 
Q 1397 1288 1222 1134 
Q 909 863 828 531 
L 3272 531 
L 3272 0 
L 200 0 
z
" transform="scale(0.015625)"/>
       </defs>
       <use xlink:href="#Helvetica-4c"/>
       <use xlink:href="#Helvetica-4d" x="55.615234"/>
       <use xlink:href="#Helvetica-20" x="138.916016"/>
       <use xlink:href="#Helvetica-49" x="166.699219"/>
       <use xlink:href="#Helvetica-49" x="194.482422"/>
       <use xlink:href="#Helvetica-49" x="222.265625"/>
       <use xlink:href="#Helvetica-20" x="250.048828"/>
       <use xlink:href="#Helvetica-41" x="277.832031"/>
       <use xlink:href="#Helvetica-32" x="344.53125"/>
      </g>
     </g>
    </g>
    <g id="xtick_4">
     <g id="line2d_4">
      <g>
       <use xlink:href="#m3780ff2f17" x="545.693614" y="556.660156" style="stroke: #000000; stroke-width: 0.8"/>
      </g>
     </g>
     <g id="text_4">
      <!-- LM III B1 -->
      <g transform="translate(485.674864 585.180469) scale(0.3 -0.3)">
       <defs>
        <path id="Helvetica-42" d="M 2213 2650 
Q 2606 2650 2825 2759 
Q 3169 2931 3169 3378 
Q 3169 3828 2803 3984 
Q 2597 4072 2191 4072 
L 1081 4072 
L 1081 2650 
L 2213 2650 
z
M 2422 531 
Q 2994 531 3238 863 
Q 3391 1072 3391 1369 
Q 3391 1869 2944 2050 
Q 2706 2147 2316 2147 
L 1081 2147 
L 1081 531 
L 2422 531 
z
M 472 4591 
L 2444 4591 
Q 3250 4591 3591 4109 
Q 3791 3825 3791 3453 
Q 3791 3019 3544 2741 
Q 3416 2594 3175 2472 
Q 3528 2338 3703 2169 
Q 4013 1869 4013 1341 
Q 4013 897 3734 538 
Q 3319 0 2413 0 
L 472 0 
L 472 4591 
z
" transform="scale(0.015625)"/>
       </defs>
       <use xlink:href="#Helvetica-4c"/>
       <use xlink:href="#Helvetica-4d" x="55.615234"/>
       <use xlink:href="#Helvetica-20" x="138.916016"/>
       <use xlink:href="#Helvetica-49" x="166.699219"/>
       <use xlink:href="#Helvetica-49" x="194.482422"/>
       <use xlink:href="#Helvetica-49" x="222.265625"/>
       <use xlink:href="#Helvetica-20" x="250.048828"/>
       <use xlink:href="#Helvetica-42" x="277.832031"/>
       <use xlink:href="#Helvetica-31" x="344.53125"/>
      </g>
     </g>
    </g>
    <g id="xtick_5">
     <g id="line2d_5">
      <g>
       <use xlink:href="#m3780ff2f17" x="687.332243" y="556.660156" style="stroke: #000000; stroke-width: 0.8"/>
      </g>
     </g>
     <g id="text_5">
      <!-- LM III B2 -->
      <g transform="translate(627.313493 585.180469) scale(0.3 -0.3)">
       <use xlink:href="#Helvetica-4c"/>
       <use xlink:href="#Helvetica-4d" x="55.615234"/>
       <use xlink:href="#Helvetica-20" x="138.916016"/>
       <use xlink:href="#Helvetica-49" x="166.699219"/>
       <use xlink:href="#Helvetica-49" x="194.482422"/>
       <use xlink:href="#Helvetica-49" x="222.265625"/>
       <use xlink:href="#Helvetica-20" x="250.048828"/>
       <use xlink:href="#Helvetica-42" x="277.832031"/>
       <use xlink:href="#Helvetica-32" x="344.53125"/>
      </g>
     </g>
    </g>
   </g>
   <g id="matplotlib.axis_2">
    <g id="ytick_1">
     <g id="line2d_6">
      <defs>
       <path id="m5038150090" d="M 0 0 
L -3.5 0 
" style="stroke: #000000; stroke-width: 0.8"/>
      </defs>
      <g>
       <use xlink:href="#m5038150090" x="92.45" y="507.687429" style="stroke: #000000; stroke-width: 0.8"/>
      </g>
     </g>
     <g id="text_6">
      <!-- 0.0 -->
      <g transform="translate(43.75 518.447585) scale(0.3 -0.3)">
       <defs>
        <path id="Helvetica-30" d="M 1731 4475 
Q 2600 4475 2988 3759 
Q 3288 3206 3288 2244 
Q 3288 1331 3016 734 
Q 2622 -122 1728 -122 
Q 922 -122 528 578 
Q 200 1163 200 2147 
Q 200 2909 397 3456 
Q 766 4475 1731 4475 
z
M 1725 391 
Q 2163 391 2422 778 
Q 2681 1166 2681 2222 
Q 2681 2984 2493 3476 
Q 2306 3969 1766 3969 
Q 1269 3969 1039 3501 
Q 809 3034 809 2125 
Q 809 1441 956 1025 
Q 1181 391 1725 391 
z
" transform="scale(0.015625)"/>
        <path id="Helvetica-2e" d="M 547 681 
L 1200 681 
L 1200 0 
L 547 0 
L 547 681 
z
" transform="scale(0.015625)"/>
       </defs>
       <use xlink:href="#Helvetica-30"/>
       <use xlink:href="#Helvetica-2e" x="55.615234"/>
       <use xlink:href="#Helvetica-30" x="83.398438"/>
      </g>
     </g>
    </g>
    <g id="ytick_2">
     <g id="line2d_7">
      <g>
       <use xlink:href="#m5038150090" x="92.45" y="409.741974" style="stroke: #000000; stroke-width: 0.8"/>
      </g>
     </g>
     <g id="text_7">
      <!-- 0.2 -->
      <g transform="translate(43.75 420.502131) scale(0.3 -0.3)">
       <use xlink:href="#Helvetica-30"/>
       <use xlink:href="#Helvetica-2e" x="55.615234"/>
       <use xlink:href="#Helvetica-32" x="83.398438"/>
      </g>
     </g>
    </g>
    <g id="ytick_3">
     <g id="line2d_8">
      <g>
       <use xlink:href="#m5038150090" x="92.45" y="311.79652" style="stroke: #000000; stroke-width: 0.8"/>
      </g>
     </g>
     <g id="text_8">
      <!-- 0.4 -->
      <g transform="translate(43.75 322.556676) scale(0.3 -0.3)">
       <defs>
        <path id="Helvetica-34" d="M 2116 1584 
L 2116 3613 
L 681 1584 
L 2116 1584 
z
M 2125 0 
L 2125 1094 
L 163 1094 
L 163 1644 
L 2213 4488 
L 2688 4488 
L 2688 1584 
L 3347 1584 
L 3347 1094 
L 2688 1094 
L 2688 0 
L 2125 0 
z
" transform="scale(0.015625)"/>
       </defs>
       <use xlink:href="#Helvetica-30"/>
       <use xlink:href="#Helvetica-2e" x="55.615234"/>
       <use xlink:href="#Helvetica-34" x="83.398438"/>
      </g>
     </g>
    </g>
    <g id="ytick_4">
     <g id="line2d_9">
      <g>
       <use xlink:href="#m5038150090" x="92.45" y="213.851065" style="stroke: #000000; stroke-width: 0.8"/>
      </g>
     </g>
     <g id="text_9">
      <!-- 0.6 -->
      <g transform="translate(43.75 224.611222) scale(0.3 -0.3)">
       <defs>
        <path id="Helvetica-36" d="M 1872 4494 
Q 2622 4494 2917 4105 
Q 3213 3716 3213 3303 
L 2656 3303 
Q 2606 3569 2497 3719 
Q 2294 4000 1881 4000 
Q 1409 4000 1131 3564 
Q 853 3128 822 2316 
Q 1016 2600 1309 2741 
Q 1578 2866 1909 2866 
Q 2472 2866 2890 2506 
Q 3309 2147 3309 1434 
Q 3309 825 2912 354 
Q 2516 -116 1781 -116 
Q 1153 -116 697 361 
Q 241 838 241 1966 
Q 241 2800 444 3381 
Q 834 4494 1872 4494 
z
M 1831 384 
Q 2275 384 2495 682 
Q 2716 981 2716 1388 
Q 2716 1731 2519 2042 
Q 2322 2353 1803 2353 
Q 1441 2353 1167 2112 
Q 894 1872 894 1388 
Q 894 963 1142 673 
Q 1391 384 1831 384 
z
" transform="scale(0.015625)"/>
       </defs>
       <use xlink:href="#Helvetica-30"/>
       <use xlink:href="#Helvetica-2e" x="55.615234"/>
       <use xlink:href="#Helvetica-36" x="83.398438"/>
      </g>
     </g>
    </g>
    <g id="ytick_5">
     <g id="line2d_10">
      <g>
       <use xlink:href="#m5038150090" x="92.45" y="115.905611" style="stroke: #000000; stroke-width: 0.8"/>
      </g>
     </g>
     <g id="text_10">
      <!-- 0.8 -->
      <g transform="translate(43.75 126.665767) scale(0.3 -0.3)">
       <defs>
        <path id="Helvetica-38" d="M 1741 2600 
Q 2113 2600 2322 2808 
Q 2531 3016 2531 3303 
Q 2531 3553 2331 3762 
Q 2131 3972 1722 3972 
Q 1316 3972 1134 3762 
Q 953 3553 953 3272 
Q 953 2956 1187 2778 
Q 1422 2600 1741 2600 
z
M 1775 384 
Q 2166 384 2423 595 
Q 2681 806 2681 1225 
Q 2681 1659 2415 1884 
Q 2150 2109 1734 2109 
Q 1331 2109 1076 1879 
Q 822 1650 822 1244 
Q 822 894 1055 639 
Q 1288 384 1775 384 
z
M 975 2384 
Q 741 2484 609 2619 
Q 363 2869 363 3269 
Q 363 3769 725 4128 
Q 1088 4488 1753 4488 
Q 2397 4488 2762 4148 
Q 3128 3809 3128 3356 
Q 3128 2938 2916 2678 
Q 2797 2531 2547 2391 
Q 2825 2263 2984 2097 
Q 3281 1784 3281 1284 
Q 3281 694 2884 283 
Q 2488 -128 1763 -128 
Q 1109 -128 657 226 
Q 206 581 206 1256 
Q 206 1653 400 1942 
Q 594 2231 975 2384 
z
" transform="scale(0.015625)"/>
       </defs>
       <use xlink:href="#Helvetica-30"/>
       <use xlink:href="#Helvetica-2e" x="55.615234"/>
       <use xlink:href="#Helvetica-38" x="83.398438"/>
      </g>
     </g>
    </g>
    <g id="ytick_6">
     <g id="line2d_11">
      <g>
       <use xlink:href="#m5038150090" x="92.45" y="17.960156" style="stroke: #000000; stroke-width: 0.8"/>
      </g>
     </g>
     <g id="text_11">
      <!-- 1.0 -->
      <g transform="translate(43.75 28.720312) scale(0.3 -0.3)">
       <use xlink:href="#Helvetica-31"/>
       <use xlink:href="#Helvetica-2e" x="55.615234"/>
       <use xlink:href="#Helvetica-30" x="83.398438"/>
      </g>
     </g>
    </g>
    <g id="text_12">
     <!-- $\langle S_2(A,B)\rangle_B$ -->
     <g transform="translate(32.454687 376.035156) rotate(-90) scale(0.35 -0.35)">
      <defs>
       <path id="DejaVuSans-27e8" d="M 572 2006 
L 1453 4856 
L 1984 4856 
L 1103 2006 
L 1984 -844 
L 1453 -844 
L 572 2006 
z
" transform="scale(0.015625)"/>
       <path id="DejaVuSans-Oblique-53" d="M 3859 4513 
L 3738 3897 
Q 3422 4066 3111 4152 
Q 2800 4238 2509 4238 
Q 1944 4238 1609 3991 
Q 1275 3744 1275 3334 
Q 1275 3109 1398 2989 
Q 1522 2869 2034 2731 
L 2413 2638 
Q 3053 2472 3303 2217 
Q 3553 1963 3553 1503 
Q 3553 797 2998 353 
Q 2444 -91 1538 -91 
Q 1166 -91 791 -17 
Q 416 56 38 206 
L 166 856 
Q 513 641 861 531 
Q 1209 422 1556 422 
Q 2147 422 2503 684 
Q 2859 947 2859 1369 
Q 2859 1650 2717 1795 
Q 2575 1941 2106 2059 
L 1728 2156 
Q 1081 2325 845 2545 
Q 609 2766 609 3163 
Q 609 3859 1145 4304 
Q 1681 4750 2541 4750 
Q 2875 4750 3203 4690 
Q 3531 4631 3859 4513 
z
" transform="scale(0.015625)"/>
       <path id="DejaVuSans-32" d="M 1228 531 
L 3431 531 
L 3431 0 
L 469 0 
L 469 531 
Q 828 903 1448 1529 
Q 2069 2156 2228 2338 
Q 2531 2678 2651 2914 
Q 2772 3150 2772 3378 
Q 2772 3750 2511 3984 
Q 2250 4219 1831 4219 
Q 1534 4219 1204 4116 
Q 875 4013 500 3803 
L 500 4441 
Q 881 4594 1212 4672 
Q 1544 4750 1819 4750 
Q 2544 4750 2975 4387 
Q 3406 4025 3406 3419 
Q 3406 3131 3298 2873 
Q 3191 2616 2906 2266 
Q 2828 2175 2409 1742 
Q 1991 1309 1228 531 
z
" transform="scale(0.015625)"/>
       <path id="DejaVuSans-28" d="M 1984 4856 
Q 1566 4138 1362 3434 
Q 1159 2731 1159 2009 
Q 1159 1288 1364 580 
Q 1569 -128 1984 -844 
L 1484 -844 
Q 1016 -109 783 600 
Q 550 1309 550 2009 
Q 550 2706 781 3412 
Q 1013 4119 1484 4856 
L 1984 4856 
z
" transform="scale(0.015625)"/>
       <path id="DejaVuSans-Oblique-41" d="M 2356 4666 
L 3072 4666 
L 3938 0 
L 3278 0 
L 3084 1197 
L 984 1197 
L 325 0 
L -341 0 
L 2356 4666 
z
M 2584 4044 
L 1275 1722 
L 2988 1722 
L 2584 4044 
z
" transform="scale(0.015625)"/>
       <path id="DejaVuSans-2c" d="M 750 794 
L 1409 794 
L 1409 256 
L 897 -744 
L 494 -744 
L 750 256 
L 750 794 
z
" transform="scale(0.015625)"/>
       <path id="DejaVuSans-Oblique-42" d="M 1081 4666 
L 2694 4666 
Q 3350 4666 3675 4422 
Q 4000 4178 4000 3688 
Q 4000 3238 3720 2911 
Q 3441 2584 2988 2516 
Q 3375 2428 3569 2181 
Q 3763 1934 3763 1522 
Q 3763 819 3242 409 
Q 2722 0 1819 0 
L 172 0 
L 1081 4666 
z
M 1234 2228 
L 903 519 
L 1919 519 
Q 2491 519 2800 781 
Q 3109 1044 3109 1522 
Q 3109 1891 2904 2059 
Q 2700 2228 2247 2228 
L 1234 2228 
z
M 1606 4147 
L 1331 2741 
L 2272 2741 
Q 2775 2741 3058 2959 
Q 3341 3178 3341 3566 
Q 3341 3869 3150 4008 
Q 2959 4147 2541 4147 
L 1606 4147 
z
" transform="scale(0.015625)"/>
       <path id="DejaVuSans-29" d="M 513 4856 
L 1013 4856 
Q 1481 4119 1714 3412 
Q 1947 2706 1947 2009 
Q 1947 1309 1714 600 
Q 1481 -109 1013 -844 
L 513 -844 
Q 928 -128 1133 580 
Q 1338 1288 1338 2009 
Q 1338 2731 1133 3434 
Q 928 4138 513 4856 
z
" transform="scale(0.015625)"/>
       <path id="DejaVuSans-27e9" d="M 1925 2006 
L 1044 -844 
L 513 -844 
L 1394 2006 
L 513 4856 
L 1044 4856 
L 1925 2006 
z
" transform="scale(0.015625)"/>
      </defs>
      <use xlink:href="#DejaVuSans-27e8" transform="translate(0 0.125)"/>
      <use xlink:href="#DejaVuSans-Oblique-53" transform="translate(39.013672 0.125)"/>
      <use xlink:href="#DejaVuSans-32" transform="translate(102.490234 -16.28125) scale(0.7)"/>
      <use xlink:href="#DejaVuSans-28" transform="translate(149.760742 0.125)"/>
      <use xlink:href="#DejaVuSans-Oblique-41" transform="translate(188.774414 0.125)"/>
      <use xlink:href="#DejaVuSans-2c" transform="translate(257.182617 0.125)"/>
      <use xlink:href="#DejaVuSans-Oblique-42" transform="translate(308.452148 0.125)"/>
      <use xlink:href="#DejaVuSans-29" transform="translate(377.055664 0.125)"/>
      <use xlink:href="#DejaVuSans-27e9" transform="translate(416.069336 0.125)"/>
      <use xlink:href="#DejaVuSans-Oblique-42" transform="translate(456.040039 -16.28125) scale(0.7)"/>
     </g>
    </g>
   </g>
   <g id="line2d_12">
    <path d="M 120.777726 142.592873 
L 262.416355 143.479565 
L 404.054985 153.335782 
L 545.693614 338.663554 
L 687.332243 420.703582 
" clip-path="url(#pa478702bca)" style="fill: none; stroke: #1f77b4; stroke-width: 1.5; stroke-linecap: square"/>
    <defs>
     <path id="m4139e2d9c7" d="M -0 15 
L 15 -15 
L -15 -15 
z
" style="stroke: #1f77b4; stroke-width: 3; stroke-linejoin: miter"/>
    </defs>
    <g clip-path="url(#pa478702bca)">
     <use xlink:href="#m4139e2d9c7" x="120.777726" y="142.592873" style="fill: #ffffff; stroke: #1f77b4; stroke-width: 3; stroke-linejoin: miter"/>
     <use xlink:href="#m4139e2d9c7" x="262.416355" y="143.479565" style="fill: #ffffff; stroke: #1f77b4; stroke-width: 3; stroke-linejoin: miter"/>
     <use xlink:href="#m4139e2d9c7" x="404.054985" y="153.335782" style="fill: #ffffff; stroke: #1f77b4; stroke-width: 3; stroke-linejoin: miter"/>
     <use xlink:href="#m4139e2d9c7" x="545.693614" y="338.663554" style="fill: #ffffff; stroke: #1f77b4; stroke-width: 3; stroke-linejoin: miter"/>
     <use xlink:href="#m4139e2d9c7" x="687.332243" y="420.703582" style="fill: #ffffff; stroke: #1f77b4; stroke-width: 3; stroke-linejoin: miter"/>
    </g>
   </g>
   <g id="line2d_13">
    <path d="M 120.777726 129.917522 
L 262.416355 146.832719 
L 404.054985 176.712892 
L 545.693614 396.684749 
L 687.332243 417.908918 
" clip-path="url(#pa478702bca)" style="fill: none; stroke: #ff7f0e; stroke-width: 1.5; stroke-linecap: square"/>
    <defs>
     <path id="m589545ce6e" d="M -15 15 
L 15 15 
L 15 -15 
L -15 -15 
z
" style="stroke: #ff7f0e; stroke-width: 3; stroke-linejoin: miter"/>
    </defs>
    <g clip-path="url(#pa478702bca)">
     <use xlink:href="#m589545ce6e" x="120.777726" y="129.917522" style="fill: #ffffff; stroke: #ff7f0e; stroke-width: 3; stroke-linejoin: miter"/>
     <use xlink:href="#m589545ce6e" x="262.416355" y="146.832719" style="fill: #ffffff; stroke: #ff7f0e; stroke-width: 3; stroke-linejoin: miter"/>
     <use xlink:href="#m589545ce6e" x="404.054985" y="176.712892" style="fill: #ffffff; stroke: #ff7f0e; stroke-width: 3; stroke-linejoin: miter"/>
     <use xlink:href="#m589545ce6e" x="545.693614" y="396.684749" style="fill: #ffffff; stroke: #ff7f0e; stroke-width: 3; stroke-linejoin: miter"/>
     <use xlink:href="#m589545ce6e" x="687.332243" y="417.908918" style="fill: #ffffff; stroke: #ff7f0e; stroke-width: 3; stroke-linejoin: miter"/>
    </g>
   </g>
   <g id="line2d_14">
    <path d="M 120.777726 150.286965 
L 262.416355 181.732853 
L 404.054985 142.806076 
L 545.693614 312.731284 
L 687.332243 405.540534 
" clip-path="url(#pa478702bca)" style="fill: none; stroke: #2ca02c; stroke-width: 1.5; stroke-linecap: square"/>
    <defs>
     <path id="md2cd38e3e6" d="M 0 -15 
L -3.36771 -4.635255 
L -14.265848 -4.635255 
L -5.449069 1.77051 
L -8.816779 12.135255 
L -0 5.72949 
L 8.816779 12.135255 
L 5.449069 1.77051 
L 14.265848 -4.635255 
L 3.36771 -4.635255 
z
" style="stroke: #2ca02c; stroke-width: 3; stroke-linejoin: bevel"/>
    </defs>
    <g clip-path="url(#pa478702bca)">
     <use xlink:href="#md2cd38e3e6" x="120.777726" y="150.286965" style="fill: #ffffff; stroke: #2ca02c; stroke-width: 3; stroke-linejoin: bevel"/>
     <use xlink:href="#md2cd38e3e6" x="262.416355" y="181.732853" style="fill: #ffffff; stroke: #2ca02c; stroke-width: 3; stroke-linejoin: bevel"/>
     <use xlink:href="#md2cd38e3e6" x="404.054985" y="142.806076" style="fill: #ffffff; stroke: #2ca02c; stroke-width: 3; stroke-linejoin: bevel"/>
     <use xlink:href="#md2cd38e3e6" x="545.693614" y="312.731284" style="fill: #ffffff; stroke: #2ca02c; stroke-width: 3; stroke-linejoin: bevel"/>
     <use xlink:href="#md2cd38e3e6" x="687.332243" y="405.540534" style="fill: #ffffff; stroke: #2ca02c; stroke-width: 3; stroke-linejoin: bevel"/>
    </g>
   </g>
   <g id="line2d_15">
    <path d="M 120.777726 181.981666 
L 262.416355 191.511754 
L 404.054985 255.209284 
L 545.693614 458.916033 
L 687.332243 507.687429 
" clip-path="url(#pa478702bca)" style="fill: none; stroke: #d62728; stroke-width: 1.5; stroke-linecap: square"/>
    <defs>
     <path id="m3c1f6ee81e" d="M 0 -15 
L -15 15 
L 15 15 
z
" style="stroke: #d62728; stroke-width: 3; stroke-linejoin: miter"/>
    </defs>
    <g clip-path="url(#pa478702bca)">
     <use xlink:href="#m3c1f6ee81e" x="120.777726" y="181.981666" style="fill: #ffffff; stroke: #d62728; stroke-width: 3; stroke-linejoin: miter"/>
     <use xlink:href="#m3c1f6ee81e" x="262.416355" y="191.511754" style="fill: #ffffff; stroke: #d62728; stroke-width: 3; stroke-linejoin: miter"/>
     <use xlink:href="#m3c1f6ee81e" x="404.054985" y="255.209284" style="fill: #ffffff; stroke: #d62728; stroke-width: 3; stroke-linejoin: miter"/>
     <use xlink:href="#m3c1f6ee81e" x="545.693614" y="458.916033" style="fill: #ffffff; stroke: #d62728; stroke-width: 3; stroke-linejoin: miter"/>
     <use xlink:href="#m3c1f6ee81e" x="687.332243" y="507.687429" style="fill: #ffffff; stroke: #d62728; stroke-width: 3; stroke-linejoin: miter"/>
    </g>
   </g>
   <g id="line2d_16">
    <path d="M 120.777726 132.287386 
L 262.416355 219.135564 
L 404.054985 159.140194 
L 545.693614 507.687429 
L 687.332243 507.687429 
" clip-path="url(#pa478702bca)" style="fill: none; stroke: #9467bd; stroke-width: 1.5; stroke-linecap: square"/>
    <defs>
     <path id="m6ce874a449" d="M 0 15 
C 3.978047 15 7.793698 13.419505 10.606602 10.606602 
C 13.419505 7.793698 15 3.978047 15 0 
C 15 -3.978047 13.419505 -7.793698 10.606602 -10.606602 
C 7.793698 -13.419505 3.978047 -15 0 -15 
C -3.978047 -15 -7.793698 -13.419505 -10.606602 -10.606602 
C -13.419505 -7.793698 -15 -3.978047 -15 0 
C -15 3.978047 -13.419505 7.793698 -10.606602 10.606602 
C -7.793698 13.419505 -3.978047 15 0 15 
z
" style="stroke: #9467bd; stroke-width: 3"/>
    </defs>
    <g clip-path="url(#pa478702bca)">
     <use xlink:href="#m6ce874a449" x="120.777726" y="132.287386" style="fill: #ffffff; stroke: #9467bd; stroke-width: 3"/>
     <use xlink:href="#m6ce874a449" x="262.416355" y="219.135564" style="fill: #ffffff; stroke: #9467bd; stroke-width: 3"/>
     <use xlink:href="#m6ce874a449" x="404.054985" y="159.140194" style="fill: #ffffff; stroke: #9467bd; stroke-width: 3"/>
     <use xlink:href="#m6ce874a449" x="545.693614" y="507.687429" style="fill: #ffffff; stroke: #9467bd; stroke-width: 3"/>
     <use xlink:href="#m6ce874a449" x="687.332243" y="507.687429" style="fill: #ffffff; stroke: #9467bd; stroke-width: 3"/>
    </g>
   </g>
   <g id="patch_3">
    <path d="M 92.45 556.660156 
L 92.45 17.960156 
" style="fill: none; stroke: #000000; stroke-width: 0.8; stroke-linejoin: miter; stroke-linecap: square"/>
   </g>
   <g id="patch_4">
    <path d="M 715.659969 556.660156 
L 715.659969 17.960156 
" style="fill: none; stroke: #000000; stroke-width: 0.8; stroke-linejoin: miter; stroke-linecap: square"/>
   </g>
   <g id="patch_5">
    <path d="M 92.45 556.660156 
L 715.659969 556.660156 
" style="fill: none; stroke: #000000; stroke-width: 0.8; stroke-linejoin: miter; stroke-linecap: square"/>
   </g>
   <g id="patch_6">
    <path d="M 92.45 17.960156 
L 715.659969 17.960156 
" style="fill: none; stroke: #000000; stroke-width: 0.8; stroke-linejoin: miter; stroke-linecap: square"/>
   </g>
   <g id="text_13">
    <!-- (a) -->
    <g transform="translate(123.95 74.824219) scale(0.35 -0.35)">
     <defs>
      <path id="Helvetica-28" d="M 1894 4666 
Q 1403 3713 1256 3263 
Q 1034 2578 1034 1681 
Q 1034 775 1288 25 
Q 1444 -438 1903 -1306 
L 1525 -1306 
Q 1069 -594 959 -397 
Q 850 -200 722 138 
Q 547 600 478 1125 
Q 444 1397 444 1644 
Q 444 2569 734 3291 
Q 919 3750 1503 4666 
L 1894 4666 
z
" transform="scale(0.015625)"/>
      <path id="Helvetica-61" d="M 844 891 
Q 844 647 1022 506 
Q 1200 366 1444 366 
Q 1741 366 2019 503 
Q 2488 731 2488 1250 
L 2488 1703 
Q 2384 1638 2221 1594 
Q 2059 1550 1903 1531 
L 1563 1488 
Q 1256 1447 1103 1359 
Q 844 1213 844 891 
z
M 2206 2028 
Q 2400 2053 2466 2191 
Q 2503 2266 2503 2406 
Q 2503 2694 2298 2823 
Q 2094 2953 1713 2953 
Q 1272 2953 1088 2716 
Q 984 2584 953 2325 
L 428 2325 
Q 444 2944 830 3186 
Q 1216 3428 1725 3428 
Q 2316 3428 2684 3203 
Q 3050 2978 3050 2503 
L 3050 575 
Q 3050 488 3086 434 
Q 3122 381 3238 381 
Q 3275 381 3322 386 
Q 3369 391 3422 400 
L 3422 -16 
Q 3291 -53 3222 -62 
Q 3153 -72 3034 -72 
Q 2744 -72 2613 134 
Q 2544 244 2516 444 
Q 2344 219 2022 53 
Q 1700 -113 1313 -113 
Q 847 -113 551 170 
Q 256 453 256 878 
Q 256 1344 547 1600 
Q 838 1856 1309 1916 
L 2206 2028 
z
M 1741 3428 
L 1741 3428 
z
" transform="scale(0.015625)"/>
      <path id="Helvetica-29" d="M 222 -1306 
Q 719 -338 863 106 
Q 1081 778 1081 1681 
Q 1081 2584 828 3334 
Q 672 3797 213 4666 
L 591 4666 
Q 1072 3897 1173 3717 
Q 1275 3538 1394 3222 
Q 1544 2831 1608 2450 
Q 1672 2069 1672 1716 
Q 1672 791 1378 66 
Q 1194 -400 613 -1306 
L 222 -1306 
z
" transform="scale(0.015625)"/>
     </defs>
     <use xlink:href="#Helvetica-28"/>
     <use xlink:href="#Helvetica-61" x="33.300781"/>
     <use xlink:href="#Helvetica-29" x="88.916016"/>
    </g>
   </g>
  </g>
  <g id="axes_2">
   <g id="patch_7">
    <path d="M 867.9 556.660156 
L 1491.109969 556.660156 
L 1491.109969 17.960156 
L 867.9 17.960156 
z
" style="fill: #ffffff"/>
   </g>
   <g id="matplotlib.axis_3">
    <g id="xtick_6">
     <g id="line2d_17">
      <g>
       <use xlink:href="#m3780ff2f17" x="896.227726" y="556.660156" style="stroke: #000000; stroke-width: 0.8"/>
      </g>
     </g>
     <g id="text_14">
      <!-- LM II -->
      <g transform="translate(862.890226 585.180469) scale(0.3 -0.3)">
       <use xlink:href="#Helvetica-4c"/>
       <use xlink:href="#Helvetica-4d" x="55.615234"/>
       <use xlink:href="#Helvetica-20" x="138.916016"/>
       <use xlink:href="#Helvetica-49" x="166.699219"/>
       <use xlink:href="#Helvetica-49" x="194.482422"/>
      </g>
     </g>
    </g>
    <g id="xtick_7">
     <g id="line2d_18">
      <g>
       <use xlink:href="#m3780ff2f17" x="1037.866355" y="556.660156" style="stroke: #000000; stroke-width: 0.8"/>
      </g>
     </g>
     <g id="text_15">
      <!-- LM III A1 -->
      <g transform="translate(977.847605 585.180469) scale(0.3 -0.3)">
       <use xlink:href="#Helvetica-4c"/>
       <use xlink:href="#Helvetica-4d" x="55.615234"/>
       <use xlink:href="#Helvetica-20" x="138.916016"/>
       <use xlink:href="#Helvetica-49" x="166.699219"/>
       <use xlink:href="#Helvetica-49" x="194.482422"/>
       <use xlink:href="#Helvetica-49" x="222.265625"/>
       <use xlink:href="#Helvetica-20" x="250.048828"/>
       <use xlink:href="#Helvetica-41" x="277.832031"/>
       <use xlink:href="#Helvetica-31" x="344.53125"/>
      </g>
     </g>
    </g>
    <g id="xtick_8">
     <g id="line2d_19">
      <g>
       <use xlink:href="#m3780ff2f17" x="1179.504985" y="556.660156" style="stroke: #000000; stroke-width: 0.8"/>
      </g>
     </g>
     <g id="text_16">
      <!-- LM III A2 -->
      <g transform="translate(1119.486235 585.180469) scale(0.3 -0.3)">
       <use xlink:href="#Helvetica-4c"/>
       <use xlink:href="#Helvetica-4d" x="55.615234"/>
       <use xlink:href="#Helvetica-20" x="138.916016"/>
       <use xlink:href="#Helvetica-49" x="166.699219"/>
       <use xlink:href="#Helvetica-49" x="194.482422"/>
       <use xlink:href="#Helvetica-49" x="222.265625"/>
       <use xlink:href="#Helvetica-20" x="250.048828"/>
       <use xlink:href="#Helvetica-41" x="277.832031"/>
       <use xlink:href="#Helvetica-32" x="344.53125"/>
      </g>
     </g>
    </g>
    <g id="xtick_9">
     <g id="line2d_20">
      <g>
       <use xlink:href="#m3780ff2f17" x="1321.143614" y="556.660156" style="stroke: #000000; stroke-width: 0.8"/>
      </g>
     </g>
     <g id="text_17">
      <!-- LM III B1 -->
      <g transform="translate(1261.124864 585.180469) scale(0.3 -0.3)">
       <use xlink:href="#Helvetica-4c"/>
       <use xlink:href="#Helvetica-4d" x="55.615234"/>
       <use xlink:href="#Helvetica-20" x="138.916016"/>
       <use xlink:href="#Helvetica-49" x="166.699219"/>
       <use xlink:href="#Helvetica-49" x="194.482422"/>
       <use xlink:href="#Helvetica-49" x="222.265625"/>
       <use xlink:href="#Helvetica-20" x="250.048828"/>
       <use xlink:href="#Helvetica-42" x="277.832031"/>
       <use xlink:href="#Helvetica-31" x="344.53125"/>
      </g>
     </g>
    </g>
    <g id="xtick_10">
     <g id="line2d_21">
      <g>
       <use xlink:href="#m3780ff2f17" x="1462.782243" y="556.660156" style="stroke: #000000; stroke-width: 0.8"/>
      </g>
     </g>
     <g id="text_18">
      <!-- LM III B2 -->
      <g transform="translate(1402.763493 585.180469) scale(0.3 -0.3)">
       <use xlink:href="#Helvetica-4c"/>
       <use xlink:href="#Helvetica-4d" x="55.615234"/>
       <use xlink:href="#Helvetica-20" x="138.916016"/>
       <use xlink:href="#Helvetica-49" x="166.699219"/>
       <use xlink:href="#Helvetica-49" x="194.482422"/>
       <use xlink:href="#Helvetica-49" x="222.265625"/>
       <use xlink:href="#Helvetica-20" x="250.048828"/>
       <use xlink:href="#Helvetica-42" x="277.832031"/>
       <use xlink:href="#Helvetica-32" x="344.53125"/>
      </g>
     </g>
    </g>
   </g>
   <g id="matplotlib.axis_4">
    <g id="ytick_7">
     <g id="line2d_22">
      <g>
       <use xlink:href="#m5038150090" x="867.9" y="507.687429" style="stroke: #000000; stroke-width: 0.8"/>
      </g>
     </g>
     <g id="text_19">
      <!-- 0.0 -->
      <g transform="translate(819.2 518.447585) scale(0.3 -0.3)">
       <use xlink:href="#Helvetica-30"/>
       <use xlink:href="#Helvetica-2e" x="55.615234"/>
       <use xlink:href="#Helvetica-30" x="83.398438"/>
      </g>
     </g>
    </g>
    <g id="ytick_8">
     <g id="line2d_23">
      <g>
       <use xlink:href="#m5038150090" x="867.9" y="409.741974" style="stroke: #000000; stroke-width: 0.8"/>
      </g>
     </g>
     <g id="text_20">
      <!-- 0.2 -->
      <g transform="translate(819.2 420.502131) scale(0.3 -0.3)">
       <use xlink:href="#Helvetica-30"/>
       <use xlink:href="#Helvetica-2e" x="55.615234"/>
       <use xlink:href="#Helvetica-32" x="83.398438"/>
      </g>
     </g>
    </g>
    <g id="ytick_9">
     <g id="line2d_24">
      <g>
       <use xlink:href="#m5038150090" x="867.9" y="311.79652" style="stroke: #000000; stroke-width: 0.8"/>
      </g>
     </g>
     <g id="text_21">
      <!-- 0.4 -->
      <g transform="translate(819.2 322.556676) scale(0.3 -0.3)">
       <use xlink:href="#Helvetica-30"/>
       <use xlink:href="#Helvetica-2e" x="55.615234"/>
       <use xlink:href="#Helvetica-34" x="83.398438"/>
      </g>
     </g>
    </g>
    <g id="ytick_10">
     <g id="line2d_25">
      <g>
       <use xlink:href="#m5038150090" x="867.9" y="213.851065" style="stroke: #000000; stroke-width: 0.8"/>
      </g>
     </g>
     <g id="text_22">
      <!-- 0.6 -->
      <g transform="translate(819.2 224.611222) scale(0.3 -0.3)">
       <use xlink:href="#Helvetica-30"/>
       <use xlink:href="#Helvetica-2e" x="55.615234"/>
       <use xlink:href="#Helvetica-36" x="83.398438"/>
      </g>
     </g>
    </g>
    <g id="ytick_11">
     <g id="line2d_26">
      <g>
       <use xlink:href="#m5038150090" x="867.9" y="115.905611" style="stroke: #000000; stroke-width: 0.8"/>
      </g>
     </g>
     <g id="text_23">
      <!-- 0.8 -->
      <g transform="translate(819.2 126.665767) scale(0.3 -0.3)">
       <use xlink:href="#Helvetica-30"/>
       <use xlink:href="#Helvetica-2e" x="55.615234"/>
       <use xlink:href="#Helvetica-38" x="83.398438"/>
      </g>
     </g>
    </g>
    <g id="ytick_12">
     <g id="line2d_27">
      <g>
       <use xlink:href="#m5038150090" x="867.9" y="17.960156" style="stroke: #000000; stroke-width: 0.8"/>
      </g>
     </g>
     <g id="text_24">
      <!-- 1.0 -->
      <g transform="translate(819.2 28.720312) scale(0.3 -0.3)">
       <use xlink:href="#Helvetica-31"/>
       <use xlink:href="#Helvetica-2e" x="55.615234"/>
       <use xlink:href="#Helvetica-30" x="83.398438"/>
      </g>
     </g>
    </g>
    <g id="text_25">
     <!-- $\langle S_0(A,B)\rangle_B$ -->
     <g transform="translate(807.904687 376.035156) rotate(-90) scale(0.35 -0.35)">
      <defs>
       <path id="DejaVuSans-30" d="M 2034 4250 
Q 1547 4250 1301 3770 
Q 1056 3291 1056 2328 
Q 1056 1369 1301 889 
Q 1547 409 2034 409 
Q 2525 409 2770 889 
Q 3016 1369 3016 2328 
Q 3016 3291 2770 3770 
Q 2525 4250 2034 4250 
z
M 2034 4750 
Q 2819 4750 3233 4129 
Q 3647 3509 3647 2328 
Q 3647 1150 3233 529 
Q 2819 -91 2034 -91 
Q 1250 -91 836 529 
Q 422 1150 422 2328 
Q 422 3509 836 4129 
Q 1250 4750 2034 4750 
z
" transform="scale(0.015625)"/>
      </defs>
      <use xlink:href="#DejaVuSans-27e8" transform="translate(0 0.125)"/>
      <use xlink:href="#DejaVuSans-Oblique-53" transform="translate(39.013672 0.125)"/>
      <use xlink:href="#DejaVuSans-30" transform="translate(102.490234 -16.28125) scale(0.7)"/>
      <use xlink:href="#DejaVuSans-28" transform="translate(149.760742 0.125)"/>
      <use xlink:href="#DejaVuSans-Oblique-41" transform="translate(188.774414 0.125)"/>
      <use xlink:href="#DejaVuSans-2c" transform="translate(257.182617 0.125)"/>
      <use xlink:href="#DejaVuSans-Oblique-42" transform="translate(308.452148 0.125)"/>
      <use xlink:href="#DejaVuSans-29" transform="translate(377.055664 0.125)"/>
      <use xlink:href="#DejaVuSans-27e9" transform="translate(416.069336 0.125)"/>
      <use xlink:href="#DejaVuSans-Oblique-42" transform="translate(456.040039 -16.28125) scale(0.7)"/>
     </g>
    </g>
   </g>
   <g id="line2d_28">
    <path d="M 896.227726 357.401779 
L 1037.866355 287.076953 
L 1179.504985 267.500008 
L 1321.143614 440.674559 
L 1462.782243 494.083894 
" clip-path="url(#p3c0bed8d97)" style="fill: none; stroke: #1f77b4; stroke-width: 1.5; stroke-linecap: square"/>
    <g clip-path="url(#p3c0bed8d97)">
     <use xlink:href="#m4139e2d9c7" x="896.227726" y="357.401779" style="fill: #ffffff; stroke: #1f77b4; stroke-width: 3; stroke-linejoin: miter"/>
     <use xlink:href="#m4139e2d9c7" x="1037.866355" y="287.076953" style="fill: #ffffff; stroke: #1f77b4; stroke-width: 3; stroke-linejoin: miter"/>
     <use xlink:href="#m4139e2d9c7" x="1179.504985" y="267.500008" style="fill: #ffffff; stroke: #1f77b4; stroke-width: 3; stroke-linejoin: miter"/>
     <use xlink:href="#m4139e2d9c7" x="1321.143614" y="440.674559" style="fill: #ffffff; stroke: #1f77b4; stroke-width: 3; stroke-linejoin: miter"/>
     <use xlink:href="#m4139e2d9c7" x="1462.782243" y="494.083894" style="fill: #ffffff; stroke: #1f77b4; stroke-width: 3; stroke-linejoin: miter"/>
    </g>
   </g>
   <g id="line2d_29">
    <path d="M 896.227726 336.958644 
L 1037.866355 323.310941 
L 1179.504985 260.647227 
L 1321.143614 496.659563 
L 1462.782243 437.402496 
" clip-path="url(#p3c0bed8d97)" style="fill: none; stroke: #ff7f0e; stroke-width: 1.5; stroke-linecap: square"/>
    <g clip-path="url(#p3c0bed8d97)">
     <use xlink:href="#m589545ce6e" x="896.227726" y="336.958644" style="fill: #ffffff; stroke: #ff7f0e; stroke-width: 3; stroke-linejoin: miter"/>
     <use xlink:href="#m589545ce6e" x="1037.866355" y="323.310941" style="fill: #ffffff; stroke: #ff7f0e; stroke-width: 3; stroke-linejoin: miter"/>
     <use xlink:href="#m589545ce6e" x="1179.504985" y="260.647227" style="fill: #ffffff; stroke: #ff7f0e; stroke-width: 3; stroke-linejoin: miter"/>
     <use xlink:href="#m589545ce6e" x="1321.143614" y="496.659563" style="fill: #ffffff; stroke: #ff7f0e; stroke-width: 3; stroke-linejoin: miter"/>
     <use xlink:href="#m589545ce6e" x="1462.782243" y="437.402496" style="fill: #ffffff; stroke: #ff7f0e; stroke-width: 3; stroke-linejoin: miter"/>
    </g>
   </g>
   <g id="line2d_30">
    <path d="M 896.227726 316.858006 
L 1037.866355 305.901655 
L 1179.504985 287.580681 
L 1321.143614 433.922804 
L 1462.782243 441.937008 
" clip-path="url(#p3c0bed8d97)" style="fill: none; stroke: #2ca02c; stroke-width: 1.5; stroke-linecap: square"/>
    <g clip-path="url(#p3c0bed8d97)">
     <use xlink:href="#md2cd38e3e6" x="896.227726" y="316.858006" style="fill: #ffffff; stroke: #2ca02c; stroke-width: 3; stroke-linejoin: bevel"/>
     <use xlink:href="#md2cd38e3e6" x="1037.866355" y="305.901655" style="fill: #ffffff; stroke: #2ca02c; stroke-width: 3; stroke-linejoin: bevel"/>
     <use xlink:href="#md2cd38e3e6" x="1179.504985" y="287.580681" style="fill: #ffffff; stroke: #2ca02c; stroke-width: 3; stroke-linejoin: bevel"/>
     <use xlink:href="#md2cd38e3e6" x="1321.143614" y="433.922804" style="fill: #ffffff; stroke: #2ca02c; stroke-width: 3; stroke-linejoin: bevel"/>
     <use xlink:href="#md2cd38e3e6" x="1462.782243" y="441.937008" style="fill: #ffffff; stroke: #2ca02c; stroke-width: 3; stroke-linejoin: bevel"/>
    </g>
   </g>
   <g id="line2d_31">
    <path d="M 896.227726 468.022575 
L 1037.866355 361.993565 
L 1179.504985 276.983242 
L 1321.143614 496.659563 
L 1462.782243 507.687429 
" clip-path="url(#p3c0bed8d97)" style="fill: none; stroke: #d62728; stroke-width: 1.5; stroke-linecap: square"/>
    <g clip-path="url(#p3c0bed8d97)">
     <use xlink:href="#m3c1f6ee81e" x="896.227726" y="468.022575" style="fill: #ffffff; stroke: #d62728; stroke-width: 3; stroke-linejoin: miter"/>
     <use xlink:href="#m3c1f6ee81e" x="1037.866355" y="361.993565" style="fill: #ffffff; stroke: #d62728; stroke-width: 3; stroke-linejoin: miter"/>
     <use xlink:href="#m3c1f6ee81e" x="1179.504985" y="276.983242" style="fill: #ffffff; stroke: #d62728; stroke-width: 3; stroke-linejoin: miter"/>
     <use xlink:href="#m3c1f6ee81e" x="1321.143614" y="496.659563" style="fill: #ffffff; stroke: #d62728; stroke-width: 3; stroke-linejoin: miter"/>
     <use xlink:href="#m3c1f6ee81e" x="1462.782243" y="507.687429" style="fill: #ffffff; stroke: #d62728; stroke-width: 3; stroke-linejoin: miter"/>
    </g>
   </g>
   <g id="line2d_32">
    <path d="M 896.227726 355.490484 
L 1037.866355 305.172894 
L 1179.504985 298.628321 
L 1321.143614 507.687429 
L 1462.782243 507.687429 
" clip-path="url(#p3c0bed8d97)" style="fill: none; stroke: #9467bd; stroke-width: 1.5; stroke-linecap: square"/>
    <g clip-path="url(#p3c0bed8d97)">
     <use xlink:href="#m6ce874a449" x="896.227726" y="355.490484" style="fill: #ffffff; stroke: #9467bd; stroke-width: 3"/>
     <use xlink:href="#m6ce874a449" x="1037.866355" y="305.172894" style="fill: #ffffff; stroke: #9467bd; stroke-width: 3"/>
     <use xlink:href="#m6ce874a449" x="1179.504985" y="298.628321" style="fill: #ffffff; stroke: #9467bd; stroke-width: 3"/>
     <use xlink:href="#m6ce874a449" x="1321.143614" y="507.687429" style="fill: #ffffff; stroke: #9467bd; stroke-width: 3"/>
     <use xlink:href="#m6ce874a449" x="1462.782243" y="507.687429" style="fill: #ffffff; stroke: #9467bd; stroke-width: 3"/>
    </g>
   </g>
   <g id="patch_8">
    <path d="M 867.9 556.660156 
L 867.9 17.960156 
" style="fill: none; stroke: #000000; stroke-width: 0.8; stroke-linejoin: miter; stroke-linecap: square"/>
   </g>
   <g id="patch_9">
    <path d="M 1491.109969 556.660156 
L 1491.109969 17.960156 
" style="fill: none; stroke: #000000; stroke-width: 0.8; stroke-linejoin: miter; stroke-linecap: square"/>
   </g>
   <g id="patch_10">
    <path d="M 867.9 556.660156 
L 1491.109969 556.660156 
" style="fill: none; stroke: #000000; stroke-width: 0.8; stroke-linejoin: miter; stroke-linecap: square"/>
   </g>
   <g id="patch_11">
    <path d="M 867.9 17.960156 
L 1491.109969 17.960156 
" style="fill: none; stroke: #000000; stroke-width: 0.8; stroke-linejoin: miter; stroke-linecap: square"/>
   </g>
   <g id="text_26">
    <!-- (b) -->
    <g transform="translate(899.4 74.824219) scale(0.35 -0.35)">
     <defs>
      <path id="Helvetica-62" d="M 369 4606 
L 916 4606 
L 916 2941 
Q 1100 3181 1356 3307 
Q 1613 3434 1913 3434 
Q 2538 3434 2927 3004 
Q 3316 2575 3316 1738 
Q 3316 944 2931 419 
Q 2547 -106 1866 -106 
Q 1484 -106 1222 78 
Q 1066 188 888 428 
L 888 0 
L 369 0 
L 369 4606 
z
M 1831 391 
Q 2288 391 2514 753 
Q 2741 1116 2741 1709 
Q 2741 2238 2514 2584 
Q 2288 2931 1847 2931 
Q 1463 2931 1173 2647 
Q 884 2363 884 1709 
Q 884 1238 1003 944 
Q 1225 391 1831 391 
z
" transform="scale(0.015625)"/>
     </defs>
     <use xlink:href="#Helvetica-28"/>
     <use xlink:href="#Helvetica-62" x="33.300781"/>
     <use xlink:href="#Helvetica-29" x="88.916016"/>
    </g>
   </g>
  </g>
  <g id="legend_1">
   <g id="patch_12">
    <path d="M 740.419531 704.833594 
L 784.430469 704.833594 
L 784.430469 638.060156 
L 740.419531 638.060156 
z
" style="fill: #ffffff; opacity: 0.8; stroke: #cccccc; stroke-linejoin: miter"/>
   </g>
   <g id="text_27">
    <!-- A -->
    <g transform="translate(752.419531 671.580469) scale(0.3 -0.3)">
     <use xlink:href="#Helvetica-41"/>
    </g>
   </g>
  </g>
  <g id="legend_2">
   <g id="patch_13">
    <path d="M 126.136719 732.607031 
L 1398.713281 732.607031 
L 1398.713281 638.060156 
L 126.136719 638.060156 
z
" style="fill: #ffffff; opacity: 0.8; stroke: #cccccc; stroke-linejoin: miter"/>
   </g>
   <g id="text_28">
    <!-- A -->
    <g transform="translate(752.419531 671.580469) scale(0.3 -0.3)">
     <use xlink:href="#Helvetica-41"/>
    </g>
   </g>
   <g id="line2d_33">
    <path d="M 138.136719 703.853906 
L 168.136719 703.853906 
L 198.136719 703.853906 
" style="fill: none; stroke: #1f77b4; stroke-width: 1.5; stroke-linecap: square"/>
    <g>
     <use xlink:href="#m4139e2d9c7" x="168.136719" y="703.853906" style="fill: #ffffff; stroke: #1f77b4; stroke-width: 3; stroke-linejoin: miter"/>
    </g>
   </g>
   <g id="text_29">
    <!-- Chania -->
    <g transform="translate(222.136719 714.353906) scale(0.3 -0.3)">
     <defs>
      <path id="Helvetica-43" d="M 2422 4716 
Q 3294 4716 3775 4256 
Q 4256 3797 4309 3213 
L 3703 3213 
Q 3600 3656 3292 3915 
Q 2984 4175 2428 4175 
Q 1750 4175 1333 3698 
Q 916 3222 916 2238 
Q 916 1431 1292 929 
Q 1669 428 2416 428 
Q 3103 428 3463 956 
Q 3653 1234 3747 1688 
L 4353 1688 
Q 4272 963 3816 472 
Q 3269 -119 2341 -119 
Q 1541 -119 997 366 
Q 281 1006 281 2344 
Q 281 3359 819 4009 
Q 1400 4716 2422 4716 
z
M 2297 4716 
L 2297 4716 
z
" transform="scale(0.015625)"/>
      <path id="Helvetica-68" d="M 413 4606 
L 975 4606 
L 975 2894 
Q 1175 3147 1334 3250 
Q 1606 3428 2013 3428 
Q 2741 3428 3000 2919 
Q 3141 2641 3141 2147 
L 3141 0 
L 2563 0 
L 2563 2109 
Q 2563 2478 2469 2650 
Q 2316 2925 1894 2925 
Q 1544 2925 1259 2684 
Q 975 2444 975 1775 
L 975 0 
L 413 0 
L 413 4606 
z
" transform="scale(0.015625)"/>
      <path id="Helvetica-6e" d="M 413 3347 
L 947 3347 
L 947 2872 
Q 1184 3166 1450 3294 
Q 1716 3422 2041 3422 
Q 2753 3422 3003 2925 
Q 3141 2653 3141 2147 
L 3141 0 
L 2569 0 
L 2569 2109 
Q 2569 2416 2478 2603 
Q 2328 2916 1934 2916 
Q 1734 2916 1606 2875 
Q 1375 2806 1200 2600 
Q 1059 2434 1017 2257 
Q 975 2081 975 1753 
L 975 0 
L 413 0 
L 413 3347 
z
M 1734 3428 
L 1734 3428 
z
" transform="scale(0.015625)"/>
      <path id="Helvetica-69" d="M 413 3331 
L 984 3331 
L 984 0 
L 413 0 
L 413 3331 
z
M 413 4591 
L 984 4591 
L 984 3953 
L 413 3953 
L 413 4591 
z
" transform="scale(0.015625)"/>
     </defs>
     <use xlink:href="#Helvetica-43"/>
     <use xlink:href="#Helvetica-68" x="72.216797"/>
     <use xlink:href="#Helvetica-61" x="127.832031"/>
     <use xlink:href="#Helvetica-6e" x="183.447266"/>
     <use xlink:href="#Helvetica-69" x="239.0625"/>
     <use xlink:href="#Helvetica-61" x="261.279297"/>
    </g>
   </g>
   <g id="line2d_34">
    <path d="M 377.199219 703.853906 
L 407.199219 703.853906 
L 437.199219 703.853906 
" style="fill: none; stroke: #ff7f0e; stroke-width: 1.5; stroke-linecap: square"/>
    <g>
     <use xlink:href="#m589545ce6e" x="407.199219" y="703.853906" style="fill: #ffffff; stroke: #ff7f0e; stroke-width: 3; stroke-linejoin: miter"/>
    </g>
   </g>
   <g id="text_30">
    <!-- Knossos -->
    <g transform="translate(461.199219 714.353906) scale(0.3 -0.3)">
     <defs>
      <path id="Helvetica-4b" d="M 488 4591 
L 1094 4591 
L 1094 2353 
L 3331 4591 
L 4191 4591 
L 2281 2741 
L 4244 0 
L 3434 0 
L 1828 2303 
L 1094 1600 
L 1094 0 
L 488 0 
L 488 4591 
z
" transform="scale(0.015625)"/>
      <path id="Helvetica-6f" d="M 1741 363 
Q 2300 363 2508 786 
Q 2716 1209 2716 1728 
Q 2716 2197 2566 2491 
Q 2328 2953 1747 2953 
Q 1231 2953 997 2559 
Q 763 2166 763 1609 
Q 763 1075 997 719 
Q 1231 363 1741 363 
z
M 1763 3444 
Q 2409 3444 2856 3012 
Q 3303 2581 3303 1744 
Q 3303 934 2909 406 
Q 2516 -122 1688 -122 
Q 997 -122 590 345 
Q 184 813 184 1600 
Q 184 2444 612 2944 
Q 1041 3444 1763 3444 
z
M 1744 3428 
L 1744 3428 
z
" transform="scale(0.015625)"/>
      <path id="Helvetica-73" d="M 747 1050 
Q 772 769 888 619 
Q 1100 347 1625 347 
Q 1938 347 2175 483 
Q 2413 619 2413 903 
Q 2413 1119 2222 1231 
Q 2100 1300 1741 1391 
L 1294 1503 
Q 866 1609 663 1741 
Q 300 1969 300 2372 
Q 300 2847 642 3140 
Q 984 3434 1563 3434 
Q 2319 3434 2653 2991 
Q 2863 2709 2856 2384 
L 2325 2384 
Q 2309 2575 2191 2731 
Q 1997 2953 1519 2953 
Q 1200 2953 1036 2831 
Q 872 2709 872 2509 
Q 872 2291 1088 2159 
Q 1213 2081 1456 2022 
L 1828 1931 
Q 2434 1784 2641 1647 
Q 2969 1431 2969 969 
Q 2969 522 2630 197 
Q 2291 -128 1597 -128 
Q 850 -128 539 211 
Q 228 550 206 1050 
L 747 1050 
z
M 1578 3428 
L 1578 3428 
z
" transform="scale(0.015625)"/>
     </defs>
     <use xlink:href="#Helvetica-4b"/>
     <use xlink:href="#Helvetica-6e" x="66.699219"/>
     <use xlink:href="#Helvetica-6f" x="122.314453"/>
     <use xlink:href="#Helvetica-73" x="177.929688"/>
     <use xlink:href="#Helvetica-73" x="227.929688"/>
     <use xlink:href="#Helvetica-6f" x="277.929688"/>
     <use xlink:href="#Helvetica-73" x="333.544922"/>
    </g>
   </g>
   <g id="line2d_35">
    <path d="M 636.258594 703.853906 
L 666.258594 703.853906 
L 696.258594 703.853906 
" style="fill: none; stroke: #2ca02c; stroke-width: 1.5; stroke-linecap: square"/>
    <g>
     <use xlink:href="#md2cd38e3e6" x="666.258594" y="703.853906" style="fill: #ffffff; stroke: #2ca02c; stroke-width: 3; stroke-linejoin: bevel"/>
    </g>
   </g>
   <g id="text_31">
    <!-- Kommos -->
    <g transform="translate(720.258594 714.353906) scale(0.3 -0.3)">
     <defs>
      <path id="Helvetica-6d" d="M 413 3347 
L 969 3347 
L 969 2872 
Q 1169 3119 1331 3231 
Q 1609 3422 1963 3422 
Q 2363 3422 2606 3225 
Q 2744 3113 2856 2894 
Q 3044 3163 3297 3292 
Q 3550 3422 3866 3422 
Q 4541 3422 4784 2934 
Q 4916 2672 4916 2228 
L 4916 0 
L 4331 0 
L 4331 2325 
Q 4331 2659 4164 2784 
Q 3997 2909 3756 2909 
Q 3425 2909 3186 2687 
Q 2947 2466 2947 1947 
L 2947 0 
L 2375 0 
L 2375 2184 
Q 2375 2525 2294 2681 
Q 2166 2916 1816 2916 
Q 1497 2916 1236 2669 
Q 975 2422 975 1775 
L 975 0 
L 413 0 
L 413 3347 
z
" transform="scale(0.015625)"/>
     </defs>
     <use xlink:href="#Helvetica-4b"/>
     <use xlink:href="#Helvetica-6f" x="66.699219"/>
     <use xlink:href="#Helvetica-6d" x="122.314453"/>
     <use xlink:href="#Helvetica-6d" x="205.615234"/>
     <use xlink:href="#Helvetica-6f" x="288.916016"/>
     <use xlink:href="#Helvetica-73" x="344.53125"/>
    </g>
   </g>
   <g id="line2d_36">
    <path d="M 898.613281 703.853906 
L 928.613281 703.853906 
L 958.613281 703.853906 
" style="fill: none; stroke: #d62728; stroke-width: 1.5; stroke-linecap: square"/>
    <g>
     <use xlink:href="#m3c1f6ee81e" x="928.613281" y="703.853906" style="fill: #ffffff; stroke: #d62728; stroke-width: 3; stroke-linejoin: miter"/>
    </g>
   </g>
   <g id="text_32">
    <!-- Mochlos -->
    <g transform="translate(982.613281 714.353906) scale(0.3 -0.3)">
     <defs>
      <path id="Helvetica-63" d="M 1703 3444 
Q 2269 3444 2623 3169 
Q 2978 2894 3050 2222 
L 2503 2222 
Q 2453 2531 2275 2736 
Q 2097 2941 1703 2941 
Q 1166 2941 934 2416 
Q 784 2075 784 1575 
Q 784 1072 996 728 
Q 1209 384 1666 384 
Q 2016 384 2220 598 
Q 2425 813 2503 1184 
L 3050 1184 
Q 2956 519 2581 211 
Q 2206 -97 1622 -97 
Q 966 -97 575 383 
Q 184 863 184 1581 
Q 184 2463 612 2953 
Q 1041 3444 1703 3444 
z
M 1616 3428 
L 1616 3428 
z
" transform="scale(0.015625)"/>
      <path id="Helvetica-6c" d="M 428 4591 
L 991 4591 
L 991 0 
L 428 0 
L 428 4591 
z
" transform="scale(0.015625)"/>
     </defs>
     <use xlink:href="#Helvetica-4d"/>
     <use xlink:href="#Helvetica-6f" x="83.300781"/>
     <use xlink:href="#Helvetica-63" x="138.916016"/>
     <use xlink:href="#Helvetica-68" x="188.916016"/>
     <use xlink:href="#Helvetica-6c" x="244.53125"/>
     <use xlink:href="#Helvetica-6f" x="266.748047"/>
     <use xlink:href="#Helvetica-73" x="322.363281"/>
    </g>
   </g>
   <g id="line2d_37">
    <path d="M 1154.316406 703.853906 
L 1184.316406 703.853906 
L 1214.316406 703.853906 
" style="fill: none; stroke: #9467bd; stroke-width: 1.5; stroke-linecap: square"/>
    <g>
     <use xlink:href="#m6ce874a449" x="1184.316406" y="703.853906" style="fill: #ffffff; stroke: #9467bd; stroke-width: 3"/>
    </g>
   </g>
   <g id="text_33">
    <!-- Palaikastro -->
    <g transform="translate(1238.316406 714.353906) scale(0.3 -0.3)">
     <defs>
      <path id="Helvetica-50" d="M 547 4591 
L 2613 4591 
Q 3225 4591 3600 4245 
Q 3975 3900 3975 3275 
Q 3975 2738 3640 2339 
Q 3306 1941 2613 1941 
L 1169 1941 
L 1169 0 
L 547 0 
L 547 4591 
z
M 3347 3272 
Q 3347 3778 2972 3959 
Q 2766 4056 2406 4056 
L 1169 4056 
L 1169 2466 
L 2406 2466 
Q 2825 2466 3086 2644 
Q 3347 2822 3347 3272 
z
" transform="scale(0.015625)"/>
      <path id="Helvetica-6b" d="M 400 4591 
L 941 4591 
L 941 1925 
L 2384 3347 
L 3103 3347 
L 1822 2094 
L 3175 0 
L 2456 0 
L 1413 1688 
L 941 1256 
L 941 0 
L 400 0 
L 400 4591 
z
" transform="scale(0.015625)"/>
      <path id="Helvetica-74" d="M 525 4281 
L 1094 4281 
L 1094 3347 
L 1628 3347 
L 1628 2888 
L 1094 2888 
L 1094 703 
Q 1094 528 1213 469 
Q 1278 434 1431 434 
Q 1472 434 1519 436 
Q 1566 438 1628 444 
L 1628 0 
Q 1531 -28 1426 -40 
Q 1322 -53 1200 -53 
Q 806 -53 665 148 
Q 525 350 525 672 
L 525 2888 
L 72 2888 
L 72 3347 
L 525 3347 
L 525 4281 
z
" transform="scale(0.015625)"/>
      <path id="Helvetica-72" d="M 428 3347 
L 963 3347 
L 963 2769 
Q 1028 2938 1284 3180 
Q 1541 3422 1875 3422 
Q 1891 3422 1928 3419 
Q 1966 3416 2056 3406 
L 2056 2813 
Q 2006 2822 1964 2825 
Q 1922 2828 1872 2828 
Q 1447 2828 1219 2554 
Q 991 2281 991 1925 
L 991 0 
L 428 0 
L 428 3347 
z
" transform="scale(0.015625)"/>
     </defs>
     <use xlink:href="#Helvetica-50"/>
     <use xlink:href="#Helvetica-61" x="66.699219"/>
     <use xlink:href="#Helvetica-6c" x="122.314453"/>
     <use xlink:href="#Helvetica-61" x="144.53125"/>
     <use xlink:href="#Helvetica-69" x="200.146484"/>
     <use xlink:href="#Helvetica-6b" x="222.363281"/>
     <use xlink:href="#Helvetica-61" x="272.363281"/>
     <use xlink:href="#Helvetica-73" x="327.978516"/>
     <use xlink:href="#Helvetica-74" x="377.978516"/>
     <use xlink:href="#Helvetica-72" x="405.761719"/>
     <use xlink:href="#Helvetica-6f" x="439.0625"/>
    </g>
   </g>
  </g>
 </g>
 <defs>
  <clipPath id="pa478702bca">
   <rect x="92.45" y="17.960156" width="623.209969" height="538.7"/>
  </clipPath>
  <clipPath id="p3c0bed8d97">
   <rect x="867.9" y="17.960156" width="623.209969" height="538.7"/>
  </clipPath>
 </defs>
</svg>
