<?xml version="1.0" encoding="utf-8" standalone="no"?>
<!DOCTYPE svg PUBLIC "-//W3C//DTD SVG 1.1//EN"
  "http://www.w3.org/Graphics/SVG/1.1/DTD/svg11.dtd">
<svg xmlns:xlink="http://www.w3.org/1999/xlink" width="576pt" height="432pt" viewBox="0 0 576 432" xmlns="http://www.w3.org/2000/svg" version="1.1">
 <metadata>
  <rdf:RDF xmlns:dc="http://purl.org/dc/elements/1.1/" xmlns:cc="http://creativecommons.org/ns#" xmlns:rdf="http://www.w3.org/1999/02/22-rdf-syntax-ns#">
   <cc:Work>
    <dc:type rdf:resource="http://purl.org/dc/dcmitype/StillImage"/>
    <dc:date>2023-08-12T17:38:14.584685</dc:date>
    <dc:format>image/svg+xml</dc:format>
    <dc:creator>
     <cc:Agent>
      <dc:title>Matplotlib v3.7.1, https://matplotlib.org/</dc:title>
     </cc:Agent>
    </dc:creator>
   </cc:Work>
  </rdf:RDF>
 </metadata>
 <defs>
  <style type="text/css">*{stroke-linejoin: round; stroke-linecap: butt}</style>
 </defs>
 <g id="figure_1">
  <g id="patch_1">
   <path d="M 0 432 
L 576 432 
L 576 0 
L 0 0 
z
" style="fill: #ffffff"/>
  </g>
  <g id="axes_1">
   <g id="patch_2">
    <path d="M 72 378 
L 518.4 378 
L 518.4 51.84 
L 72 51.84 
z
" style="fill: #ffffff"/>
   </g>
   <g id="matplotlib.axis_1">
    <g id="xtick_1">
     <g id="line2d_1">
      <defs>
       <path id="maadfb8dbb0" d="M 0 0 
L 0 3.5 
" style="stroke: #000000; stroke-width: 0.8"/>
      </defs>
      <g>
       <use xlink:href="#maadfb8dbb0" x="110.73719" y="378" style="stroke: #000000; stroke-width: 0.8"/>
      </g>
     </g>
     <g id="text_1">
      <!-- LM II - -->
      <g transform="translate(83.679534 398.677188) scale(0.18 -0.18)">
       <defs>
        <path id="DejaVuSans-4c" d="M 628 4666 
L 1259 4666 
L 1259 531 
L 3531 531 
L 3531 0 
L 628 0 
L 628 4666 
z
" transform="scale(0.015625)"/>
        <path id="DejaVuSans-4d" d="M 628 4666 
L 1569 4666 
L 2759 1491 
L 3956 4666 
L 4897 4666 
L 4897 0 
L 4281 0 
L 4281 4097 
L 3078 897 
L 2444 897 
L 1241 4097 
L 1241 0 
L 628 0 
L 628 4666 
z
" transform="scale(0.015625)"/>
        <path id="DejaVuSans-20" transform="scale(0.015625)"/>
        <path id="DejaVuSans-49" d="M 628 4666 
L 1259 4666 
L 1259 0 
L 628 0 
L 628 4666 
z
" transform="scale(0.015625)"/>
        <path id="DejaVuSans-2d" d="M 313 2009 
L 1997 2009 
L 1997 1497 
L 313 1497 
L 313 2009 
z
" transform="scale(0.015625)"/>
       </defs>
       <use xlink:href="#DejaVuSans-4c"/>
       <use xlink:href="#DejaVuSans-4d" x="55.712891"/>
       <use xlink:href="#DejaVuSans-20" x="141.992188"/>
       <use xlink:href="#DejaVuSans-49" x="173.779297"/>
       <use xlink:href="#DejaVuSans-49" x="203.271484"/>
       <use xlink:href="#DejaVuSans-20" x="232.763672"/>
       <use xlink:href="#DejaVuSans-2d" x="264.550781"/>
      </g>
      <!--  LM IIIA1 -->
      <g transform="translate(72.388753 418.83325) scale(0.18 -0.18)">
       <defs>
        <path id="DejaVuSans-41" d="M 2188 4044 
L 1331 1722 
L 3047 1722 
L 2188 4044 
z
M 1831 4666 
L 2547 4666 
L 4325 0 
L 3669 0 
L 3244 1197 
L 1141 1197 
L 716 0 
L 50 0 
L 1831 4666 
z
" transform="scale(0.015625)"/>
        <path id="DejaVuSans-31" d="M 794 531 
L 1825 531 
L 1825 4091 
L 703 3866 
L 703 4441 
L 1819 4666 
L 2450 4666 
L 2450 531 
L 3481 531 
L 3481 0 
L 794 0 
L 794 531 
z
" transform="scale(0.015625)"/>
       </defs>
       <use xlink:href="#DejaVuSans-20"/>
       <use xlink:href="#DejaVuSans-4c" x="31.787109"/>
       <use xlink:href="#DejaVuSans-4d" x="87.5"/>
       <use xlink:href="#DejaVuSans-20" x="173.779297"/>
       <use xlink:href="#DejaVuSans-49" x="205.566406"/>
       <use xlink:href="#DejaVuSans-49" x="235.058594"/>
       <use xlink:href="#DejaVuSans-49" x="264.550781"/>
       <use xlink:href="#DejaVuSans-41" x="294.042969"/>
       <use xlink:href="#DejaVuSans-31" x="362.451172"/>
      </g>
     </g>
    </g>
    <g id="xtick_2">
     <g id="line2d_2">
      <g>
       <use xlink:href="#maadfb8dbb0" x="233.712397" y="378" style="stroke: #000000; stroke-width: 0.8"/>
      </g>
     </g>
     <g id="text_2">
      <!-- LM IIIA1 - -->
      <g transform="translate(192.116928 398.677188) scale(0.18 -0.18)">
       <use xlink:href="#DejaVuSans-4c"/>
       <use xlink:href="#DejaVuSans-4d" x="55.712891"/>
       <use xlink:href="#DejaVuSans-20" x="141.992188"/>
       <use xlink:href="#DejaVuSans-49" x="173.779297"/>
       <use xlink:href="#DejaVuSans-49" x="203.271484"/>
       <use xlink:href="#DejaVuSans-49" x="232.763672"/>
       <use xlink:href="#DejaVuSans-41" x="262.255859"/>
       <use xlink:href="#DejaVuSans-31" x="330.664062"/>
       <use xlink:href="#DejaVuSans-20" x="394.287109"/>
       <use xlink:href="#DejaVuSans-2d" x="426.074219"/>
      </g>
      <!--  LM IIIA2 -->
      <g transform="translate(195.363959 418.83325) scale(0.18 -0.18)">
       <defs>
        <path id="DejaVuSans-32" d="M 1228 531 
L 3431 531 
L 3431 0 
L 469 0 
L 469 531 
Q 828 903 1448 1529 
Q 2069 2156 2228 2338 
Q 2531 2678 2651 2914 
Q 2772 3150 2772 3378 
Q 2772 3750 2511 3984 
Q 2250 4219 1831 4219 
Q 1534 4219 1204 4116 
Q 875 4013 500 3803 
L 500 4441 
Q 881 4594 1212 4672 
Q 1544 4750 1819 4750 
Q 2544 4750 2975 4387 
Q 3406 4025 3406 3419 
Q 3406 3131 3298 2873 
Q 3191 2616 2906 2266 
Q 2828 2175 2409 1742 
Q 1991 1309 1228 531 
z
" transform="scale(0.015625)"/>
       </defs>
       <use xlink:href="#DejaVuSans-20"/>
       <use xlink:href="#DejaVuSans-4c" x="31.787109"/>
       <use xlink:href="#DejaVuSans-4d" x="87.5"/>
       <use xlink:href="#DejaVuSans-20" x="173.779297"/>
       <use xlink:href="#DejaVuSans-49" x="205.566406"/>
       <use xlink:href="#DejaVuSans-49" x="235.058594"/>
       <use xlink:href="#DejaVuSans-49" x="264.550781"/>
       <use xlink:href="#DejaVuSans-41" x="294.042969"/>
       <use xlink:href="#DejaVuSans-32" x="362.451172"/>
      </g>
     </g>
    </g>
    <g id="xtick_3">
     <g id="line2d_3">
      <g>
       <use xlink:href="#maadfb8dbb0" x="356.687603" y="378" style="stroke: #000000; stroke-width: 0.8"/>
      </g>
     </g>
     <g id="text_3">
      <!-- LM IIIA2 - -->
      <g transform="translate(315.092135 398.677188) scale(0.18 -0.18)">
       <use xlink:href="#DejaVuSans-4c"/>
       <use xlink:href="#DejaVuSans-4d" x="55.712891"/>
       <use xlink:href="#DejaVuSans-20" x="141.992188"/>
       <use xlink:href="#DejaVuSans-49" x="173.779297"/>
       <use xlink:href="#DejaVuSans-49" x="203.271484"/>
       <use xlink:href="#DejaVuSans-49" x="232.763672"/>
       <use xlink:href="#DejaVuSans-41" x="262.255859"/>
       <use xlink:href="#DejaVuSans-32" x="330.664062"/>
       <use xlink:href="#DejaVuSans-20" x="394.287109"/>
       <use xlink:href="#DejaVuSans-2d" x="426.074219"/>
      </g>
      <!--  LM IIIB1 -->
      <g transform="translate(318.320885 418.83325) scale(0.18 -0.18)">
       <defs>
        <path id="DejaVuSans-42" d="M 1259 2228 
L 1259 519 
L 2272 519 
Q 2781 519 3026 730 
Q 3272 941 3272 1375 
Q 3272 1813 3026 2020 
Q 2781 2228 2272 2228 
L 1259 2228 
z
M 1259 4147 
L 1259 2741 
L 2194 2741 
Q 2656 2741 2882 2914 
Q 3109 3088 3109 3444 
Q 3109 3797 2882 3972 
Q 2656 4147 2194 4147 
L 1259 4147 
z
M 628 4666 
L 2241 4666 
Q 2963 4666 3353 4366 
Q 3744 4066 3744 3513 
Q 3744 3084 3544 2831 
Q 3344 2578 2956 2516 
Q 3422 2416 3680 2098 
Q 3938 1781 3938 1306 
Q 3938 681 3513 340 
Q 3088 0 2303 0 
L 628 0 
L 628 4666 
z
" transform="scale(0.015625)"/>
       </defs>
       <use xlink:href="#DejaVuSans-20"/>
       <use xlink:href="#DejaVuSans-4c" x="31.787109"/>
       <use xlink:href="#DejaVuSans-4d" x="87.5"/>
       <use xlink:href="#DejaVuSans-20" x="173.779297"/>
       <use xlink:href="#DejaVuSans-49" x="205.566406"/>
       <use xlink:href="#DejaVuSans-49" x="235.058594"/>
       <use xlink:href="#DejaVuSans-49" x="264.550781"/>
       <use xlink:href="#DejaVuSans-42" x="294.042969"/>
       <use xlink:href="#DejaVuSans-31" x="362.646484"/>
      </g>
     </g>
    </g>
    <g id="xtick_4">
     <g id="line2d_4">
      <g>
       <use xlink:href="#maadfb8dbb0" x="479.66281" y="378" style="stroke: #000000; stroke-width: 0.8"/>
      </g>
     </g>
     <g id="text_4">
      <!-- LM IIIB1 - -->
      <g transform="translate(438.04906 398.677188) scale(0.18 -0.18)">
       <use xlink:href="#DejaVuSans-4c"/>
       <use xlink:href="#DejaVuSans-4d" x="55.712891"/>
       <use xlink:href="#DejaVuSans-20" x="141.992188"/>
       <use xlink:href="#DejaVuSans-49" x="173.779297"/>
       <use xlink:href="#DejaVuSans-49" x="203.271484"/>
       <use xlink:href="#DejaVuSans-49" x="232.763672"/>
       <use xlink:href="#DejaVuSans-42" x="262.255859"/>
       <use xlink:href="#DejaVuSans-31" x="330.859375"/>
       <use xlink:href="#DejaVuSans-20" x="394.482422"/>
       <use xlink:href="#DejaVuSans-2d" x="426.269531"/>
      </g>
      <!--  LM IIIB2 -->
      <g transform="translate(441.296091 418.83325) scale(0.18 -0.18)">
       <use xlink:href="#DejaVuSans-20"/>
       <use xlink:href="#DejaVuSans-4c" x="31.787109"/>
       <use xlink:href="#DejaVuSans-4d" x="87.5"/>
       <use xlink:href="#DejaVuSans-20" x="173.779297"/>
       <use xlink:href="#DejaVuSans-49" x="205.566406"/>
       <use xlink:href="#DejaVuSans-49" x="235.058594"/>
       <use xlink:href="#DejaVuSans-49" x="264.550781"/>
       <use xlink:href="#DejaVuSans-42" x="294.042969"/>
       <use xlink:href="#DejaVuSans-32" x="362.646484"/>
      </g>
     </g>
    </g>
   </g>
   <g id="matplotlib.axis_2">
    <g id="ytick_1">
     <g id="line2d_5">
      <path d="M 72 330.558545 
L 518.4 330.558545 
" clip-path="url(#p9ac5f65fec)" style="fill: none; stroke: #b0b0b0; stroke-width: 0.8; stroke-linecap: square"/>
     </g>
     <g id="line2d_6">
      <defs>
       <path id="mde0da17196" d="M 0 0 
L -3.5 0 
" style="stroke: #000000; stroke-width: 0.8"/>
      </defs>
      <g>
       <use xlink:href="#mde0da17196" x="72" y="330.558545" style="stroke: #000000; stroke-width: 0.8"/>
      </g>
     </g>
     <g id="text_5">
      <!-- 0.0 -->
      <g transform="translate(36.374375 337.397139) scale(0.18 -0.18)">
       <defs>
        <path id="DejaVuSans-30" d="M 2034 4250 
Q 1547 4250 1301 3770 
Q 1056 3291 1056 2328 
Q 1056 1369 1301 889 
Q 1547 409 2034 409 
Q 2525 409 2770 889 
Q 3016 1369 3016 2328 
Q 3016 3291 2770 3770 
Q 2525 4250 2034 4250 
z
M 2034 4750 
Q 2819 4750 3233 4129 
Q 3647 3509 3647 2328 
Q 3647 1150 3233 529 
Q 2819 -91 2034 -91 
Q 1250 -91 836 529 
Q 422 1150 422 2328 
Q 422 3509 836 4129 
Q 1250 4750 2034 4750 
z
" transform="scale(0.015625)"/>
        <path id="DejaVuSans-2e" d="M 684 794 
L 1344 794 
L 1344 0 
L 684 0 
L 684 794 
z
" transform="scale(0.015625)"/>
       </defs>
       <use xlink:href="#DejaVuSans-30"/>
       <use xlink:href="#DejaVuSans-2e" x="63.623047"/>
       <use xlink:href="#DejaVuSans-30" x="95.410156"/>
      </g>
     </g>
    </g>
    <g id="ytick_2">
     <g id="line2d_7">
      <path d="M 72 271.256727 
L 518.4 271.256727 
" clip-path="url(#p9ac5f65fec)" style="fill: none; stroke: #b0b0b0; stroke-width: 0.8; stroke-linecap: square"/>
     </g>
     <g id="line2d_8">
      <g>
       <use xlink:href="#mde0da17196" x="72" y="271.256727" style="stroke: #000000; stroke-width: 0.8"/>
      </g>
     </g>
     <g id="text_6">
      <!-- 0.2 -->
      <g transform="translate(36.374375 278.095321) scale(0.18 -0.18)">
       <use xlink:href="#DejaVuSans-30"/>
       <use xlink:href="#DejaVuSans-2e" x="63.623047"/>
       <use xlink:href="#DejaVuSans-32" x="95.410156"/>
      </g>
     </g>
    </g>
    <g id="ytick_3">
     <g id="line2d_9">
      <path d="M 72 211.954909 
L 518.4 211.954909 
" clip-path="url(#p9ac5f65fec)" style="fill: none; stroke: #b0b0b0; stroke-width: 0.8; stroke-linecap: square"/>
     </g>
     <g id="line2d_10">
      <g>
       <use xlink:href="#mde0da17196" x="72" y="211.954909" style="stroke: #000000; stroke-width: 0.8"/>
      </g>
     </g>
     <g id="text_7">
      <!-- 0.4 -->
      <g transform="translate(36.374375 218.793503) scale(0.18 -0.18)">
       <defs>
        <path id="DejaVuSans-34" d="M 2419 4116 
L 825 1625 
L 2419 1625 
L 2419 4116 
z
M 2253 4666 
L 3047 4666 
L 3047 1625 
L 3713 1625 
L 3713 1100 
L 3047 1100 
L 3047 0 
L 2419 0 
L 2419 1100 
L 313 1100 
L 313 1709 
L 2253 4666 
z
" transform="scale(0.015625)"/>
       </defs>
       <use xlink:href="#DejaVuSans-30"/>
       <use xlink:href="#DejaVuSans-2e" x="63.623047"/>
       <use xlink:href="#DejaVuSans-34" x="95.410156"/>
      </g>
     </g>
    </g>
    <g id="ytick_4">
     <g id="line2d_11">
      <path d="M 72 152.653091 
L 518.4 152.653091 
" clip-path="url(#p9ac5f65fec)" style="fill: none; stroke: #b0b0b0; stroke-width: 0.8; stroke-linecap: square"/>
     </g>
     <g id="line2d_12">
      <g>
       <use xlink:href="#mde0da17196" x="72" y="152.653091" style="stroke: #000000; stroke-width: 0.8"/>
      </g>
     </g>
     <g id="text_8">
      <!-- 0.6 -->
      <g transform="translate(36.374375 159.491685) scale(0.18 -0.18)">
       <defs>
        <path id="DejaVuSans-36" d="M 2113 2584 
Q 1688 2584 1439 2293 
Q 1191 2003 1191 1497 
Q 1191 994 1439 701 
Q 1688 409 2113 409 
Q 2538 409 2786 701 
Q 3034 994 3034 1497 
Q 3034 2003 2786 2293 
Q 2538 2584 2113 2584 
z
M 3366 4563 
L 3366 3988 
Q 3128 4100 2886 4159 
Q 2644 4219 2406 4219 
Q 1781 4219 1451 3797 
Q 1122 3375 1075 2522 
Q 1259 2794 1537 2939 
Q 1816 3084 2150 3084 
Q 2853 3084 3261 2657 
Q 3669 2231 3669 1497 
Q 3669 778 3244 343 
Q 2819 -91 2113 -91 
Q 1303 -91 875 529 
Q 447 1150 447 2328 
Q 447 3434 972 4092 
Q 1497 4750 2381 4750 
Q 2619 4750 2861 4703 
Q 3103 4656 3366 4563 
z
" transform="scale(0.015625)"/>
       </defs>
       <use xlink:href="#DejaVuSans-30"/>
       <use xlink:href="#DejaVuSans-2e" x="63.623047"/>
       <use xlink:href="#DejaVuSans-36" x="95.410156"/>
      </g>
     </g>
    </g>
    <g id="ytick_5">
     <g id="line2d_13">
      <path d="M 72 93.351273 
L 518.4 93.351273 
" clip-path="url(#p9ac5f65fec)" style="fill: none; stroke: #b0b0b0; stroke-width: 0.8; stroke-linecap: square"/>
     </g>
     <g id="line2d_14">
      <g>
       <use xlink:href="#mde0da17196" x="72" y="93.351273" style="stroke: #000000; stroke-width: 0.8"/>
      </g>
     </g>
     <g id="text_9">
      <!-- 0.8 -->
      <g transform="translate(36.374375 100.189866) scale(0.18 -0.18)">
       <defs>
        <path id="DejaVuSans-38" d="M 2034 2216 
Q 1584 2216 1326 1975 
Q 1069 1734 1069 1313 
Q 1069 891 1326 650 
Q 1584 409 2034 409 
Q 2484 409 2743 651 
Q 3003 894 3003 1313 
Q 3003 1734 2745 1975 
Q 2488 2216 2034 2216 
z
M 1403 2484 
Q 997 2584 770 2862 
Q 544 3141 544 3541 
Q 544 4100 942 4425 
Q 1341 4750 2034 4750 
Q 2731 4750 3128 4425 
Q 3525 4100 3525 3541 
Q 3525 3141 3298 2862 
Q 3072 2584 2669 2484 
Q 3125 2378 3379 2068 
Q 3634 1759 3634 1313 
Q 3634 634 3220 271 
Q 2806 -91 2034 -91 
Q 1263 -91 848 271 
Q 434 634 434 1313 
Q 434 1759 690 2068 
Q 947 2378 1403 2484 
z
M 1172 3481 
Q 1172 3119 1398 2916 
Q 1625 2713 2034 2713 
Q 2441 2713 2670 2916 
Q 2900 3119 2900 3481 
Q 2900 3844 2670 4047 
Q 2441 4250 2034 4250 
Q 1625 4250 1398 4047 
Q 1172 3844 1172 3481 
z
" transform="scale(0.015625)"/>
       </defs>
       <use xlink:href="#DejaVuSans-30"/>
       <use xlink:href="#DejaVuSans-2e" x="63.623047"/>
       <use xlink:href="#DejaVuSans-38" x="95.410156"/>
      </g>
     </g>
    </g>
   </g>
   <g id="LineCollection_1">
    <path d="M 92.290909 271.256727 
L 92.290909 170.443636 
" clip-path="url(#p9ac5f65fec)" style="fill: none; stroke: #440154; stroke-width: 1.5"/>
    <path d="M 215.266116 220.850182 
L 215.266116 131.897455 
" clip-path="url(#p9ac5f65fec)" style="fill: none; stroke: #440154; stroke-width: 1.5"/>
    <path d="M 338.241322 179.338909 
L 338.241322 102.246545 
" clip-path="url(#p9ac5f65fec)" style="fill: none; stroke: #440154; stroke-width: 1.5"/>
    <path d="M 461.216529 158.583273 
L 461.216529 75.560727 
" clip-path="url(#p9ac5f65fec)" style="fill: none; stroke: #440154; stroke-width: 1.5"/>
   </g>
   <g id="line2d_15">
    <defs>
     <path id="m66d7430191" d="M 5 0 
L -5 -0 
" style="stroke: #440154"/>
    </defs>
    <g clip-path="url(#p9ac5f65fec)">
     <use xlink:href="#m66d7430191" x="92.290909" y="271.256727" style="fill: #440154; stroke: #440154"/>
     <use xlink:href="#m66d7430191" x="215.266116" y="220.850182" style="fill: #440154; stroke: #440154"/>
     <use xlink:href="#m66d7430191" x="338.241322" y="179.338909" style="fill: #440154; stroke: #440154"/>
     <use xlink:href="#m66d7430191" x="461.216529" y="158.583273" style="fill: #440154; stroke: #440154"/>
    </g>
   </g>
   <g id="line2d_16">
    <g clip-path="url(#p9ac5f65fec)">
     <use xlink:href="#m66d7430191" x="92.290909" y="170.443636" style="fill: #440154; stroke: #440154"/>
     <use xlink:href="#m66d7430191" x="215.266116" y="131.897455" style="fill: #440154; stroke: #440154"/>
     <use xlink:href="#m66d7430191" x="338.241322" y="102.246545" style="fill: #440154; stroke: #440154"/>
     <use xlink:href="#m66d7430191" x="461.216529" y="75.560727" style="fill: #440154; stroke: #440154"/>
    </g>
   </g>
   <g id="LineCollection_2">
    <path d="M 104.58843 229.745455 
L 104.58843 158.583273 
" clip-path="url(#p9ac5f65fec)" style="fill: none; stroke: #31688e; stroke-width: 1.5"/>
    <path d="M 227.563636 191.199273 
L 227.563636 125.967273 
" clip-path="url(#p9ac5f65fec)" style="fill: none; stroke: #31688e; stroke-width: 1.5"/>
    <path d="M 350.538843 167.478545 
L 350.538843 96.316364 
" clip-path="url(#p9ac5f65fec)" style="fill: none; stroke: #31688e; stroke-width: 1.5"/>
    <path d="M 473.51405 161.548364 
L 473.51405 66.665455 
" clip-path="url(#p9ac5f65fec)" style="fill: none; stroke: #31688e; stroke-width: 1.5"/>
   </g>
   <g id="line2d_17">
    <defs>
     <path id="m0d2bd9804d" d="M 5 0 
L -5 -0 
" style="stroke: #31688e"/>
    </defs>
    <g clip-path="url(#p9ac5f65fec)">
     <use xlink:href="#m0d2bd9804d" x="104.58843" y="229.745455" style="fill: #31688e; stroke: #31688e"/>
     <use xlink:href="#m0d2bd9804d" x="227.563636" y="191.199273" style="fill: #31688e; stroke: #31688e"/>
     <use xlink:href="#m0d2bd9804d" x="350.538843" y="167.478545" style="fill: #31688e; stroke: #31688e"/>
     <use xlink:href="#m0d2bd9804d" x="473.51405" y="161.548364" style="fill: #31688e; stroke: #31688e"/>
    </g>
   </g>
   <g id="line2d_18">
    <g clip-path="url(#p9ac5f65fec)">
     <use xlink:href="#m0d2bd9804d" x="104.58843" y="158.583273" style="fill: #31688e; stroke: #31688e"/>
     <use xlink:href="#m0d2bd9804d" x="227.563636" y="125.967273" style="fill: #31688e; stroke: #31688e"/>
     <use xlink:href="#m0d2bd9804d" x="350.538843" y="96.316364" style="fill: #31688e; stroke: #31688e"/>
     <use xlink:href="#m0d2bd9804d" x="473.51405" y="66.665455" style="fill: #31688e; stroke: #31688e"/>
    </g>
   </g>
   <g id="LineCollection_3">
    <path d="M 116.88595 333.523636 
L 116.88595 197.129455 
" clip-path="url(#p9ac5f65fec)" style="fill: none; stroke: #35b779; stroke-width: 1.5"/>
    <path d="M 239.861157 312.768 
L 239.861157 158.583273 
" clip-path="url(#p9ac5f65fec)" style="fill: none; stroke: #35b779; stroke-width: 1.5"/>
    <path d="M 362.836364 297.942545 
L 362.836364 120.037091 
" clip-path="url(#p9ac5f65fec)" style="fill: none; stroke: #35b779; stroke-width: 1.5"/>
    <path d="M 485.81157 300.907636 
L 485.81157 93.351273 
" clip-path="url(#p9ac5f65fec)" style="fill: none; stroke: #35b779; stroke-width: 1.5"/>
   </g>
   <g id="line2d_19">
    <defs>
     <path id="mba6360c916" d="M 5 0 
L -5 -0 
" style="stroke: #35b779"/>
    </defs>
    <g clip-path="url(#p9ac5f65fec)">
     <use xlink:href="#mba6360c916" x="116.88595" y="333.523636" style="fill: #35b779; stroke: #35b779"/>
     <use xlink:href="#mba6360c916" x="239.861157" y="312.768" style="fill: #35b779; stroke: #35b779"/>
     <use xlink:href="#mba6360c916" x="362.836364" y="297.942545" style="fill: #35b779; stroke: #35b779"/>
     <use xlink:href="#mba6360c916" x="485.81157" y="300.907636" style="fill: #35b779; stroke: #35b779"/>
    </g>
   </g>
   <g id="line2d_20">
    <g clip-path="url(#p9ac5f65fec)">
     <use xlink:href="#mba6360c916" x="116.88595" y="197.129455" style="fill: #35b779; stroke: #35b779"/>
     <use xlink:href="#mba6360c916" x="239.861157" y="158.583273" style="fill: #35b779; stroke: #35b779"/>
     <use xlink:href="#mba6360c916" x="362.836364" y="120.037091" style="fill: #35b779; stroke: #35b779"/>
     <use xlink:href="#mba6360c916" x="485.81157" y="93.351273" style="fill: #35b779; stroke: #35b779"/>
    </g>
   </g>
   <g id="LineCollection_4">
    <path d="M 129.183471 360.209455 
L 129.183471 265.326545 
" clip-path="url(#p9ac5f65fec)" style="fill: none; stroke: #fde725; stroke-width: 1.5"/>
    <path d="M 252.158678 357.244364 
L 252.158678 244.570909 
" clip-path="url(#p9ac5f65fec)" style="fill: none; stroke: #fde725; stroke-width: 1.5"/>
    <path d="M 375.133884 357.244364 
L 375.133884 220.850182 
" clip-path="url(#p9ac5f65fec)" style="fill: none; stroke: #fde725; stroke-width: 1.5"/>
    <path d="M 498.109091 363.174545 
L 498.109091 208.989818 
" clip-path="url(#p9ac5f65fec)" style="fill: none; stroke: #fde725; stroke-width: 1.5"/>
   </g>
   <g id="line2d_21">
    <defs>
     <path id="m97dbd2c8fc" d="M 5 0 
L -5 -0 
" style="stroke: #fde725"/>
    </defs>
    <g clip-path="url(#p9ac5f65fec)">
     <use xlink:href="#m97dbd2c8fc" x="129.183471" y="360.209455" style="fill: #fde725; stroke: #fde725"/>
     <use xlink:href="#m97dbd2c8fc" x="252.158678" y="357.244364" style="fill: #fde725; stroke: #fde725"/>
     <use xlink:href="#m97dbd2c8fc" x="375.133884" y="357.244364" style="fill: #fde725; stroke: #fde725"/>
     <use xlink:href="#m97dbd2c8fc" x="498.109091" y="363.174545" style="fill: #fde725; stroke: #fde725"/>
    </g>
   </g>
   <g id="line2d_22">
    <g clip-path="url(#p9ac5f65fec)">
     <use xlink:href="#m97dbd2c8fc" x="129.183471" y="265.326545" style="fill: #fde725; stroke: #fde725"/>
     <use xlink:href="#m97dbd2c8fc" x="252.158678" y="244.570909" style="fill: #fde725; stroke: #fde725"/>
     <use xlink:href="#m97dbd2c8fc" x="375.133884" y="220.850182" style="fill: #fde725; stroke: #fde725"/>
     <use xlink:href="#m97dbd2c8fc" x="498.109091" y="208.989818" style="fill: #fde725; stroke: #fde725"/>
    </g>
   </g>
   <g id="line2d_23">
    <path d="M 92.290909 220.850182 
L 215.266116 176.373818 
L 338.241322 140.792727 
L 461.216529 117.072 
" clip-path="url(#p9ac5f65fec)" style="fill: none; stroke: #440154; stroke-width: 1.5; stroke-linecap: square"/>
    <defs>
     <path id="m3cf9e12749" d="M 0 6 
C 1.591219 6 3.117479 5.367802 4.242641 4.242641 
C 5.367802 3.117479 6 1.591219 6 0 
C 6 -1.591219 5.367802 -3.117479 4.242641 -4.242641 
C 3.117479 -5.367802 1.591219 -6 0 -6 
C -1.591219 -6 -3.117479 -5.367802 -4.242641 -4.242641 
C -5.367802 -3.117479 -6 -1.591219 -6 0 
C -6 1.591219 -5.367802 3.117479 -4.242641 4.242641 
C -3.117479 5.367802 -1.591219 6 0 6 
z
" style="stroke: #440154"/>
    </defs>
    <g clip-path="url(#p9ac5f65fec)">
     <use xlink:href="#m3cf9e12749" x="92.290909" y="220.850182" style="fill: #440154; stroke: #440154"/>
     <use xlink:href="#m3cf9e12749" x="215.266116" y="176.373818" style="fill: #440154; stroke: #440154"/>
     <use xlink:href="#m3cf9e12749" x="338.241322" y="140.792727" style="fill: #440154; stroke: #440154"/>
     <use xlink:href="#m3cf9e12749" x="461.216529" y="117.072" style="fill: #440154; stroke: #440154"/>
    </g>
   </g>
   <g id="line2d_24">
    <path d="M 104.58843 194.164364 
L 227.563636 158.583273 
L 350.538843 131.897455 
L 473.51405 114.106909 
" clip-path="url(#p9ac5f65fec)" style="fill: none; stroke: #31688e; stroke-width: 1.5; stroke-linecap: square"/>
    <defs>
     <path id="m2623e7f317" d="M 0 6 
C 1.591219 6 3.117479 5.367802 4.242641 4.242641 
C 5.367802 3.117479 6 1.591219 6 0 
C 6 -1.591219 5.367802 -3.117479 4.242641 -4.242641 
C 3.117479 -5.367802 1.591219 -6 0 -6 
C -1.591219 -6 -3.117479 -5.367802 -4.242641 -4.242641 
C -5.367802 -3.117479 -6 -1.591219 -6 0 
C -6 1.591219 -5.367802 3.117479 -4.242641 4.242641 
C -3.117479 5.367802 -1.591219 6 0 6 
z
" style="stroke: #31688e"/>
    </defs>
    <g clip-path="url(#p9ac5f65fec)">
     <use xlink:href="#m2623e7f317" x="104.58843" y="194.164364" style="fill: #31688e; stroke: #31688e"/>
     <use xlink:href="#m2623e7f317" x="227.563636" y="158.583273" style="fill: #31688e; stroke: #31688e"/>
     <use xlink:href="#m2623e7f317" x="350.538843" y="131.897455" style="fill: #31688e; stroke: #31688e"/>
     <use xlink:href="#m2623e7f317" x="473.51405" y="114.106909" style="fill: #31688e; stroke: #31688e"/>
    </g>
   </g>
   <g id="line2d_25">
    <path d="M 116.88595 265.326545 
L 239.861157 235.675636 
L 362.836364 208.989818 
L 485.81157 197.129455 
" clip-path="url(#p9ac5f65fec)" style="fill: none; stroke: #35b779; stroke-width: 1.5; stroke-linecap: square"/>
    <defs>
     <path id="m602c2b0fd6" d="M 0 6 
C 1.591219 6 3.117479 5.367802 4.242641 4.242641 
C 5.367802 3.117479 6 1.591219 6 0 
C 6 -1.591219 5.367802 -3.117479 4.242641 -4.242641 
C 3.117479 -5.367802 1.591219 -6 0 -6 
C -1.591219 -6 -3.117479 -5.367802 -4.242641 -4.242641 
C -5.367802 -3.117479 -6 -1.591219 -6 0 
C -6 1.591219 -5.367802 3.117479 -4.242641 4.242641 
C -3.117479 5.367802 -1.591219 6 0 6 
z
" style="stroke: #35b779"/>
    </defs>
    <g clip-path="url(#p9ac5f65fec)">
     <use xlink:href="#m602c2b0fd6" x="116.88595" y="265.326545" style="fill: #35b779; stroke: #35b779"/>
     <use xlink:href="#m602c2b0fd6" x="239.861157" y="235.675636" style="fill: #35b779; stroke: #35b779"/>
     <use xlink:href="#m602c2b0fd6" x="362.836364" y="208.989818" style="fill: #35b779; stroke: #35b779"/>
     <use xlink:href="#m602c2b0fd6" x="485.81157" y="197.129455" style="fill: #35b779; stroke: #35b779"/>
    </g>
   </g>
   <g id="line2d_26">
    <path d="M 129.183471 312.768 
L 252.158678 300.907636 
L 375.133884 289.047273 
L 498.109091 286.082182 
" clip-path="url(#p9ac5f65fec)" style="fill: none; stroke: #fde725; stroke-width: 1.5; stroke-linecap: square"/>
    <defs>
     <path id="m51cd6ca0e2" d="M 0 6 
C 1.591219 6 3.117479 5.367802 4.242641 4.242641 
C 5.367802 3.117479 6 1.591219 6 0 
C 6 -1.591219 5.367802 -3.117479 4.242641 -4.242641 
C 3.117479 -5.367802 1.591219 -6 0 -6 
C -1.591219 -6 -3.117479 -5.367802 -4.242641 -4.242641 
C -5.367802 -3.117479 -6 -1.591219 -6 0 
C -6 1.591219 -5.367802 3.117479 -4.242641 4.242641 
C -3.117479 5.367802 -1.591219 6 0 6 
z
" style="stroke: #fde725"/>
    </defs>
    <g clip-path="url(#p9ac5f65fec)">
     <use xlink:href="#m51cd6ca0e2" x="129.183471" y="312.768" style="fill: #fde725; stroke: #fde725"/>
     <use xlink:href="#m51cd6ca0e2" x="252.158678" y="300.907636" style="fill: #fde725; stroke: #fde725"/>
     <use xlink:href="#m51cd6ca0e2" x="375.133884" y="289.047273" style="fill: #fde725; stroke: #fde725"/>
     <use xlink:href="#m51cd6ca0e2" x="498.109091" y="286.082182" style="fill: #fde725; stroke: #fde725"/>
    </g>
   </g>
   <g id="patch_3">
    <path d="M 72 378 
L 72 51.84 
" style="fill: none; stroke: #000000; stroke-width: 0.8; stroke-linejoin: miter; stroke-linecap: square"/>
   </g>
   <g id="patch_4">
    <path d="M 518.4 378 
L 518.4 51.84 
" style="fill: none; stroke: #000000; stroke-width: 0.8; stroke-linejoin: miter; stroke-linecap: square"/>
   </g>
   <g id="patch_5">
    <path d="M 72 378 
L 518.4 378 
" style="fill: none; stroke: #000000; stroke-width: 0.8; stroke-linejoin: miter; stroke-linecap: square"/>
   </g>
   <g id="patch_6">
    <path d="M 72 51.84 
L 518.4 51.84 
" style="fill: none; stroke: #000000; stroke-width: 0.8; stroke-linejoin: miter; stroke-linecap: square"/>
   </g>
   <g id="legend_1">
    <g id="patch_7">
     <path d="M 84.6 172.06875 
L 204.48 172.06875 
Q 208.08 172.06875 208.08 168.46875 
L 208.08 64.44 
Q 208.08 60.84 204.48 60.84 
L 84.6 60.84 
Q 81 60.84 81 64.44 
L 81 168.46875 
Q 81 172.06875 84.6 172.06875 
z
" style="fill: #ffffff; opacity: 0.8; stroke: #cccccc; stroke-linejoin: miter"/>
    </g>
    <g id="LineCollection_5">
     <path d="M 106.2 84.417187 
L 106.2 66.417187 
" style="fill: none; stroke: #440154; stroke-width: 1.5"/>
    </g>
    <g id="line2d_27">
     <g>
      <use xlink:href="#m66d7430191" x="106.2" y="84.417187" style="fill: #440154; stroke: #440154"/>
     </g>
    </g>
    <g id="line2d_28">
     <g>
      <use xlink:href="#m66d7430191" x="106.2" y="66.417187" style="fill: #440154; stroke: #440154"/>
     </g>
    </g>
    <g id="line2d_29">
     <path d="M 88.2 75.417187 
L 124.2 75.417187 
" style="fill: none; stroke: #440154; stroke-width: 1.5; stroke-linecap: square"/>
    </g>
    <g id="line2d_30">
     <g>
      <use xlink:href="#m3cf9e12749" x="106.2" y="75.417187" style="fill: #440154; stroke: #440154"/>
     </g>
    </g>
    <g id="text_10">
     <!-- $q=0$ -->
     <g transform="translate(138.6 81.717187) scale(0.18 -0.18)">
      <defs>
       <path id="DejaVuSans-Oblique-71" d="M 2669 525 
Q 2438 222 2123 65 
Q 1809 -91 1428 -91 
Q 897 -91 595 267 
Q 294 625 294 1253 
Q 294 1759 480 2231 
Q 666 2703 1013 3078 
Q 1238 3322 1530 3453 
Q 1822 3584 2144 3584 
Q 2531 3584 2781 3431 
Q 3031 3278 3144 2969 
L 3244 3494 
L 3822 3494 
L 2888 -1319 
L 2309 -1319 
L 2669 525 
z
M 891 1338 
Q 891 875 1084 633 
Q 1278 391 1644 391 
Q 2188 391 2572 911 
Q 2956 1431 2956 2175 
Q 2956 2625 2757 2864 
Q 2559 3103 2188 3103 
Q 1916 3103 1684 2976 
Q 1453 2850 1281 2606 
Q 1100 2350 995 2006 
Q 891 1663 891 1338 
z
" transform="scale(0.015625)"/>
       <path id="DejaVuSans-3d" d="M 678 2906 
L 4684 2906 
L 4684 2381 
L 678 2381 
L 678 2906 
z
M 678 1631 
L 4684 1631 
L 4684 1100 
L 678 1100 
L 678 1631 
z
" transform="scale(0.015625)"/>
      </defs>
      <use xlink:href="#DejaVuSans-Oblique-71" transform="translate(0 0.78125)"/>
      <use xlink:href="#DejaVuSans-3d" transform="translate(82.958984 0.78125)"/>
      <use xlink:href="#DejaVuSans-30" transform="translate(186.230469 0.78125)"/>
     </g>
    </g>
    <g id="LineCollection_6">
     <path d="M 106.2 110.874375 
L 106.2 92.874375 
" style="fill: none; stroke: #31688e; stroke-width: 1.5"/>
    </g>
    <g id="line2d_31">
     <g>
      <use xlink:href="#m0d2bd9804d" x="106.2" y="110.874375" style="fill: #31688e; stroke: #31688e"/>
     </g>
    </g>
    <g id="line2d_32">
     <g>
      <use xlink:href="#m0d2bd9804d" x="106.2" y="92.874375" style="fill: #31688e; stroke: #31688e"/>
     </g>
    </g>
    <g id="line2d_33">
     <path d="M 88.2 101.874375 
L 124.2 101.874375 
" style="fill: none; stroke: #31688e; stroke-width: 1.5; stroke-linecap: square"/>
    </g>
    <g id="line2d_34">
     <g>
      <use xlink:href="#m2623e7f317" x="106.2" y="101.874375" style="fill: #31688e; stroke: #31688e"/>
     </g>
    </g>
    <g id="text_11">
     <!-- $q=0.5$ -->
     <g transform="translate(138.6 108.174375) scale(0.18 -0.18)">
      <defs>
       <path id="DejaVuSans-35" d="M 691 4666 
L 3169 4666 
L 3169 4134 
L 1269 4134 
L 1269 2991 
Q 1406 3038 1543 3061 
Q 1681 3084 1819 3084 
Q 2600 3084 3056 2656 
Q 3513 2228 3513 1497 
Q 3513 744 3044 326 
Q 2575 -91 1722 -91 
Q 1428 -91 1123 -41 
Q 819 9 494 109 
L 494 744 
Q 775 591 1075 516 
Q 1375 441 1709 441 
Q 2250 441 2565 725 
Q 2881 1009 2881 1497 
Q 2881 1984 2565 2268 
Q 2250 2553 1709 2553 
Q 1456 2553 1204 2497 
Q 953 2441 691 2322 
L 691 4666 
z
" transform="scale(0.015625)"/>
      </defs>
      <use xlink:href="#DejaVuSans-Oblique-71" transform="translate(0 0.78125)"/>
      <use xlink:href="#DejaVuSans-3d" transform="translate(82.958984 0.78125)"/>
      <use xlink:href="#DejaVuSans-30" transform="translate(186.230469 0.78125)"/>
      <use xlink:href="#DejaVuSans-2e" transform="translate(249.853516 0.78125)"/>
      <use xlink:href="#DejaVuSans-35" transform="translate(281.640625 0.78125)"/>
     </g>
    </g>
    <g id="LineCollection_7">
     <path d="M 106.2 137.331562 
L 106.2 119.331562 
" style="fill: none; stroke: #35b779; stroke-width: 1.5"/>
    </g>
    <g id="line2d_35">
     <g>
      <use xlink:href="#mba6360c916" x="106.2" y="137.331562" style="fill: #35b779; stroke: #35b779"/>
     </g>
    </g>
    <g id="line2d_36">
     <g>
      <use xlink:href="#mba6360c916" x="106.2" y="119.331562" style="fill: #35b779; stroke: #35b779"/>
     </g>
    </g>
    <g id="line2d_37">
     <path d="M 88.2 128.331562 
L 124.2 128.331562 
" style="fill: none; stroke: #35b779; stroke-width: 1.5; stroke-linecap: square"/>
    </g>
    <g id="line2d_38">
     <g>
      <use xlink:href="#m602c2b0fd6" x="106.2" y="128.331562" style="fill: #35b779; stroke: #35b779"/>
     </g>
    </g>
    <g id="text_12">
     <!-- $q=1$ -->
     <g transform="translate(138.6 134.631562) scale(0.18 -0.18)">
      <use xlink:href="#DejaVuSans-Oblique-71" transform="translate(0 0.09375)"/>
      <use xlink:href="#DejaVuSans-3d" transform="translate(82.958984 0.09375)"/>
      <use xlink:href="#DejaVuSans-31" transform="translate(186.230469 0.09375)"/>
     </g>
    </g>
    <g id="LineCollection_8">
     <path d="M 106.2 163.78875 
L 106.2 145.78875 
" style="fill: none; stroke: #fde725; stroke-width: 1.5"/>
    </g>
    <g id="line2d_39">
     <g>
      <use xlink:href="#m97dbd2c8fc" x="106.2" y="163.78875" style="fill: #fde725; stroke: #fde725"/>
     </g>
    </g>
    <g id="line2d_40">
     <g>
      <use xlink:href="#m97dbd2c8fc" x="106.2" y="145.78875" style="fill: #fde725; stroke: #fde725"/>
     </g>
    </g>
    <g id="line2d_41">
     <path d="M 88.2 154.78875 
L 124.2 154.78875 
" style="fill: none; stroke: #fde725; stroke-width: 1.5; stroke-linecap: square"/>
    </g>
    <g id="line2d_42">
     <g>
      <use xlink:href="#m51cd6ca0e2" x="106.2" y="154.78875" style="fill: #fde725; stroke: #fde725"/>
     </g>
    </g>
    <g id="text_13">
     <!-- $q=2$ -->
     <g transform="translate(138.6 161.08875) scale(0.18 -0.18)">
      <use xlink:href="#DejaVuSans-Oblique-71" transform="translate(0 0.78125)"/>
      <use xlink:href="#DejaVuSans-3d" transform="translate(82.958984 0.78125)"/>
      <use xlink:href="#DejaVuSans-32" transform="translate(186.230469 0.78125)"/>
     </g>
    </g>
   </g>
  </g>
 </g>
 <defs>
  <clipPath id="p9ac5f65fec">
   <rect x="72" y="51.84" width="446.4" height="326.16"/>
  </clipPath>
 </defs>
</svg>
