<?xml version="1.0" encoding="utf-8" standalone="no"?>
<!DOCTYPE svg PUBLIC "-//W3C//DTD SVG 1.1//EN"
  "http://www.w3.org/Graphics/SVG/1.1/DTD/svg11.dtd">
<svg xmlns:xlink="http://www.w3.org/1999/xlink" width="576pt" height="432pt" viewBox="0 0 576 432" xmlns="http://www.w3.org/2000/svg" version="1.1">
 <metadata>
  <rdf:RDF xmlns:dc="http://purl.org/dc/elements/1.1/" xmlns:cc="http://creativecommons.org/ns#" xmlns:rdf="http://www.w3.org/1999/02/22-rdf-syntax-ns#">
   <cc:Work>
    <dc:type rdf:resource="http://purl.org/dc/dcmitype/StillImage"/>
    <dc:date>2023-08-13T14:23:05.004344</dc:date>
    <dc:format>image/svg+xml</dc:format>
    <dc:creator>
     <cc:Agent>
      <dc:title>Matplotlib v3.7.1, https://matplotlib.org/</dc:title>
     </cc:Agent>
    </dc:creator>
   </cc:Work>
  </rdf:RDF>
 </metadata>
 <defs>
  <style type="text/css">*{stroke-linejoin: round; stroke-linecap: butt}</style>
 </defs>
 <g id="figure_1">
  <g id="patch_1">
   <path d="M 0 432 
L 576 432 
L 576 0 
L 0 0 
z
" style="fill: #ffffff"/>
  </g>
  <g id="axes_1">
   <g id="patch_2">
    <path d="M 72 378 
L 518.4 378 
L 518.4 51.84 
L 72 51.84 
z
" style="fill: #ffffff"/>
   </g>
   <g id="matplotlib.axis_1">
    <g id="xtick_1">
     <g id="line2d_1">
      <defs>
       <path id="m680493d743" d="M 0 0 
L 0 3.5 
" style="stroke: #000000; stroke-width: 0.8"/>
      </defs>
      <g>
       <use xlink:href="#m680493d743" x="110.73719" y="378" style="stroke: #000000; stroke-width: 0.8"/>
      </g>
     </g>
     <g id="text_1">
      <!-- LM II - -->
      <g transform="translate(85.237659 397.912188) scale(0.18 -0.18)">
       <defs>
        <path id="Helvetica-4c" d="M 488 4591 
L 1109 4591 
L 1109 547 
L 3434 547 
L 3434 0 
L 488 0 
L 488 4591 
z
" transform="scale(0.015625)"/>
        <path id="Helvetica-4d" d="M 472 4591 
L 1363 4591 
L 2681 709 
L 3991 4591 
L 4872 4591 
L 4872 0 
L 4281 0 
L 4281 2709 
Q 4281 2850 4287 3175 
Q 4294 3500 4294 3872 
L 2984 0 
L 2369 0 
L 1050 3872 
L 1050 3731 
Q 1050 3563 1058 3217 
Q 1066 2872 1066 2709 
L 1066 0 
L 472 0 
L 472 4591 
z
" transform="scale(0.015625)"/>
        <path id="Helvetica-20" transform="scale(0.015625)"/>
        <path id="Helvetica-49" d="M 628 4591 
L 1256 4591 
L 1256 0 
L 628 0 
L 628 4591 
z
" transform="scale(0.015625)"/>
        <path id="Helvetica-2d" d="M 266 2072 
L 1834 2072 
L 1834 1494 
L 266 1494 
L 266 2072 
z
" transform="scale(0.015625)"/>
       </defs>
       <use xlink:href="#Helvetica-4c"/>
       <use xlink:href="#Helvetica-4d" x="55.615234"/>
       <use xlink:href="#Helvetica-20" x="138.916016"/>
       <use xlink:href="#Helvetica-49" x="166.699219"/>
       <use xlink:href="#Helvetica-49" x="194.482422"/>
       <use xlink:href="#Helvetica-20" x="222.265625"/>
       <use xlink:href="#Helvetica-2d" x="250.048828"/>
      </g>
      <!--  LM IIIA1 -->
      <g transform="translate(74.72594 417.158687) scale(0.18 -0.18)">
       <defs>
        <path id="Helvetica-41" d="M 2844 1881 
L 2147 3909 
L 1406 1881 
L 2844 1881 
z
M 1822 4591 
L 2525 4591 
L 4191 0 
L 3509 0 
L 3044 1375 
L 1228 1375 
L 731 0 
L 94 0 
L 1822 4591 
z
" transform="scale(0.015625)"/>
        <path id="Helvetica-31" d="M 613 3169 
L 613 3600 
Q 1222 3659 1462 3798 
Q 1703 3938 1822 4456 
L 2266 4456 
L 2266 0 
L 1666 0 
L 1666 3169 
L 613 3169 
z
" transform="scale(0.015625)"/>
       </defs>
       <use xlink:href="#Helvetica-20"/>
       <use xlink:href="#Helvetica-4c" x="27.783203"/>
       <use xlink:href="#Helvetica-4d" x="83.398438"/>
       <use xlink:href="#Helvetica-20" x="166.699219"/>
       <use xlink:href="#Helvetica-49" x="194.482422"/>
       <use xlink:href="#Helvetica-49" x="222.265625"/>
       <use xlink:href="#Helvetica-49" x="250.048828"/>
       <use xlink:href="#Helvetica-41" x="277.832031"/>
       <use xlink:href="#Helvetica-31" x="344.53125"/>
      </g>
     </g>
    </g>
    <g id="xtick_2">
     <g id="line2d_2">
      <g>
       <use xlink:href="#m680493d743" x="233.712397" y="378" style="stroke: #000000; stroke-width: 0.8"/>
      </g>
     </g>
     <g id="text_2">
      <!-- LM IIIA1 - -->
      <g transform="translate(194.704428 397.912188) scale(0.18 -0.18)">
       <use xlink:href="#Helvetica-4c"/>
       <use xlink:href="#Helvetica-4d" x="55.615234"/>
       <use xlink:href="#Helvetica-20" x="138.916016"/>
       <use xlink:href="#Helvetica-49" x="166.699219"/>
       <use xlink:href="#Helvetica-49" x="194.482422"/>
       <use xlink:href="#Helvetica-49" x="222.265625"/>
       <use xlink:href="#Helvetica-41" x="250.048828"/>
       <use xlink:href="#Helvetica-31" x="316.748047"/>
       <use xlink:href="#Helvetica-20" x="372.363281"/>
       <use xlink:href="#Helvetica-2d" x="400.146484"/>
      </g>
      <!--  LM IIIA2 -->
      <g transform="translate(197.701147 417.158687) scale(0.18 -0.18)">
       <defs>
        <path id="Helvetica-32" d="M 200 0 
Q 231 578 439 1006 
Q 647 1434 1250 1784 
L 1850 2131 
Q 2253 2366 2416 2531 
Q 2672 2791 2672 3125 
Q 2672 3516 2437 3745 
Q 2203 3975 1813 3975 
Q 1234 3975 1013 3538 
Q 894 3303 881 2888 
L 309 2888 
Q 319 3472 525 3841 
Q 891 4491 1816 4491 
Q 2584 4491 2939 4075 
Q 3294 3659 3294 3150 
Q 3294 2613 2916 2231 
Q 2697 2009 2131 1694 
L 1703 1456 
Q 1397 1288 1222 1134 
Q 909 863 828 531 
L 3272 531 
L 3272 0 
L 200 0 
z
" transform="scale(0.015625)"/>
       </defs>
       <use xlink:href="#Helvetica-20"/>
       <use xlink:href="#Helvetica-4c" x="27.783203"/>
       <use xlink:href="#Helvetica-4d" x="83.398438"/>
       <use xlink:href="#Helvetica-20" x="166.699219"/>
       <use xlink:href="#Helvetica-49" x="194.482422"/>
       <use xlink:href="#Helvetica-49" x="222.265625"/>
       <use xlink:href="#Helvetica-49" x="250.048828"/>
       <use xlink:href="#Helvetica-41" x="277.832031"/>
       <use xlink:href="#Helvetica-32" x="344.53125"/>
      </g>
     </g>
    </g>
    <g id="xtick_3">
     <g id="line2d_3">
      <g>
       <use xlink:href="#m680493d743" x="356.687603" y="378" style="stroke: #000000; stroke-width: 0.8"/>
      </g>
     </g>
     <g id="text_3">
      <!-- LM IIIA2 - -->
      <g transform="translate(317.679635 397.912188) scale(0.18 -0.18)">
       <use xlink:href="#Helvetica-4c"/>
       <use xlink:href="#Helvetica-4d" x="55.615234"/>
       <use xlink:href="#Helvetica-20" x="138.916016"/>
       <use xlink:href="#Helvetica-49" x="166.699219"/>
       <use xlink:href="#Helvetica-49" x="194.482422"/>
       <use xlink:href="#Helvetica-49" x="222.265625"/>
       <use xlink:href="#Helvetica-41" x="250.048828"/>
       <use xlink:href="#Helvetica-32" x="316.748047"/>
       <use xlink:href="#Helvetica-20" x="372.363281"/>
       <use xlink:href="#Helvetica-2d" x="400.146484"/>
      </g>
      <!--  LM IIIB1 -->
      <g transform="translate(320.676353 417.158687) scale(0.18 -0.18)">
       <defs>
        <path id="Helvetica-42" d="M 2213 2650 
Q 2606 2650 2825 2759 
Q 3169 2931 3169 3378 
Q 3169 3828 2803 3984 
Q 2597 4072 2191 4072 
L 1081 4072 
L 1081 2650 
L 2213 2650 
z
M 2422 531 
Q 2994 531 3238 863 
Q 3391 1072 3391 1369 
Q 3391 1869 2944 2050 
Q 2706 2147 2316 2147 
L 1081 2147 
L 1081 531 
L 2422 531 
z
M 472 4591 
L 2444 4591 
Q 3250 4591 3591 4109 
Q 3791 3825 3791 3453 
Q 3791 3019 3544 2741 
Q 3416 2594 3175 2472 
Q 3528 2338 3703 2169 
Q 4013 1869 4013 1341 
Q 4013 897 3734 538 
Q 3319 0 2413 0 
L 472 0 
L 472 4591 
z
" transform="scale(0.015625)"/>
       </defs>
       <use xlink:href="#Helvetica-20"/>
       <use xlink:href="#Helvetica-4c" x="27.783203"/>
       <use xlink:href="#Helvetica-4d" x="83.398438"/>
       <use xlink:href="#Helvetica-20" x="166.699219"/>
       <use xlink:href="#Helvetica-49" x="194.482422"/>
       <use xlink:href="#Helvetica-49" x="222.265625"/>
       <use xlink:href="#Helvetica-49" x="250.048828"/>
       <use xlink:href="#Helvetica-42" x="277.832031"/>
       <use xlink:href="#Helvetica-31" x="344.53125"/>
      </g>
     </g>
    </g>
    <g id="xtick_4">
     <g id="line2d_4">
      <g>
       <use xlink:href="#m680493d743" x="479.66281" y="378" style="stroke: #000000; stroke-width: 0.8"/>
      </g>
     </g>
     <g id="text_4">
      <!-- LM IIIB1 - -->
      <g transform="translate(440.654841 397.912188) scale(0.18 -0.18)">
       <use xlink:href="#Helvetica-4c"/>
       <use xlink:href="#Helvetica-4d" x="55.615234"/>
       <use xlink:href="#Helvetica-20" x="138.916016"/>
       <use xlink:href="#Helvetica-49" x="166.699219"/>
       <use xlink:href="#Helvetica-49" x="194.482422"/>
       <use xlink:href="#Helvetica-49" x="222.265625"/>
       <use xlink:href="#Helvetica-42" x="250.048828"/>
       <use xlink:href="#Helvetica-31" x="316.748047"/>
       <use xlink:href="#Helvetica-20" x="372.363281"/>
       <use xlink:href="#Helvetica-2d" x="400.146484"/>
      </g>
      <!--  LM IIIB2 -->
      <g transform="translate(443.65156 417.158687) scale(0.18 -0.18)">
       <use xlink:href="#Helvetica-20"/>
       <use xlink:href="#Helvetica-4c" x="27.783203"/>
       <use xlink:href="#Helvetica-4d" x="83.398438"/>
       <use xlink:href="#Helvetica-20" x="166.699219"/>
       <use xlink:href="#Helvetica-49" x="194.482422"/>
       <use xlink:href="#Helvetica-49" x="222.265625"/>
       <use xlink:href="#Helvetica-49" x="250.048828"/>
       <use xlink:href="#Helvetica-42" x="277.832031"/>
       <use xlink:href="#Helvetica-32" x="344.53125"/>
      </g>
     </g>
    </g>
   </g>
   <g id="matplotlib.axis_2">
    <g id="ytick_1">
     <g id="line2d_5">
      <path d="M 72 330.558545 
L 518.4 330.558545 
" clip-path="url(#pa4e98b3ed0)" style="fill: none; stroke: #b0b0b0; stroke-width: 0.8; stroke-linecap: square"/>
     </g>
     <g id="line2d_6">
      <defs>
       <path id="me17896548d" d="M 0 0 
L -3.5 0 
" style="stroke: #000000; stroke-width: 0.8"/>
      </defs>
      <g>
       <use xlink:href="#me17896548d" x="72" y="330.558545" style="stroke: #000000; stroke-width: 0.8"/>
      </g>
     </g>
     <g id="text_5">
      <!-- 0.0 -->
      <g transform="translate(39.98 337.014639) scale(0.18 -0.18)">
       <defs>
        <path id="Helvetica-30" d="M 1731 4475 
Q 2600 4475 2988 3759 
Q 3288 3206 3288 2244 
Q 3288 1331 3016 734 
Q 2622 -122 1728 -122 
Q 922 -122 528 578 
Q 200 1163 200 2147 
Q 200 2909 397 3456 
Q 766 4475 1731 4475 
z
M 1725 391 
Q 2163 391 2422 778 
Q 2681 1166 2681 2222 
Q 2681 2984 2493 3476 
Q 2306 3969 1766 3969 
Q 1269 3969 1039 3501 
Q 809 3034 809 2125 
Q 809 1441 956 1025 
Q 1181 391 1725 391 
z
" transform="scale(0.015625)"/>
        <path id="Helvetica-2e" d="M 547 681 
L 1200 681 
L 1200 0 
L 547 0 
L 547 681 
z
" transform="scale(0.015625)"/>
       </defs>
       <use xlink:href="#Helvetica-30"/>
       <use xlink:href="#Helvetica-2e" x="55.615234"/>
       <use xlink:href="#Helvetica-30" x="83.398438"/>
      </g>
     </g>
    </g>
    <g id="ytick_2">
     <g id="line2d_7">
      <path d="M 72 271.256727 
L 518.4 271.256727 
" clip-path="url(#pa4e98b3ed0)" style="fill: none; stroke: #b0b0b0; stroke-width: 0.8; stroke-linecap: square"/>
     </g>
     <g id="line2d_8">
      <g>
       <use xlink:href="#me17896548d" x="72" y="271.256727" style="stroke: #000000; stroke-width: 0.8"/>
      </g>
     </g>
     <g id="text_6">
      <!-- 0.2 -->
      <g transform="translate(39.98 277.712821) scale(0.18 -0.18)">
       <use xlink:href="#Helvetica-30"/>
       <use xlink:href="#Helvetica-2e" x="55.615234"/>
       <use xlink:href="#Helvetica-32" x="83.398438"/>
      </g>
     </g>
    </g>
    <g id="ytick_3">
     <g id="line2d_9">
      <path d="M 72 211.954909 
L 518.4 211.954909 
" clip-path="url(#pa4e98b3ed0)" style="fill: none; stroke: #b0b0b0; stroke-width: 0.8; stroke-linecap: square"/>
     </g>
     <g id="line2d_10">
      <g>
       <use xlink:href="#me17896548d" x="72" y="211.954909" style="stroke: #000000; stroke-width: 0.8"/>
      </g>
     </g>
     <g id="text_7">
      <!-- 0.4 -->
      <g transform="translate(39.98 218.411003) scale(0.18 -0.18)">
       <defs>
        <path id="Helvetica-34" d="M 2116 1584 
L 2116 3613 
L 681 1584 
L 2116 1584 
z
M 2125 0 
L 2125 1094 
L 163 1094 
L 163 1644 
L 2213 4488 
L 2688 4488 
L 2688 1584 
L 3347 1584 
L 3347 1094 
L 2688 1094 
L 2688 0 
L 2125 0 
z
" transform="scale(0.015625)"/>
       </defs>
       <use xlink:href="#Helvetica-30"/>
       <use xlink:href="#Helvetica-2e" x="55.615234"/>
       <use xlink:href="#Helvetica-34" x="83.398438"/>
      </g>
     </g>
    </g>
    <g id="ytick_4">
     <g id="line2d_11">
      <path d="M 72 152.653091 
L 518.4 152.653091 
" clip-path="url(#pa4e98b3ed0)" style="fill: none; stroke: #b0b0b0; stroke-width: 0.8; stroke-linecap: square"/>
     </g>
     <g id="line2d_12">
      <g>
       <use xlink:href="#me17896548d" x="72" y="152.653091" style="stroke: #000000; stroke-width: 0.8"/>
      </g>
     </g>
     <g id="text_8">
      <!-- 0.6 -->
      <g transform="translate(39.98 159.109185) scale(0.18 -0.18)">
       <defs>
        <path id="Helvetica-36" d="M 1872 4494 
Q 2622 4494 2917 4105 
Q 3213 3716 3213 3303 
L 2656 3303 
Q 2606 3569 2497 3719 
Q 2294 4000 1881 4000 
Q 1409 4000 1131 3564 
Q 853 3128 822 2316 
Q 1016 2600 1309 2741 
Q 1578 2866 1909 2866 
Q 2472 2866 2890 2506 
Q 3309 2147 3309 1434 
Q 3309 825 2912 354 
Q 2516 -116 1781 -116 
Q 1153 -116 697 361 
Q 241 838 241 1966 
Q 241 2800 444 3381 
Q 834 4494 1872 4494 
z
M 1831 384 
Q 2275 384 2495 682 
Q 2716 981 2716 1388 
Q 2716 1731 2519 2042 
Q 2322 2353 1803 2353 
Q 1441 2353 1167 2112 
Q 894 1872 894 1388 
Q 894 963 1142 673 
Q 1391 384 1831 384 
z
" transform="scale(0.015625)"/>
       </defs>
       <use xlink:href="#Helvetica-30"/>
       <use xlink:href="#Helvetica-2e" x="55.615234"/>
       <use xlink:href="#Helvetica-36" x="83.398438"/>
      </g>
     </g>
    </g>
    <g id="ytick_5">
     <g id="line2d_13">
      <path d="M 72 93.351273 
L 518.4 93.351273 
" clip-path="url(#pa4e98b3ed0)" style="fill: none; stroke: #b0b0b0; stroke-width: 0.8; stroke-linecap: square"/>
     </g>
     <g id="line2d_14">
      <g>
       <use xlink:href="#me17896548d" x="72" y="93.351273" style="stroke: #000000; stroke-width: 0.8"/>
      </g>
     </g>
     <g id="text_9">
      <!-- 0.8 -->
      <g transform="translate(39.98 99.807366) scale(0.18 -0.18)">
       <defs>
        <path id="Helvetica-38" d="M 1741 2600 
Q 2113 2600 2322 2808 
Q 2531 3016 2531 3303 
Q 2531 3553 2331 3762 
Q 2131 3972 1722 3972 
Q 1316 3972 1134 3762 
Q 953 3553 953 3272 
Q 953 2956 1187 2778 
Q 1422 2600 1741 2600 
z
M 1775 384 
Q 2166 384 2423 595 
Q 2681 806 2681 1225 
Q 2681 1659 2415 1884 
Q 2150 2109 1734 2109 
Q 1331 2109 1076 1879 
Q 822 1650 822 1244 
Q 822 894 1055 639 
Q 1288 384 1775 384 
z
M 975 2384 
Q 741 2484 609 2619 
Q 363 2869 363 3269 
Q 363 3769 725 4128 
Q 1088 4488 1753 4488 
Q 2397 4488 2762 4148 
Q 3128 3809 3128 3356 
Q 3128 2938 2916 2678 
Q 2797 2531 2547 2391 
Q 2825 2263 2984 2097 
Q 3281 1784 3281 1284 
Q 3281 694 2884 283 
Q 2488 -128 1763 -128 
Q 1109 -128 657 226 
Q 206 581 206 1256 
Q 206 1653 400 1942 
Q 594 2231 975 2384 
z
" transform="scale(0.015625)"/>
       </defs>
       <use xlink:href="#Helvetica-30"/>
       <use xlink:href="#Helvetica-2e" x="55.615234"/>
       <use xlink:href="#Helvetica-38" x="83.398438"/>
      </g>
     </g>
    </g>
   </g>
   <g id="LineCollection_1">
    <path d="M 92.290909 271.256727 
L 92.290909 170.443636 
" clip-path="url(#pa4e98b3ed0)" style="fill: none; stroke: #440154; stroke-width: 1.5"/>
    <path d="M 215.266116 220.850182 
L 215.266116 131.897455 
" clip-path="url(#pa4e98b3ed0)" style="fill: none; stroke: #440154; stroke-width: 1.5"/>
    <path d="M 338.241322 179.338909 
L 338.241322 102.246545 
" clip-path="url(#pa4e98b3ed0)" style="fill: none; stroke: #440154; stroke-width: 1.5"/>
    <path d="M 461.216529 158.583273 
L 461.216529 75.560727 
" clip-path="url(#pa4e98b3ed0)" style="fill: none; stroke: #440154; stroke-width: 1.5"/>
   </g>
   <g id="line2d_15">
    <defs>
     <path id="m08aec7f297" d="M 5 0 
L -5 -0 
" style="stroke: #440154"/>
    </defs>
    <g clip-path="url(#pa4e98b3ed0)">
     <use xlink:href="#m08aec7f297" x="92.290909" y="271.256727" style="fill: #440154; stroke: #440154"/>
     <use xlink:href="#m08aec7f297" x="215.266116" y="220.850182" style="fill: #440154; stroke: #440154"/>
     <use xlink:href="#m08aec7f297" x="338.241322" y="179.338909" style="fill: #440154; stroke: #440154"/>
     <use xlink:href="#m08aec7f297" x="461.216529" y="158.583273" style="fill: #440154; stroke: #440154"/>
    </g>
   </g>
   <g id="line2d_16">
    <g clip-path="url(#pa4e98b3ed0)">
     <use xlink:href="#m08aec7f297" x="92.290909" y="170.443636" style="fill: #440154; stroke: #440154"/>
     <use xlink:href="#m08aec7f297" x="215.266116" y="131.897455" style="fill: #440154; stroke: #440154"/>
     <use xlink:href="#m08aec7f297" x="338.241322" y="102.246545" style="fill: #440154; stroke: #440154"/>
     <use xlink:href="#m08aec7f297" x="461.216529" y="75.560727" style="fill: #440154; stroke: #440154"/>
    </g>
   </g>
   <g id="LineCollection_2">
    <path d="M 104.58843 229.745455 
L 104.58843 158.583273 
" clip-path="url(#pa4e98b3ed0)" style="fill: none; stroke: #31688e; stroke-width: 1.5"/>
    <path d="M 227.563636 191.199273 
L 227.563636 125.967273 
" clip-path="url(#pa4e98b3ed0)" style="fill: none; stroke: #31688e; stroke-width: 1.5"/>
    <path d="M 350.538843 167.478545 
L 350.538843 96.316364 
" clip-path="url(#pa4e98b3ed0)" style="fill: none; stroke: #31688e; stroke-width: 1.5"/>
    <path d="M 473.51405 161.548364 
L 473.51405 66.665455 
" clip-path="url(#pa4e98b3ed0)" style="fill: none; stroke: #31688e; stroke-width: 1.5"/>
   </g>
   <g id="line2d_17">
    <defs>
     <path id="m1c3b921389" d="M 5 0 
L -5 -0 
" style="stroke: #31688e"/>
    </defs>
    <g clip-path="url(#pa4e98b3ed0)">
     <use xlink:href="#m1c3b921389" x="104.58843" y="229.745455" style="fill: #31688e; stroke: #31688e"/>
     <use xlink:href="#m1c3b921389" x="227.563636" y="191.199273" style="fill: #31688e; stroke: #31688e"/>
     <use xlink:href="#m1c3b921389" x="350.538843" y="167.478545" style="fill: #31688e; stroke: #31688e"/>
     <use xlink:href="#m1c3b921389" x="473.51405" y="161.548364" style="fill: #31688e; stroke: #31688e"/>
    </g>
   </g>
   <g id="line2d_18">
    <g clip-path="url(#pa4e98b3ed0)">
     <use xlink:href="#m1c3b921389" x="104.58843" y="158.583273" style="fill: #31688e; stroke: #31688e"/>
     <use xlink:href="#m1c3b921389" x="227.563636" y="125.967273" style="fill: #31688e; stroke: #31688e"/>
     <use xlink:href="#m1c3b921389" x="350.538843" y="96.316364" style="fill: #31688e; stroke: #31688e"/>
     <use xlink:href="#m1c3b921389" x="473.51405" y="66.665455" style="fill: #31688e; stroke: #31688e"/>
    </g>
   </g>
   <g id="LineCollection_3">
    <path d="M 116.88595 333.523636 
L 116.88595 197.129455 
" clip-path="url(#pa4e98b3ed0)" style="fill: none; stroke: #35b779; stroke-width: 1.5"/>
    <path d="M 239.861157 312.768 
L 239.861157 158.583273 
" clip-path="url(#pa4e98b3ed0)" style="fill: none; stroke: #35b779; stroke-width: 1.5"/>
    <path d="M 362.836364 297.942545 
L 362.836364 120.037091 
" clip-path="url(#pa4e98b3ed0)" style="fill: none; stroke: #35b779; stroke-width: 1.5"/>
    <path d="M 485.81157 300.907636 
L 485.81157 93.351273 
" clip-path="url(#pa4e98b3ed0)" style="fill: none; stroke: #35b779; stroke-width: 1.5"/>
   </g>
   <g id="line2d_19">
    <defs>
     <path id="m858650cf69" d="M 5 0 
L -5 -0 
" style="stroke: #35b779"/>
    </defs>
    <g clip-path="url(#pa4e98b3ed0)">
     <use xlink:href="#m858650cf69" x="116.88595" y="333.523636" style="fill: #35b779; stroke: #35b779"/>
     <use xlink:href="#m858650cf69" x="239.861157" y="312.768" style="fill: #35b779; stroke: #35b779"/>
     <use xlink:href="#m858650cf69" x="362.836364" y="297.942545" style="fill: #35b779; stroke: #35b779"/>
     <use xlink:href="#m858650cf69" x="485.81157" y="300.907636" style="fill: #35b779; stroke: #35b779"/>
    </g>
   </g>
   <g id="line2d_20">
    <g clip-path="url(#pa4e98b3ed0)">
     <use xlink:href="#m858650cf69" x="116.88595" y="197.129455" style="fill: #35b779; stroke: #35b779"/>
     <use xlink:href="#m858650cf69" x="239.861157" y="158.583273" style="fill: #35b779; stroke: #35b779"/>
     <use xlink:href="#m858650cf69" x="362.836364" y="120.037091" style="fill: #35b779; stroke: #35b779"/>
     <use xlink:href="#m858650cf69" x="485.81157" y="93.351273" style="fill: #35b779; stroke: #35b779"/>
    </g>
   </g>
   <g id="LineCollection_4">
    <path d="M 129.183471 360.209455 
L 129.183471 265.326545 
" clip-path="url(#pa4e98b3ed0)" style="fill: none; stroke: #fde725; stroke-width: 1.5"/>
    <path d="M 252.158678 357.244364 
L 252.158678 244.570909 
" clip-path="url(#pa4e98b3ed0)" style="fill: none; stroke: #fde725; stroke-width: 1.5"/>
    <path d="M 375.133884 357.244364 
L 375.133884 220.850182 
" clip-path="url(#pa4e98b3ed0)" style="fill: none; stroke: #fde725; stroke-width: 1.5"/>
    <path d="M 498.109091 363.174545 
L 498.109091 208.989818 
" clip-path="url(#pa4e98b3ed0)" style="fill: none; stroke: #fde725; stroke-width: 1.5"/>
   </g>
   <g id="line2d_21">
    <defs>
     <path id="m0fbffb3337" d="M 5 0 
L -5 -0 
" style="stroke: #fde725"/>
    </defs>
    <g clip-path="url(#pa4e98b3ed0)">
     <use xlink:href="#m0fbffb3337" x="129.183471" y="360.209455" style="fill: #fde725; stroke: #fde725"/>
     <use xlink:href="#m0fbffb3337" x="252.158678" y="357.244364" style="fill: #fde725; stroke: #fde725"/>
     <use xlink:href="#m0fbffb3337" x="375.133884" y="357.244364" style="fill: #fde725; stroke: #fde725"/>
     <use xlink:href="#m0fbffb3337" x="498.109091" y="363.174545" style="fill: #fde725; stroke: #fde725"/>
    </g>
   </g>
   <g id="line2d_22">
    <g clip-path="url(#pa4e98b3ed0)">
     <use xlink:href="#m0fbffb3337" x="129.183471" y="265.326545" style="fill: #fde725; stroke: #fde725"/>
     <use xlink:href="#m0fbffb3337" x="252.158678" y="244.570909" style="fill: #fde725; stroke: #fde725"/>
     <use xlink:href="#m0fbffb3337" x="375.133884" y="220.850182" style="fill: #fde725; stroke: #fde725"/>
     <use xlink:href="#m0fbffb3337" x="498.109091" y="208.989818" style="fill: #fde725; stroke: #fde725"/>
    </g>
   </g>
   <g id="line2d_23">
    <path d="M 92.290909 220.850182 
L 215.266116 176.373818 
L 338.241322 140.792727 
L 461.216529 117.072 
" clip-path="url(#pa4e98b3ed0)" style="fill: none; stroke: #440154; stroke-width: 1.5; stroke-linecap: square"/>
    <defs>
     <path id="m6c8890b311" d="M 0 6 
C 1.591219 6 3.117479 5.367802 4.242641 4.242641 
C 5.367802 3.117479 6 1.591219 6 0 
C 6 -1.591219 5.367802 -3.117479 4.242641 -4.242641 
C 3.117479 -5.367802 1.591219 -6 0 -6 
C -1.591219 -6 -3.117479 -5.367802 -4.242641 -4.242641 
C -5.367802 -3.117479 -6 -1.591219 -6 0 
C -6 1.591219 -5.367802 3.117479 -4.242641 4.242641 
C -3.117479 5.367802 -1.591219 6 0 6 
z
" style="stroke: #440154"/>
    </defs>
    <g clip-path="url(#pa4e98b3ed0)">
     <use xlink:href="#m6c8890b311" x="92.290909" y="220.850182" style="fill: #440154; stroke: #440154"/>
     <use xlink:href="#m6c8890b311" x="215.266116" y="176.373818" style="fill: #440154; stroke: #440154"/>
     <use xlink:href="#m6c8890b311" x="338.241322" y="140.792727" style="fill: #440154; stroke: #440154"/>
     <use xlink:href="#m6c8890b311" x="461.216529" y="117.072" style="fill: #440154; stroke: #440154"/>
    </g>
   </g>
   <g id="line2d_24">
    <path d="M 104.58843 194.164364 
L 227.563636 158.583273 
L 350.538843 131.897455 
L 473.51405 114.106909 
" clip-path="url(#pa4e98b3ed0)" style="fill: none; stroke: #31688e; stroke-width: 1.5; stroke-linecap: square"/>
    <defs>
     <path id="me660e35712" d="M 0 6 
C 1.591219 6 3.117479 5.367802 4.242641 4.242641 
C 5.367802 3.117479 6 1.591219 6 0 
C 6 -1.591219 5.367802 -3.117479 4.242641 -4.242641 
C 3.117479 -5.367802 1.591219 -6 0 -6 
C -1.591219 -6 -3.117479 -5.367802 -4.242641 -4.242641 
C -5.367802 -3.117479 -6 -1.591219 -6 0 
C -6 1.591219 -5.367802 3.117479 -4.242641 4.242641 
C -3.117479 5.367802 -1.591219 6 0 6 
z
" style="stroke: #31688e"/>
    </defs>
    <g clip-path="url(#pa4e98b3ed0)">
     <use xlink:href="#me660e35712" x="104.58843" y="194.164364" style="fill: #31688e; stroke: #31688e"/>
     <use xlink:href="#me660e35712" x="227.563636" y="158.583273" style="fill: #31688e; stroke: #31688e"/>
     <use xlink:href="#me660e35712" x="350.538843" y="131.897455" style="fill: #31688e; stroke: #31688e"/>
     <use xlink:href="#me660e35712" x="473.51405" y="114.106909" style="fill: #31688e; stroke: #31688e"/>
    </g>
   </g>
   <g id="line2d_25">
    <path d="M 116.88595 265.326545 
L 239.861157 235.675636 
L 362.836364 208.989818 
L 485.81157 197.129455 
" clip-path="url(#pa4e98b3ed0)" style="fill: none; stroke: #35b779; stroke-width: 1.5; stroke-linecap: square"/>
    <defs>
     <path id="mdc795cd18f" d="M 0 6 
C 1.591219 6 3.117479 5.367802 4.242641 4.242641 
C 5.367802 3.117479 6 1.591219 6 0 
C 6 -1.591219 5.367802 -3.117479 4.242641 -4.242641 
C 3.117479 -5.367802 1.591219 -6 0 -6 
C -1.591219 -6 -3.117479 -5.367802 -4.242641 -4.242641 
C -5.367802 -3.117479 -6 -1.591219 -6 0 
C -6 1.591219 -5.367802 3.117479 -4.242641 4.242641 
C -3.117479 5.367802 -1.591219 6 0 6 
z
" style="stroke: #35b779"/>
    </defs>
    <g clip-path="url(#pa4e98b3ed0)">
     <use xlink:href="#mdc795cd18f" x="116.88595" y="265.326545" style="fill: #35b779; stroke: #35b779"/>
     <use xlink:href="#mdc795cd18f" x="239.861157" y="235.675636" style="fill: #35b779; stroke: #35b779"/>
     <use xlink:href="#mdc795cd18f" x="362.836364" y="208.989818" style="fill: #35b779; stroke: #35b779"/>
     <use xlink:href="#mdc795cd18f" x="485.81157" y="197.129455" style="fill: #35b779; stroke: #35b779"/>
    </g>
   </g>
   <g id="line2d_26">
    <path d="M 129.183471 312.768 
L 252.158678 300.907636 
L 375.133884 289.047273 
L 498.109091 286.082182 
" clip-path="url(#pa4e98b3ed0)" style="fill: none; stroke: #fde725; stroke-width: 1.5; stroke-linecap: square"/>
    <defs>
     <path id="m0d055d3f21" d="M 0 6 
C 1.591219 6 3.117479 5.367802 4.242641 4.242641 
C 5.367802 3.117479 6 1.591219 6 0 
C 6 -1.591219 5.367802 -3.117479 4.242641 -4.242641 
C 3.117479 -5.367802 1.591219 -6 0 -6 
C -1.591219 -6 -3.117479 -5.367802 -4.242641 -4.242641 
C -5.367802 -3.117479 -6 -1.591219 -6 0 
C -6 1.591219 -5.367802 3.117479 -4.242641 4.242641 
C -3.117479 5.367802 -1.591219 6 0 6 
z
" style="stroke: #fde725"/>
    </defs>
    <g clip-path="url(#pa4e98b3ed0)">
     <use xlink:href="#m0d055d3f21" x="129.183471" y="312.768" style="fill: #fde725; stroke: #fde725"/>
     <use xlink:href="#m0d055d3f21" x="252.158678" y="300.907636" style="fill: #fde725; stroke: #fde725"/>
     <use xlink:href="#m0d055d3f21" x="375.133884" y="289.047273" style="fill: #fde725; stroke: #fde725"/>
     <use xlink:href="#m0d055d3f21" x="498.109091" y="286.082182" style="fill: #fde725; stroke: #fde725"/>
    </g>
   </g>
   <g id="patch_3">
    <path d="M 72 378 
L 72 51.84 
" style="fill: none; stroke: #000000; stroke-width: 0.8; stroke-linejoin: miter; stroke-linecap: square"/>
   </g>
   <g id="patch_4">
    <path d="M 518.4 378 
L 518.4 51.84 
" style="fill: none; stroke: #000000; stroke-width: 0.8; stroke-linejoin: miter; stroke-linecap: square"/>
   </g>
   <g id="patch_5">
    <path d="M 72 378 
L 518.4 378 
" style="fill: none; stroke: #000000; stroke-width: 0.8; stroke-linejoin: miter; stroke-linecap: square"/>
   </g>
   <g id="patch_6">
    <path d="M 72 51.84 
L 518.4 51.84 
" style="fill: none; stroke: #000000; stroke-width: 0.8; stroke-linejoin: miter; stroke-linecap: square"/>
   </g>
   <g id="legend_1">
    <g id="patch_7">
     <path d="M 84.6 171 
L 204.48 171 
Q 208.08 171 208.08 167.4 
L 208.08 64.44 
Q 208.08 60.84 204.48 60.84 
L 84.6 60.84 
Q 81 60.84 81 64.44 
L 81 167.4 
Q 81 171 84.6 171 
z
" style="fill: #ffffff; opacity: 0.8; stroke: #cccccc; stroke-linejoin: miter"/>
    </g>
    <g id="LineCollection_5">
     <path d="M 106.2 84.24 
L 106.2 66.24 
" style="fill: none; stroke: #440154; stroke-width: 1.5"/>
    </g>
    <g id="line2d_27">
     <g>
      <use xlink:href="#m08aec7f297" x="106.2" y="84.24" style="fill: #440154; stroke: #440154"/>
     </g>
    </g>
    <g id="line2d_28">
     <g>
      <use xlink:href="#m08aec7f297" x="106.2" y="66.24" style="fill: #440154; stroke: #440154"/>
     </g>
    </g>
    <g id="line2d_29">
     <path d="M 88.2 75.24 
L 124.2 75.24 
" style="fill: none; stroke: #440154; stroke-width: 1.5; stroke-linecap: square"/>
    </g>
    <g id="line2d_30">
     <g>
      <use xlink:href="#m6c8890b311" x="106.2" y="75.24" style="fill: #440154; stroke: #440154"/>
     </g>
    </g>
    <g id="text_10">
     <!-- $q=0$ -->
     <g transform="translate(138.6 81.54) scale(0.18 -0.18)">
      <defs>
       <path id="DejaVuSans-Oblique-71" d="M 2669 525 
Q 2438 222 2123 65 
Q 1809 -91 1428 -91 
Q 897 -91 595 267 
Q 294 625 294 1253 
Q 294 1759 480 2231 
Q 666 2703 1013 3078 
Q 1238 3322 1530 3453 
Q 1822 3584 2144 3584 
Q 2531 3584 2781 3431 
Q 3031 3278 3144 2969 
L 3244 3494 
L 3822 3494 
L 2888 -1319 
L 2309 -1319 
L 2669 525 
z
M 891 1338 
Q 891 875 1084 633 
Q 1278 391 1644 391 
Q 2188 391 2572 911 
Q 2956 1431 2956 2175 
Q 2956 2625 2757 2864 
Q 2559 3103 2188 3103 
Q 1916 3103 1684 2976 
Q 1453 2850 1281 2606 
Q 1100 2350 995 2006 
Q 891 1663 891 1338 
z
" transform="scale(0.015625)"/>
       <path id="DejaVuSans-3d" d="M 678 2906 
L 4684 2906 
L 4684 2381 
L 678 2381 
L 678 2906 
z
M 678 1631 
L 4684 1631 
L 4684 1100 
L 678 1100 
L 678 1631 
z
" transform="scale(0.015625)"/>
       <path id="DejaVuSans-30" d="M 2034 4250 
Q 1547 4250 1301 3770 
Q 1056 3291 1056 2328 
Q 1056 1369 1301 889 
Q 1547 409 2034 409 
Q 2525 409 2770 889 
Q 3016 1369 3016 2328 
Q 3016 3291 2770 3770 
Q 2525 4250 2034 4250 
z
M 2034 4750 
Q 2819 4750 3233 4129 
Q 3647 3509 3647 2328 
Q 3647 1150 3233 529 
Q 2819 -91 2034 -91 
Q 1250 -91 836 529 
Q 422 1150 422 2328 
Q 422 3509 836 4129 
Q 1250 4750 2034 4750 
z
" transform="scale(0.015625)"/>
      </defs>
      <use xlink:href="#DejaVuSans-Oblique-71" transform="translate(0 0.78125)"/>
      <use xlink:href="#DejaVuSans-3d" transform="translate(82.958984 0.78125)"/>
      <use xlink:href="#DejaVuSans-30" transform="translate(186.230469 0.78125)"/>
     </g>
    </g>
    <g id="LineCollection_6">
     <path d="M 106.2 110.52 
L 106.2 92.52 
" style="fill: none; stroke: #31688e; stroke-width: 1.5"/>
    </g>
    <g id="line2d_31">
     <g>
      <use xlink:href="#m1c3b921389" x="106.2" y="110.52" style="fill: #31688e; stroke: #31688e"/>
     </g>
    </g>
    <g id="line2d_32">
     <g>
      <use xlink:href="#m1c3b921389" x="106.2" y="92.52" style="fill: #31688e; stroke: #31688e"/>
     </g>
    </g>
    <g id="line2d_33">
     <path d="M 88.2 101.52 
L 124.2 101.52 
" style="fill: none; stroke: #31688e; stroke-width: 1.5; stroke-linecap: square"/>
    </g>
    <g id="line2d_34">
     <g>
      <use xlink:href="#me660e35712" x="106.2" y="101.52" style="fill: #31688e; stroke: #31688e"/>
     </g>
    </g>
    <g id="text_11">
     <!-- $q=0.5$ -->
     <g transform="translate(138.6 107.82) scale(0.18 -0.18)">
      <defs>
       <path id="DejaVuSans-2e" d="M 684 794 
L 1344 794 
L 1344 0 
L 684 0 
L 684 794 
z
" transform="scale(0.015625)"/>
       <path id="DejaVuSans-35" d="M 691 4666 
L 3169 4666 
L 3169 4134 
L 1269 4134 
L 1269 2991 
Q 1406 3038 1543 3061 
Q 1681 3084 1819 3084 
Q 2600 3084 3056 2656 
Q 3513 2228 3513 1497 
Q 3513 744 3044 326 
Q 2575 -91 1722 -91 
Q 1428 -91 1123 -41 
Q 819 9 494 109 
L 494 744 
Q 775 591 1075 516 
Q 1375 441 1709 441 
Q 2250 441 2565 725 
Q 2881 1009 2881 1497 
Q 2881 1984 2565 2268 
Q 2250 2553 1709 2553 
Q 1456 2553 1204 2497 
Q 953 2441 691 2322 
L 691 4666 
z
" transform="scale(0.015625)"/>
      </defs>
      <use xlink:href="#DejaVuSans-Oblique-71" transform="translate(0 0.78125)"/>
      <use xlink:href="#DejaVuSans-3d" transform="translate(82.958984 0.78125)"/>
      <use xlink:href="#DejaVuSans-30" transform="translate(186.230469 0.78125)"/>
      <use xlink:href="#DejaVuSans-2e" transform="translate(249.853516 0.78125)"/>
      <use xlink:href="#DejaVuSans-35" transform="translate(281.640625 0.78125)"/>
     </g>
    </g>
    <g id="LineCollection_7">
     <path d="M 106.2 136.44 
L 106.2 118.44 
" style="fill: none; stroke: #35b779; stroke-width: 1.5"/>
    </g>
    <g id="line2d_35">
     <g>
      <use xlink:href="#m858650cf69" x="106.2" y="136.44" style="fill: #35b779; stroke: #35b779"/>
     </g>
    </g>
    <g id="line2d_36">
     <g>
      <use xlink:href="#m858650cf69" x="106.2" y="118.44" style="fill: #35b779; stroke: #35b779"/>
     </g>
    </g>
    <g id="line2d_37">
     <path d="M 88.2 127.44 
L 124.2 127.44 
" style="fill: none; stroke: #35b779; stroke-width: 1.5; stroke-linecap: square"/>
    </g>
    <g id="line2d_38">
     <g>
      <use xlink:href="#mdc795cd18f" x="106.2" y="127.44" style="fill: #35b779; stroke: #35b779"/>
     </g>
    </g>
    <g id="text_12">
     <!-- $q=1$ -->
     <g transform="translate(138.6 133.74) scale(0.18 -0.18)">
      <defs>
       <path id="DejaVuSans-31" d="M 794 531 
L 1825 531 
L 1825 4091 
L 703 3866 
L 703 4441 
L 1819 4666 
L 2450 4666 
L 2450 531 
L 3481 531 
L 3481 0 
L 794 0 
L 794 531 
z
" transform="scale(0.015625)"/>
      </defs>
      <use xlink:href="#DejaVuSans-Oblique-71" transform="translate(0 0.09375)"/>
      <use xlink:href="#DejaVuSans-3d" transform="translate(82.958984 0.09375)"/>
      <use xlink:href="#DejaVuSans-31" transform="translate(186.230469 0.09375)"/>
     </g>
    </g>
    <g id="LineCollection_8">
     <path d="M 106.2 162.72 
L 106.2 144.72 
" style="fill: none; stroke: #fde725; stroke-width: 1.5"/>
    </g>
    <g id="line2d_39">
     <g>
      <use xlink:href="#m0fbffb3337" x="106.2" y="162.72" style="fill: #fde725; stroke: #fde725"/>
     </g>
    </g>
    <g id="line2d_40">
     <g>
      <use xlink:href="#m0fbffb3337" x="106.2" y="144.72" style="fill: #fde725; stroke: #fde725"/>
     </g>
    </g>
    <g id="line2d_41">
     <path d="M 88.2 153.72 
L 124.2 153.72 
" style="fill: none; stroke: #fde725; stroke-width: 1.5; stroke-linecap: square"/>
    </g>
    <g id="line2d_42">
     <g>
      <use xlink:href="#m0d055d3f21" x="106.2" y="153.72" style="fill: #fde725; stroke: #fde725"/>
     </g>
    </g>
    <g id="text_13">
     <!-- $q=2$ -->
     <g transform="translate(138.6 160.02) scale(0.18 -0.18)">
      <defs>
       <path id="DejaVuSans-32" d="M 1228 531 
L 3431 531 
L 3431 0 
L 469 0 
L 469 531 
Q 828 903 1448 1529 
Q 2069 2156 2228 2338 
Q 2531 2678 2651 2914 
Q 2772 3150 2772 3378 
Q 2772 3750 2511 3984 
Q 2250 4219 1831 4219 
Q 1534 4219 1204 4116 
Q 875 4013 500 3803 
L 500 4441 
Q 881 4594 1212 4672 
Q 1544 4750 1819 4750 
Q 2544 4750 2975 4387 
Q 3406 4025 3406 3419 
Q 3406 3131 3298 2873 
Q 3191 2616 2906 2266 
Q 2828 2175 2409 1742 
Q 1991 1309 1228 531 
z
" transform="scale(0.015625)"/>
      </defs>
      <use xlink:href="#DejaVuSans-Oblique-71" transform="translate(0 0.78125)"/>
      <use xlink:href="#DejaVuSans-3d" transform="translate(82.958984 0.78125)"/>
      <use xlink:href="#DejaVuSans-32" transform="translate(186.230469 0.78125)"/>
     </g>
    </g>
   </g>
  </g>
 </g>
 <defs>
  <clipPath id="pa4e98b3ed0">
   <rect x="72" y="51.84" width="446.4" height="326.16"/>
  </clipPath>
 </defs>
</svg>
